<svg xmlns="http://www.w3.org/2000/svg" xmlns:xlink="http://www.w3.org/1999/xlink" viewBox="0 0 810.53 500"><defs><style>.cls-1{fill:none;}.cls-2{clip-path:url(#clip-path);}.cls-3{fill:#02093b;}.cls-4{fill:#819fda;}.cls-5{fill:#fff;}.cls-6{opacity:0.8;}.cls-7{fill:#d67068;}.cls-8{fill:#d0e0fd;}.cls-10,.cls-9{fill:#a1b9e8;}.cls-10{opacity:0.2;}.cls-11{fill:#415b96;}.cls-12{fill:#da975d;}.cls-13{fill:#748fc5;}.cls-14{fill:#b84b43;}.cls-15{fill:#cc8346;}.cls-16{fill:#ede3dc;}.cls-17{fill:#373e5f;}.cls-18{fill:#88b373;}.cls-19{fill:#acd29a;}</style><clipPath id="clip-path"><rect class="cls-1" x="-37.26" y="-1.87" width="850.63" height="541.91"/></clipPath></defs><title>Mesa de trabajo 1 copia 4</title><g id="Objects"><g class="cls-2"><rect class="cls-3" x="-37.58" y="-0.57" width="850.63" height="541.91"/></g><path class="cls-4" d="M611.27,232.06a57,57,0,0,0,.36-6.44c0-1.15,0-2.29-.1-3.43l-10.65-3.44A46.82,46.82,0,0,0,597.11,206l7.06-8.69a57.12,57.12,0,0,0-5.59-8.13l-10.66,3.47a47.34,47.34,0,0,0-10.54-8.1l.61-11.19a57,57,0,0,0-9.3-3.3l-6.58,9.08a47.61,47.61,0,0,0-7.88-.66,48.54,48.54,0,0,0-5.42.31l-6.08-9.41a56.77,56.77,0,0,0-9.47,2.79l0,11.21a47.16,47.16,0,0,0-11,7.54l-10.45-4a57.24,57.24,0,0,0-6,7.82l6.6,9.05A47,47,0,0,0,508,216.3l-10.81,2.87a57.29,57.29,0,0,0-.37,6.45c0,1.15,0,2.29.11,3.42l10.65,3.45a46.58,46.58,0,0,0,3.77,12.76l-7.06,8.69a57.43,57.43,0,0,0,5.59,8.13l10.65-3.48a47.14,47.14,0,0,0,10.55,8.11l-.61,11.19a57.63,57.63,0,0,0,9.3,3.3l6.58-9.08a47.52,47.52,0,0,0,7.88.66,48.23,48.23,0,0,0,5.41-.31l6.09,9.41a55.75,55.75,0,0,0,9.46-2.8v-11.2a47.68,47.68,0,0,0,11-7.54l10.45,4a57.78,57.78,0,0,0,6-7.82L596,247.48a46.77,46.77,0,0,0,4.44-12.54Zm-57,16.07a22.52,22.52,0,1,1,22.51-22.51A22.51,22.51,0,0,1,554.23,248.13Z"/><path class="cls-5" d="M584.94,251.3a.86.86,0,0,1-.54-.2.83.83,0,0,1-.11-1.18A38,38,0,0,0,591,213.23a.84.84,0,1,1,1.59-.55,39.73,39.73,0,0,1-7,38.31A.82.82,0,0,1,584.94,251.3Z"/><path class="cls-5" d="M581.68,198.16a.85.85,0,0,1-.58-.23A37.8,37.8,0,0,0,568,189.86a.84.84,0,1,1,.57-1.58,39.44,39.44,0,0,1,13.67,8.42.84.84,0,0,1-.57,1.46Z"/><path class="cls-5" d="M545.49,188.77a.84.84,0,0,1-.81-.63.86.86,0,0,1,.61-1,39.87,39.87,0,0,1,9.75-1.2.84.84,0,1,1,0,1.68,38.05,38.05,0,0,0-9.34,1.16Z"/><path class="cls-4" d="M430.31,374.63a41.27,41.27,0,0,0,.25-4.47c0-.8,0-1.59-.07-2.37l-7.38-2.39a32.6,32.6,0,0,0-2.61-8.84l4.89-6a40.5,40.5,0,0,0-3.87-5.64l-7.38,2.41a32.54,32.54,0,0,0-7.31-5.61l.42-7.75a39.05,39.05,0,0,0-6.44-2.29L396.26,338a32.4,32.4,0,0,0-9.21-.24l-4.22-6.52a38.94,38.94,0,0,0-6.55,1.94v7.76a32.62,32.62,0,0,0-7.59,5.22l-7.24-2.79a40,40,0,0,0-4.17,5.42l4.57,6.27a32.6,32.6,0,0,0-3.08,8.68l-7.49,2a41,41,0,0,0-.25,4.46c0,.8,0,1.59.07,2.37l7.38,2.39a32.14,32.14,0,0,0,2.61,8.84l-4.89,6a40.4,40.4,0,0,0,3.87,5.63l7.38-2.41a33,33,0,0,0,7.3,5.62l-.42,7.75a40.66,40.66,0,0,0,6.44,2.28l4.56-6.29a32.4,32.4,0,0,0,9.21.24l4.22,6.52a39.87,39.87,0,0,0,6.55-1.93v-7.77a32.62,32.62,0,0,0,7.59-5.22l7.24,2.8a41.31,41.31,0,0,0,4.17-5.42l-4.57-6.27a32.8,32.8,0,0,0,3.08-8.69ZM390.8,385.76a15.6,15.6,0,1,1,15.59-15.6A15.61,15.61,0,0,1,390.8,385.76Z"/><path class="cls-5" d="M412.07,388.21a.86.86,0,0,1-.54-.2.84.84,0,0,1-.11-1.18A26.16,26.16,0,0,0,416,361.66a.84.84,0,0,1,.52-1.07.85.85,0,0,1,1.07.53,27.85,27.85,0,0,1-4.9,26.78A.86.86,0,0,1,412.07,388.21Z"/><path class="cls-5" d="M409.81,351.4a.87.87,0,0,1-.58-.23,25.67,25.67,0,0,0-9-5.53.84.84,0,0,1,.57-1.59,27.76,27.76,0,0,1,9.56,5.89.84.84,0,0,1,0,1.19A.8.8,0,0,1,409.81,351.4Z"/><path class="cls-5" d="M384.75,344.9a.85.85,0,0,1-.82-.64.84.84,0,0,1,.61-1,27.87,27.87,0,0,1,6.82-.84.84.84,0,1,1,0,1.68,26.4,26.4,0,0,0-6.4.79Z"/><path class="cls-4" d="M645.65,274.94c0-.43,0-.86,0-1.29l5.53-4.44a29.55,29.55,0,0,0-2-6.35l-7.14-.54a23.81,23.81,0,0,0-6.17-6.56l0-7.11a29.85,29.85,0,0,0-6.33-2.44l-4.87,5.25a24.11,24.11,0,0,0-2.56-.14,23.56,23.56,0,0,0-6.21.83l-5.6-4.43a29.68,29.68,0,0,0-5.91,3.43l1.06,7a23.53,23.53,0,0,0-5,7.27l-7,1.61a29.72,29.72,0,0,0-1,6.71l6.13,3.54a23.3,23.3,0,0,0,2.62,8.66l-3.07,6.43a30,30,0,0,0,4.51,4.91l6.57-2.58a23.6,23.6,0,0,0,8.66,3.44l3.1,6.38,1.11,0a29.51,29.51,0,0,0,5.44-.5l2.09-6.75a23.69,23.69,0,0,0,8.15-4.74l6.91,1.55a30.14,30.14,0,0,0,3.68-5.43l-4-5.88A23.5,23.5,0,0,0,645.65,274.94Zm-23.88,10.41a10,10,0,1,1,10-10A10,10,0,0,1,621.77,285.35Z"/><g class="cls-6"><path class="cls-4" d="M737.61,217.63h-8.55a6,6,0,0,1-6-6v-8.55a6,6,0,0,1,6-6h8.55a6,6,0,0,1,6,6v8.55A6,6,0,0,1,737.61,217.63Zm-8.55-18.17a3.63,3.63,0,0,0-3.63,3.63v8.55a3.62,3.62,0,0,0,3.63,3.63h8.55a3.63,3.63,0,0,0,3.63-3.63v-8.55a3.64,3.64,0,0,0-3.63-3.63Z"/></g><g class="cls-6"><path class="cls-4" d="M697.38,217.63h-8.55a6,6,0,0,1-6-6v-8.55a6,6,0,0,1,6-6h8.55a6,6,0,0,1,6,6v8.55A6,6,0,0,1,697.38,217.63Zm-8.55-18.17a3.64,3.64,0,0,0-3.64,3.63v8.55a3.63,3.63,0,0,0,3.64,3.63h8.55a3.63,3.63,0,0,0,3.63-3.63v-8.55a3.64,3.64,0,0,0-3.63-3.63Z"/></g><path class="cls-7" d="M693.64,212.65h0a1,1,0,0,1-.76-.39l-6.14-8a1,1,0,0,1,1.6-1.23l5.42,7.07,14.15-15.16a1,1,0,0,1,1.48,1.38l-15,16A1,1,0,0,1,693.64,212.65Z"/><path class="cls-8" d="M765.87,438.44c-35-1.71-154.08,1.19-190.29,2.32s-78.25-1.49-100.09-5.35-148,.33-142.33,10.69,56.24,4.64,113.52,8.8,186.09-.52,215.15,0,55.7-1,93.15-3.12S786.16,439.43,765.87,438.44Z"/><rect class="cls-9" x="334.92" y="221.72" width="73.17" height="119.93"/><rect class="cls-5" x="338.76" y="224.16" width="66.93" height="112.92"/><path class="cls-9" d="M380.91,302.8H363.74a2,2,0,0,1,0-4h17.17a2,2,0,0,1,0,4Z"/><path class="cls-9" d="M384.06,308.93H360.6a2,2,0,1,1,0-4h23.46a2,2,0,0,1,0,4Z"/><path class="cls-9" d="M400.86,317.72H343.79a1.16,1.16,0,1,1,0-2.31h57.07a1.16,1.16,0,1,1,0,2.31Z"/><path class="cls-9" d="M400.86,323.11H343.79a1.16,1.16,0,1,1,0-2.32h57.07a1.16,1.16,0,0,1,0,2.32Z"/><path class="cls-9" d="M392.88,293.42H351.77c-1.14,0-2.06-1.43-2.06-3.19v-58.3c0-1.75.92-3.18,2.06-3.18h41.11c1.14,0,2.07,1.43,2.07,3.18v58.3C395,292,394,293.42,392.88,293.42Zm-41.11-62.08c-.2,0-.38.27-.38.59v58.3c0,.32.18.6.38.6h41.11c.21,0,.39-.28.39-.6v-58.3c0-.32-.18-.59-.39-.59Z"/><rect class="cls-9" x="498.05" y="221.72" width="73.17" height="119.93"/><rect class="cls-5" x="501.88" y="224.16" width="66.93" height="112.92"/><path class="cls-9" d="M544,284.14H526.87a2,2,0,0,1,0-4H544a2,2,0,0,1,0,4Z"/><path class="cls-9" d="M547.18,290.27H523.72a2,2,0,1,1,0-4h23.46a2,2,0,1,1,0,4Z"/><path class="cls-9" d="M564,312.34H506.92a1.16,1.16,0,0,1,0-2.32H564a1.16,1.16,0,0,1,0,2.32Z"/><path class="cls-9" d="M564,317.72H506.92a1.16,1.16,0,1,1,0-2.31H564a1.16,1.16,0,0,1,0,2.31Z"/><path class="cls-9" d="M564,323.11H506.92a1.16,1.16,0,1,1,0-2.32H564a1.16,1.16,0,0,1,0,2.32Z"/><path class="cls-9" d="M556,270.77H514.9a2.07,2.07,0,0,1-2.07-2.07V230.82a2.07,2.07,0,0,1,2.07-2.07H556a2.07,2.07,0,0,1,2.07,2.07V268.7A2.07,2.07,0,0,1,556,270.77Zm-41.1-40.34a.4.4,0,0,0-.39.39V268.7a.4.4,0,0,0,.39.39H556a.4.4,0,0,0,.39-.39V230.82a.4.4,0,0,0-.39-.39Z"/><polygon class="cls-9" points="520.83 295.48 522.02 297.89 524.68 298.28 522.76 300.16 523.21 302.81 520.83 301.56 518.45 302.81 518.9 300.16 516.98 298.28 519.64 297.89 520.83 295.48"/><polygon class="cls-9" points="530.58 295.48 531.77 297.89 534.43 298.28 532.5 300.16 532.96 302.81 530.58 301.56 528.2 302.81 528.65 300.16 526.73 298.28 529.39 297.89 530.58 295.48"/><polygon class="cls-9" points="540.33 295.48 541.51 297.89 544.18 298.28 542.25 300.16 542.71 302.81 540.33 301.56 537.95 302.81 538.4 300.16 536.47 298.28 539.13 297.89 540.33 295.48"/><polygon class="cls-9" points="550.07 295.48 551.26 297.89 553.92 298.28 552 300.16 552.45 302.81 550.07 301.56 547.69 302.81 548.15 300.16 546.22 298.28 548.88 297.89 550.07 295.48"/><polygon class="cls-10" points="506.27 340.45 390.8 340.45 398.97 222.16 510.44 222.16 506.27 340.45"/><rect class="cls-9" x="402.93" y="199.78" width="99.94" height="163.81"/><rect class="cls-5" x="408.16" y="203.12" width="91.42" height="154.23"/><path class="cls-9" d="M475.35,285H432.69a2.73,2.73,0,0,1,0-5.46h42.66a2.73,2.73,0,0,1,0,5.46Z"/><path class="cls-9" d="M470,293.42H438a2.73,2.73,0,0,1,0-5.46H470a2.73,2.73,0,0,1,0,5.46Z"/><path class="cls-9" d="M493,323.55H415a1.58,1.58,0,0,1,0-3.16H493a1.58,1.58,0,0,1,0,3.16Z"/><path class="cls-9" d="M493,330.91H415a1.59,1.59,0,0,1,0-3.17H493a1.59,1.59,0,0,1,0,3.17Z"/><path class="cls-9" d="M493,338.26H415a1.58,1.58,0,0,1,0-3.16H493a1.58,1.58,0,0,1,0,3.16Z"/><path class="cls-9" d="M482.09,266.47H426a2.52,2.52,0,0,1-2.52-2.52V212.21a2.52,2.52,0,0,1,2.52-2.52h56.14a2.52,2.52,0,0,1,2.52,2.52V264A2.52,2.52,0,0,1,482.09,266.47ZM426,211.38a.83.83,0,0,0-.84.83V264a.84.84,0,0,0,.84.84h56.14a.84.84,0,0,0,.83-.84V212.21a.83.83,0,0,0-.83-.83Z"/><polygon class="cls-9" points="427.28 300.53 428.91 303.82 432.54 304.35 429.91 306.92 430.54 310.54 427.28 308.83 424.03 310.54 424.65 306.92 422.02 304.35 425.66 303.82 427.28 300.53"/><polygon class="cls-9" points="440.6 300.53 442.22 303.82 445.86 304.35 443.23 306.92 443.85 310.54 440.6 308.83 437.35 310.54 437.97 306.92 435.34 304.35 438.97 303.82 440.6 300.53"/><polygon class="cls-9" points="453.91 300.53 455.54 303.82 459.17 304.35 456.54 306.92 457.16 310.54 453.91 308.83 450.66 310.54 451.28 306.92 448.65 304.35 452.29 303.82 453.91 300.53"/><polygon class="cls-9" points="467.22 300.53 468.85 303.82 472.48 304.35 469.85 306.92 470.48 310.54 467.22 308.83 463.97 310.54 464.59 306.92 461.96 304.35 465.6 303.82 467.22 300.53"/><polygon class="cls-9" points="480.75 300.53 482.38 303.82 486.01 304.35 483.38 306.92 484 310.54 480.75 308.83 477.5 310.54 478.12 306.92 475.49 304.35 479.12 303.82 480.75 300.53"/><rect class="cls-11" x="533.74" y="353.44" width="131.03" height="4.88" rx="2.44"/><path class="cls-12" d="M696.4,288c1.73,6.12-2.51,12.44-7.19,13.76s-8-2.83-9.74-9,.64-12.17,5.31-13.49S694.66,281.87,696.4,288Z"/><path class="cls-12" d="M670.18,406.7s12,18.61,13.6,19.42,5.67,1,4.15,4.05-2.12,15-3.54,15.57-13.55,2-11.73,0,2.94-1,3.86-4.65,2.21-10.52.49-11.93S664.77,415,664.77,415Z"/><path class="cls-12" d="M609.88,414.7s-14.56,24-17.26,26.16-11.6,5.39-4.32,5.93,10.79-2.43,15.38-3.77,10.25-2.16,8.09-5.67-1.26-11.16,3.39-16S609.88,414.7,609.88,414.7Z"/><path class="cls-13" d="M684.21,359s-36.06-.94-50.35,10.79c-8.37,12.68-28.59,50.08-30.17,54.2,1.08,1.08,7.15,3,9.85,2.76,8-9.49,18.47-17.69,22.66-25.13,5.15-9.17,6.74-13.76,15.1-14.57s27.24-3.5,32.91-3.5S684.21,359,684.21,359Z"/><polygon class="cls-11" points="715.65 446.86 713.76 446.86 700.2 390.31 704.36 390.31 715.65 446.86"/><polygon class="cls-11" points="659.03 446.86 660.92 446.86 676.47 388.31 672.32 388.31 659.03 446.86"/><path class="cls-4" d="M704.75,356.56l-21,3.62s-27.85.26-40.59,2.63c-11.58,2.16-13.29,15.32,0,33.44,7.56,10.3,13.94,18.51,27,27.77,3.32-2.44,4.59-3.36,5.51-9.22-.94-1.3-3.39-9.41-4.15-11-7.22-15.09-16.86-20.58-17-22.06,1.62-2.63,42.87,13.7,51.07,4.09C713.45,376.66,704.75,356.56,704.75,356.56Z"/><path class="cls-7" d="M705.62,309.11a21.92,21.92,0,0,0-16.41,4.08c-4.59,4.68-9.79,12.41-9.47,25.15.4,16.18-2.51,17.22.53,21.67,12.65,5.23,34.3,27.68,29.2,3.61-3.69-17.43,8.09-30.42-1.41-49.76C707.28,312.29,706.32,310.76,705.62,309.11Z"/><path class="cls-14" d="M679.73,344.43c-.24,8.43-1.43,10.92-.52,13.56,5.16.53,14.59,2.6,16.95,5.9,2.7,3.77,5.4,4.31,4.14,1.53s-4.59-6.75.54-20.32,7.55-22.75,2.51-32.19Z"/><path class="cls-12" d="M705.62,309.11A66,66,0,0,1,701.38,292l-8.9,2.63s5.06,11.32.2,15.37a45.53,45.53,0,0,0-3.47,3.17A21.92,21.92,0,0,1,705.62,309.11Z"/><path class="cls-15" d="M701.65,294.16l-1.88-1.67-7.26,2.15v0a29.73,29.73,0,0,1,2.26,8.86,25.35,25.35,0,0,0,7.24-7.19C701.86,295.52,701.74,294.78,701.65,294.16Z"/><path class="cls-12" d="M699.36,311.64c-9.17,3.2-8.15,12.86-16.59,27.1-4.36,7.37-8.42,7.26-8.42,7.26a193.39,193.39,0,0,1-22.62-1.43c-7.76-.95-8.25,1.36-2.86,3.29,10.88,3.89,22.17,8.08,31.27,7.06s24.67-24.23,25.48-30.28C706.73,316.28,704,310,699.36,311.64Z"/><path class="cls-11" d="M694.64,392.67l-1.75,0a87.66,87.66,0,0,1-16.65-2c-4.77-1-7.4-1.5-10.45,0a2.36,2.36,0,1,1-2-4.26c4.49-2.14,8.24-1.37,13.43-.32a83.88,83.88,0,0,0,15.82,2c7.9.19,12.71-1,15.15-3.68,2.18-2.42,2.81-6.47,2-12.75-.28-2.16-.56-3.95-.8-5.52-.69-4.46-1.15-7.4-.58-11.95.52-4.23,1.92-9.85,5.16-20.77a2.36,2.36,0,0,1,4.52,1.35c-6,20.33-5.73,22.31-4.44,30.65.24,1.6.53,3.42.81,5.64,1,7.75,0,13-3.18,16.5S703.11,392.67,694.64,392.67Z"/><path class="cls-14" d="M610.87,434.93c-9.66,4.72-14.87,7.43-18,7.17-.73-.06-1.34-.13-1.85-.21-3.45,2-8.95,4.44-2.76,4.9,7.28.54,10.79-2.43,15.38-3.77s10.25-2.16,8.09-5.67A7.09,7.09,0,0,1,610.87,434.93Z"/><path class="cls-14" d="M684.84,426.52c-.24,7.65-1.29,15.23-6,16.66a7.75,7.75,0,0,1-3.37.3c-.74.91-1.64.92-2.84,2.26-1.82,2,10.31.61,11.73,0s2-12.54,3.54-15.57C689.18,427.68,686.67,427.09,684.84,426.52Z"/><path class="cls-4" d="M647.61,354.11h-30.7a2.37,2.37,0,0,1-2.14-1.37L602.37,326a2.36,2.36,0,1,1,4.27-2l11.77,25.34h29.2a2.36,2.36,0,0,1,0,4.72Z"/><path class="cls-12" d="M654,344.84c-6.21-.09-12.36-3.79-15.42-3.25s-13,7.46-11.77,7.73,9.17-3.83,9.44-3.89,2,2.84,6.2,3.9,0-3.16,13.13.79C664.13,352.7,654,344.84,654,344.84Z"/><path class="cls-16" d="M704.7,301.76l.92,7.35s-8,.47-12,2.72-9.89,8.74-9.89,8.74l4.82-8.29.69-5.3Z"/><path class="cls-16" d="M701.29,310.75c-6-1.11-8.72,4.23-12.59,12.95S678.23,343,676.92,344.38s-22.11,0-22.11,0-.63,6,0,6.74,4.22.63,4.22.63,1.44,1.15,2.79,2.06,12.77,2.61,18.07,2.35,10.16-.72,10.88-1.53,15.19-23.11,16.09-31.11S704.33,311.32,701.29,310.75Z"/><path class="cls-17" d="M683.7,274.07c-11.27.54-9.5,17.51-9.5,17.51s2.93.9,9.06-.11A34,34,0,0,1,683,285a41.75,41.75,0,0,0,1.62,6.06c1.3.6,2.76.07,5.26-.53a11.1,11.1,0,0,0,7.38,8.45c2.74.86,5.64,1.88,8.87.27s1.46-18.17-.26-21.49c-2.58-5-6.87-9.46-14.28-7.1A55.23,55.23,0,0,0,683.7,274.07Z"/><path class="cls-17" d="M703.31,294.22l4.61,6.73s-5.1,12.77,9.76,18.55c11.63,4.53,10.26,12.52,5,20.54s3.15,15,3.15,15,1.28-8.89,12.59-10.57c15.42-2.29,19.79-23,8.27-33.34-9.53-8.57-12.43-1.47-18.88-9.16s-18.63-2.5-18.63-2.5l-4.46-6.5Z"/><path class="cls-17" d="M752,332a.45.45,0,0,1-.19,0,.42.42,0,0,1-.17-.56c3.88-7.08.72-15.67-.87-18l-.5-.76c-1.57-2.44-3.51-5.48-13.89-7.35-2.5-.45-4.53-1.93-6.67-3.51-4.43-3.25-9.45-6.93-20.35-1.91a.41.41,0,0,1-.54-.2.41.41,0,0,1,.2-.55c11.34-5.22,16.56-1.38,21.17,2,2.07,1.52,4,2.95,6.33,3.37,10.74,1.93,12.79,5.13,14.44,7.71.16.26.32.5.48.74,1.67,2.43,5,11.43.92,18.85A.41.41,0,0,1,752,332Z"/><path class="cls-17" d="M700.85,301.12a16,16,0,0,1-2.39-.19c-4-.59-9.24-2.84-9.66-15.43a.42.42,0,0,1,.4-.42.41.41,0,0,1,.42.4c.18,5.19,1.2,9,3.06,11.41a8.67,8.67,0,0,0,5.9,3.23c3.65.54,6.07-.13,7.19-2a.41.41,0,0,1,.71.42C705.45,300.25,703.56,301.12,700.85,301.12Z"/><polygon class="cls-11" points="547.48 446.86 550.51 446.86 562.3 356.76 555.63 356.76 547.48 446.86"/><polygon class="cls-11" points="650.29 446.86 647.26 446.86 635.48 356.76 642.14 356.76 650.29 446.86"/><path class="cls-18" d="M769.11,370.81c5.24,4.78,3,9.57-.91,18.46S763.64,431,763.64,431l3.19-.46s-.46-33.73,3.87-42.85,6.16-13.67,10-10.71S769.11,370.81,769.11,370.81Z"/><path class="cls-19" d="M766.23,364.61c.64-2.84,4.42-5.9,9.47-8.51-.75,4.19-3.16,11-.67,12.43,3.37,1.89.33-7.66,1.63-12.91a62.32,62.32,0,0,1,15.72-5.15s0,0,0,0c-3,7.52-6.84,10.49-5.25,11.63,1.2.85,5.11-7.83,10.28-12.29,3.87-.2,7.15.32,9.09,1.86,3,2.37,5,4.48,2,11.7a13.54,13.54,0,0,1-6.54,2.37c-6.84.69-10,.92-5.24,3.19,2.34,1.12,6.27-.06,9.45-.78-1,1.91-2.3,4.06-3.84,6.52a23.93,23.93,0,0,1-3.21,4.07,10,10,0,0,1-5.14,0c-3.19-1.36-11.4-5.69-13.45-3.87s15.2,2.92,14,7.45c-8.34,4.8-17.88,2.52-19.57-1.89C772.68,374.54,764.31,373.15,766.23,364.61Z"/><path class="cls-18" d="M783.47,397c-9.12-6.84-18.46-.46-23.25,6.83s-1.37,23.71-1.37,23.71,1.83,0,1.83-.69-5-19.37,6.83-27.8c7.42-5.28,12.77-2.74,13.45-.23s-3,7.07-3,7.07Z"/><path class="cls-19" d="M762.5,383c9.12,0,12.08,14.13,9.57,22.34s-5.92,23.47-5.92,23.47l-2.28-2.28s8.66-21.42,6.61-31-7.07-11.17-8-11.17S762.5,383,762.5,383Z"/><path class="cls-18" d="M770.14,405.36a6.78,6.78,0,0,1,2.4-2,16.51,16.51,0,0,1-.47,2c-1.14,3.74-2.47,8.94-3.58,13.5-.1-.58-.26-1.48-.5-2.87-.06-.33-.1-.69-.13-1.06A89,89,0,0,0,770.14,405.36Z"/><path class="cls-19" d="M772.64,405.43c17.32-7.29,8.19-17.3,23.46-10.69a11.19,11.19,0,0,1,3.7,3.26,11.39,11.39,0,0,1-4.84.38c-4.55-.68-3,3,4.56,3.88a17.19,17.19,0,0,1,3.53.74c3.58,6.88,5.19,15.94-2.39,19.09a17.09,17.09,0,0,1-5.4,1.1c-2.34-1.85.58-12.62-3-11.13s1.08,9.22.46,11.19a49.62,49.62,0,0,1-10.82-1.52,5.4,5.4,0,0,1-2.86-3.29c-1.14-4.79,6.38-7.75,6.61-11.85.21-3.77-2.76,8.3-10.62,10.07C767.9,413.34,764.54,408.84,772.64,405.43Z"/><path class="cls-19" d="M760.3,392.54c1.82-3.88-3-4.79-2.74-1.83.2,2.63.23,9-2.47,10.75a42.48,42.48,0,0,1-15.74-5.23,1.9,1.9,0,0,1,.21-1.19c2.05-4.1,15.27-7.52,11.16-8.89-3.26-1.09-9,5.34-13.6,8.58-2.77-2.1-4.63-4.61-4.63-7.4,0-3.79,4.6-8.08,10.55-10.13,2.68.27,5.17,1.74,9.05,3.94,5.74,3.25,4.41-2-1-5.13a16.39,16.39,0,0,1,12.8,7s-.33,2,1.83,5.2c5.9,8.63-.91,13.66-9.05,13.34C757.12,399.3,759,395.21,760.3,392.54Z"/><path class="cls-18" d="M782.92,396.63c4.46,3.45,9.41,7.47,15.48,10.21s4.87,11.65,4.87,11.65.91-7.7-4.16-10.34-8.4-5.77-12.25-6.38a57.79,57.79,0,0,1-6-1.21s1.22-2.43.51-3.35S782.92,396.63,782.92,396.63Z"/><path class="cls-18" d="M804.89,356.19c-16.31,4.35-28.27,14.79-30.49,17.32s-2.23,3.24-2.23,3.24l1.72,3.24.81-.4s-1.32-2.74,2.13-6.28c5.94-6.12,13.17-10.94,18.13-13.07S804.89,356.19,804.89,356.19Z"/><path class="cls-4" d="M763,424.12h0a11.14,11.14,0,0,1,11.14,11.14v11.2a0,0,0,0,1,0,0H751.85a0,0,0,0,1,0,0v-11.2A11.14,11.14,0,0,1,763,424.12Z" transform="translate(1525.97 870.58) rotate(-180)"/><rect class="cls-5" x="751.85" y="426.68" width="22.28" height="1.57"/><rect class="cls-5" x="751.85" y="429.54" width="22.28" height="0.92"/><rect class="cls-4" x="351.48" y="418.53" width="9.38" height="8.44" rx="4.22" transform="translate(712.35 845.5) rotate(180)"/><rect class="cls-4" x="334.43" y="418.53" width="9.38" height="8.44" rx="4.22" transform="translate(678.24 845.5) rotate(180)"/><rect class="cls-4" x="317.38" y="418.53" width="9.38" height="8.44" rx="4.22" transform="translate(644.13 845.5) rotate(-180)"/><rect class="cls-4" x="795.84" y="262.78" width="9.38" height="8.44" rx="4.22" transform="translate(1067.53 -533.54) rotate(90)"/><rect class="cls-4" x="795.84" y="279.83" width="9.38" height="8.44" rx="4.22" transform="translate(1084.58 -516.48) rotate(90)"/><rect class="cls-4" x="795.84" y="296.88" width="9.38" height="8.44" rx="4.22" transform="translate(1101.64 -499.43) rotate(90)"/></g></svg>