<svg xmlns="http://www.w3.org/2000/svg" viewBox="0 0 492.59 287.28"><defs><style>.cls-1{fill:#819fda;}.cls-2{fill:#fff;}.cls-3{opacity:0.8;}.cls-4{fill:#d67068;}.cls-5{fill:#d0e0fd;}.cls-13,.cls-6{fill:#a1b9e8;}.cls-7{fill:#acd4e6;}.cls-8{fill:#3c3b4d;}.cls-9{fill:#da975d;}.cls-10{fill:#cc8346;}.cls-11{fill:#6f4f38;}.cls-12{fill:#b84b43;}.cls-13{opacity:0.2;}.cls-14{fill:#415b96;}.cls-15{fill:#748fc5;}.cls-16{fill:#ede3dc;}.cls-17{fill:#373e5f;}.cls-18{fill:#88b373;}.cls-19{fill:#acd29a;}</style></defs><title>img_back1</title><g id="Capa_2" data-name="Capa 2"><g id="Objects"><path class="cls-1" d="M293.89,62.7a57.29,57.29,0,0,0,.37-6.45c0-1.15,0-2.29-.11-3.42L283.5,49.38a46.58,46.58,0,0,0-3.77-12.76l7.06-8.69a57.43,57.43,0,0,0-5.59-8.13l-10.65,3.48A47.14,47.14,0,0,0,260,15.17L260.61,4a57.63,57.63,0,0,0-9.3-3.3l-6.58,9.08a47.52,47.52,0,0,0-7.88-.66,48.36,48.36,0,0,0-5.41.31L225.35,0a56,56,0,0,0-9.46,2.8V14a47.68,47.68,0,0,0-11,7.54l-10.44-4a57.05,57.05,0,0,0-6,7.82l6.59,9.06a46.77,46.77,0,0,0-4.44,12.54l-10.82,2.88a57,57,0,0,0-.36,6.44c0,1.15,0,2.29.1,3.42l10.65,3.45A47.18,47.18,0,0,0,194,75.88l-7.06,8.69a57.5,57.5,0,0,0,5.6,8.13l10.65-3.47a47.34,47.34,0,0,0,10.54,8.1l-.61,11.19a57.36,57.36,0,0,0,9.3,3.3l6.58-9.08a47.61,47.61,0,0,0,7.88.66,48.54,48.54,0,0,0,5.42-.31l6.09,9.41a56.93,56.93,0,0,0,9.46-2.79l0-11.21a47.16,47.16,0,0,0,11-7.54l10.45,4a57.24,57.24,0,0,0,6-7.82l-6.6-9a47,47,0,0,0,4.45-12.55Zm-57,16.07a22.52,22.52,0,1,1,22.52-22.52A22.51,22.51,0,0,1,236.85,78.77Z"/><path class="cls-2" d="M267.56,81.93a.81.81,0,0,1-.54-.2.85.85,0,0,1-.11-1.18,38.1,38.1,0,0,0,6.72-36.69.84.84,0,0,1,1.59-.55,39.83,39.83,0,0,1-7,38.32A.85.85,0,0,1,267.56,81.93Z"/><path class="cls-2" d="M264.3,28.79a.87.87,0,0,1-.58-.23,37.85,37.85,0,0,0-13.09-8.07.84.84,0,0,1,.58-1.58,39.59,39.59,0,0,1,13.67,8.42.84.84,0,0,1,0,1.19A.8.8,0,0,1,264.3,28.79Z"/><path class="cls-2" d="M228.12,19.4a.84.84,0,0,1-.21-1.65,39.88,39.88,0,0,1,9.75-1.21.84.84,0,1,1,0,1.68,37.91,37.91,0,0,0-9.33,1.16A.75.75,0,0,1,228.12,19.4Z"/><path class="cls-1" d="M112.93,205.26a38.88,38.88,0,0,0,.25-4.47c0-.79,0-1.58-.07-2.37L105.74,196a32.51,32.51,0,0,0-2.62-8.84l4.89-6a39,39,0,0,0-3.87-5.63L96.76,178a33,33,0,0,0-7.3-5.61l.42-7.75a38.44,38.44,0,0,0-6.44-2.28l-4.56,6.28a32.71,32.71,0,0,0-5.46-.45,33.14,33.14,0,0,0-3.75.21l-4.21-6.52a39.33,39.33,0,0,0-6.56,1.94v7.76a32.83,32.83,0,0,0-7.59,5.22L44.08,174a40,40,0,0,0-4.16,5.42l4.56,6.27a32.55,32.55,0,0,0-3.08,8.69l-7.49,2a41.09,41.09,0,0,0-.25,4.46c0,.8,0,1.59.07,2.38l7.38,2.38a32.85,32.85,0,0,0,2.61,8.84l-4.89,6A39.63,39.63,0,0,0,42.71,226l7.37-2.41a32.58,32.58,0,0,0,7.31,5.62L57,237a39.35,39.35,0,0,0,6.44,2.28L68,233a32.8,32.8,0,0,0,5.46.46,33.14,33.14,0,0,0,3.75-.21l4.22,6.52a39.89,39.89,0,0,0,6.55-1.94v-7.76a32.93,32.93,0,0,0,7.59-5.22l7.24,2.79a39.84,39.84,0,0,0,4.17-5.42l-4.57-6.27a32.33,32.33,0,0,0,3.08-8.69ZM73.42,216.39A15.6,15.6,0,1,1,89,200.79,15.59,15.59,0,0,1,73.42,216.39Z"/><path class="cls-2" d="M94.69,218.84a.81.81,0,0,1-.53-.2.83.83,0,0,1-.11-1.18,26.17,26.17,0,0,0,4.6-25.16.84.84,0,1,1,1.59-.55,27.77,27.77,0,0,1-4.9,26.78A.86.86,0,0,1,94.69,218.84Z"/><path class="cls-2" d="M92.44,182a.85.85,0,0,1-.58-.23,26,26,0,0,0-9-5.53.84.84,0,0,1-.5-1.08.83.83,0,0,1,1.07-.5A27.37,27.37,0,0,1,93,180.58a.84.84,0,0,1,0,1.19A.87.87,0,0,1,92.44,182Z"/><path class="cls-2" d="M67.37,175.53a.84.84,0,0,1-.2-1.66A27.79,27.79,0,0,1,74,173a.84.84,0,1,1,0,1.68,26.46,26.46,0,0,0-6.4.79A.76.76,0,0,1,67.37,175.53Z"/><path class="cls-1" d="M328.27,105.57q0-.64,0-1.29l5.52-4.44a29.18,29.18,0,0,0-2-6.35L324.62,93a23.67,23.67,0,0,0-6.18-6.55l0-7.11a29.55,29.55,0,0,0-6.33-2.45l-4.88,5.25a24,24,0,0,0-2.56-.13,23.56,23.56,0,0,0-6.21.82l-5.59-4.43a29.76,29.76,0,0,0-5.92,3.43l1.06,7a23.88,23.88,0,0,0-5,7.27l-7,1.62a29.55,29.55,0,0,0-1,6.7l6.13,3.55a23.6,23.6,0,0,0,2.62,8.66l-3.07,6.42a30,30,0,0,0,4.51,4.91l6.57-2.58a23.48,23.48,0,0,0,8.67,3.44l3.1,6.38,1.11,0a29.48,29.48,0,0,0,5.43-.5l2.09-6.75a23.58,23.58,0,0,0,8.15-4.73l6.91,1.55a30.05,30.05,0,0,0,3.68-5.44l-4-5.88A23.7,23.7,0,0,0,328.27,105.57ZM304.39,116a10,10,0,1,1,9.95-10A10,10,0,0,1,304.39,116Z"/><g class="cls-3"><path class="cls-1" d="M420.23,48.26h-8.55a6,6,0,0,1-6-6V33.73a6,6,0,0,1,6-6h8.55a6,6,0,0,1,6,6v8.55A6,6,0,0,1,420.23,48.26Zm-8.55-18.17a3.64,3.64,0,0,0-3.63,3.64v8.55a3.64,3.64,0,0,0,3.63,3.63h8.55a3.64,3.64,0,0,0,3.63-3.63V33.73a3.64,3.64,0,0,0-3.63-3.64Z"/></g><g class="cls-3"><path class="cls-1" d="M380,48.26h-8.55a6,6,0,0,1-6-6V33.73a6,6,0,0,1,6-6H380a6,6,0,0,1,6,6v8.55A6,6,0,0,1,380,48.26Zm-8.55-18.17a3.64,3.64,0,0,0-3.63,3.64v8.55a3.64,3.64,0,0,0,3.63,3.63H380a3.64,3.64,0,0,0,3.63-3.63V33.73A3.64,3.64,0,0,0,380,30.09Z"/></g><path class="cls-4" d="M376.26,43.29h-.05a1,1,0,0,1-.75-.39l-6.15-8a1,1,0,0,1,1.61-1.22l5.42,7.06,14.14-15.16a1,1,0,0,1,1.43,0,1,1,0,0,1,0,1.42L377,43A1,1,0,0,1,376.26,43.29Z"/><path class="cls-5" d="M448.49,269.07c-35-1.71-154.07,1.19-190.29,2.32S180,269.9,158.11,266s-148,.33-142.32,10.69S72,281.37,129.3,285.54s186.1-.52,215.16,0,55.7-1,93.14-3.13S468.78,270.06,448.49,269.07Z"/><rect class="cls-6" x="17.55" y="52.35" width="73.17" height="119.93"/><rect class="cls-2" x="21.38" y="54.79" width="66.93" height="112.92"/><path class="cls-7" d="M41.4,100.07c2.52-5.42,6.78-7.15,13.78-7.15,8.34,0,12.67,3,13.9,7.41C54.15,100.54,41.4,100.07,41.4,100.07Z"/><path class="cls-8" d="M52.27,66.56c-3.53,1-3.37,3-4.55,4.81s-3.73,3.07-4,4.3.79,3.78-.51,5.21S41.43,83,41.94,84.46s1.64,3.68,1.74,4S45.22,90.9,47,91.21a37.62,37.62,0,0,1,6.64,1.53c1.64.72,6.9-.91,9.82-.81s4.91-2.05,4.7-3.48,2.16-4.3,2.15-6.75c0-2.64-3.07-4.6-3.89-6.34s.11-4.81-3-6.62c-1.94-1.15-3.27-1-4.81-1.56S54.52,65.93,52.27,66.56Z"/><path class="cls-9" d="M56.57,97.24c-.8,1.18-1.39,1.23-2.25,0-.69-1-2-3.19-2-4.31V81.7a2.06,2.06,0,0,1,2-2h2.25a2.06,2.06,0,0,1,2,2V92.93C58.61,94.05,57.28,96.19,56.57,97.24Z"/><path class="cls-10" d="M56.57,79.65H54.32a2.06,2.06,0,0,0-2,2v10c2.53.8,4.83-.8,6.34-2.6V81.7A2.06,2.06,0,0,0,56.57,79.65Z"/><ellipse class="cls-9" cx="55.44" cy="79.77" rx="6.8" ry="9.27"/><path class="cls-8" d="M58.61,72.39C54.32,79.65,48,78.94,48,78.94s.15-9.61,5.19-10.12,8,1.51,9,4.84a8.23,8.23,0,0,1,0,5.53,8.79,8.79,0,0,1-2.45-3.32A23.8,23.8,0,0,1,58.61,72.39Z"/><path class="cls-9" d="M49.34,79.63c.63,1.33.43,2.76-.47,3.19s-2.13-.32-2.76-1.66-.43-2.77.46-3.19S48.7,78.29,49.34,79.63Z"/><path class="cls-9" d="M61.24,79.63c-.64,1.33-.43,2.76.46,3.19s2.14-.32,2.77-1.66S64.9,78.39,64,78,61.88,78.29,61.24,79.63Z"/><path class="cls-2" d="M58,84.79a3.89,3.89,0,0,1-2.56,1.49,3.86,3.86,0,0,1-2.55-1.49Z"/><path class="cls-6" d="M63.54,114.77H46.36a2,2,0,0,1,0-4H63.54a2,2,0,0,1,0,4Z"/><path class="cls-6" d="M66.68,120.91H43.22a2,2,0,0,1,0-4H66.68a2,2,0,0,1,0,4Z"/><path class="cls-6" d="M83.49,143H26.42a1.16,1.16,0,0,1,0-2.32H83.49a1.16,1.16,0,0,1,0,2.32Z"/><path class="cls-6" d="M83.49,148.35H26.42a1.16,1.16,0,1,1,0-2.31H83.49a1.16,1.16,0,0,1,0,2.31Z"/><path class="cls-6" d="M83.49,153.74H26.42a1.16,1.16,0,0,1,0-2.32H83.49a1.16,1.16,0,0,1,0,2.32Z"/><path class="cls-6" d="M75.5,101.4H34.4a2.07,2.07,0,0,1-2.07-2.06V61.45a2.07,2.07,0,0,1,2.07-2.07H75.5a2.07,2.07,0,0,1,2.07,2.07V99.34A2.07,2.07,0,0,1,75.5,101.4ZM34.4,61.07a.39.39,0,0,0-.39.38V99.34a.4.4,0,0,0,.39.38H75.5a.4.4,0,0,0,.39-.38V61.45a.39.39,0,0,0-.39-.38Z"/><polygon class="cls-6" points="40.33 126.11 41.52 128.53 44.18 128.91 42.26 130.79 42.71 133.44 40.33 132.19 37.95 133.44 38.41 130.79 36.48 128.91 39.14 128.53 40.33 126.11"/><polygon class="cls-6" points="50.08 126.11 51.27 128.53 53.93 128.91 52 130.79 52.46 133.44 50.08 132.19 47.7 133.44 48.15 130.79 46.23 128.91 48.89 128.53 50.08 126.11"/><polygon class="cls-6" points="59.83 126.11 61.02 128.53 63.68 128.91 61.75 130.79 62.2 133.44 59.83 132.19 57.45 133.44 57.9 130.79 55.97 128.91 58.63 128.53 59.83 126.11"/><polygon class="cls-6" points="69.57 126.11 70.76 128.53 73.42 128.91 71.5 130.79 71.95 133.44 69.57 132.19 67.19 133.44 67.65 130.79 65.72 128.91 68.38 128.53 69.57 126.11"/><rect class="cls-6" x="180.67" y="52.35" width="73.17" height="119.93"/><rect class="cls-2" x="184.5" y="54.79" width="66.93" height="112.92"/><path class="cls-11" d="M207.7,79.16c0,5.37,3.24,14,10.87,13.76s9.31-8.54,9.61-10.87S207.7,79.16,207.7,79.16Z"/><path class="cls-12" d="M204.52,100.07c2.52-5.42,6.79-7.15,13.79-7.15,8.34,0,12.66,3,13.89,7.41C217.27,100.54,204.52,100.07,204.52,100.07Z"/><path class="cls-9" d="M219.69,97.24c-.8,1.18-1.38,1.23-2.25,0-.69-1-2-3.19-2-4.31V81.7a2.06,2.06,0,0,1,2-2h2.25a2.06,2.06,0,0,1,2.05,2V92.93C221.74,94.05,220.41,96.19,219.69,97.24Z"/><path class="cls-10" d="M219.69,79.65h-2.25a2.06,2.06,0,0,0-2,2v10c2.52.8,4.83-.8,6.34-2.6V81.7A2.06,2.06,0,0,0,219.69,79.65Z"/><path class="cls-9" d="M225.37,79.77c0,5.12-3.05,9.26-6.8,9.26s-6.8-4.14-6.8-9.26,3-9.27,6.8-9.27S225.37,74.65,225.37,79.77Z"/><path class="cls-11" d="M222.31,72.73c-.81,2.85-2.58,2.81-5.05,3.75s-3.65,1.88-4.46,3.7c-1,2.32.47,9.1.47,9.1s-6.25-4.68-5.53-12S212.8,67,216.88,67s5.64,2.48,5.64,2.48A6.12,6.12,0,0,1,226.75,72c2.76,3.27,1.91,11.23,0,14.08s-3.19,3.74-3.15,3.61,1.79-6.67.85-10.72A25.75,25.75,0,0,0,222.31,72.73Z"/><path class="cls-2" d="M221.12,84.79a2.94,2.94,0,0,1-5.11,0Z"/><path class="cls-11" d="M125.58,73.1c0,5.37,3.24,14,10.87,13.76s9.31-8.54,9.61-10.87S125.58,73.1,125.58,73.1Z"/><path class="cls-12" d="M122.4,94c2.52-5.42,6.79-7.16,13.79-7.16,8.33,0,12.66,3,13.89,7.42C135.15,94.48,122.4,94,122.4,94Z"/><path class="cls-9" d="M137.57,91.19c-.8,1.18-1.38,1.22-2.25,0-.69-1-2-3.2-2-4.32V75.64a2,2,0,0,1,2-2h2.25a2.05,2.05,0,0,1,2.05,2V86.87C139.62,88,138.29,90.13,137.57,91.19Z"/><path class="cls-10" d="M137.57,73.6h-2.25a2,2,0,0,0-2,2v10c2.52.8,4.83-.79,6.34-2.6V75.64A2.05,2.05,0,0,0,137.57,73.6Z"/><path class="cls-9" d="M143.25,73.71c0,5.12-3.05,9.27-6.8,9.27s-6.8-4.15-6.8-9.27,3-9.26,6.8-9.26S143.25,68.6,143.25,73.71Z"/><path class="cls-11" d="M140.18,66.67c-.8,2.85-2.57,2.82-5,3.75s-3.65,1.88-4.46,3.7c-1,2.33.47,9.1.47,9.1s-6.26-4.67-5.53-12S130.68,61,134.76,61s5.64,2.49,5.64,2.49a6.13,6.13,0,0,1,4.23,2.44c2.76,3.28,1.91,11.23,0,14.08s-3.19,3.74-3.15,3.62,1.79-6.68.85-10.72A25.43,25.43,0,0,0,140.18,66.67Z"/><path class="cls-2" d="M139,78.74a2.95,2.95,0,0,1-5.11,0Z"/><path class="cls-6" d="M226.66,114.77H209.49a2,2,0,1,1,0-4h17.17a2,2,0,1,1,0,4Z"/><path class="cls-6" d="M229.81,120.91H206.35a2,2,0,0,1,0-4h23.46a2,2,0,0,1,0,4Z"/><path class="cls-6" d="M246.61,143H189.54a1.16,1.16,0,1,1,0-2.32h57.07a1.16,1.16,0,0,1,0,2.32Z"/><path class="cls-6" d="M246.61,148.35H189.54a1.16,1.16,0,1,1,0-2.31h57.07a1.16,1.16,0,1,1,0,2.31Z"/><path class="cls-6" d="M246.61,153.74H189.54a1.16,1.16,0,1,1,0-2.32h57.07a1.16,1.16,0,0,1,0,2.32Z"/><path class="cls-6" d="M238.63,101.4H197.52a2.07,2.07,0,0,1-2.07-2.06V61.45a2.07,2.07,0,0,1,2.07-2.07h41.11a2.07,2.07,0,0,1,2.07,2.07V99.34A2.07,2.07,0,0,1,238.63,101.4ZM197.52,61.07a.38.38,0,0,0-.38.38V99.34a.39.39,0,0,0,.38.38h41.11a.39.39,0,0,0,.38-.38V61.45a.38.38,0,0,0-.38-.38Z"/><polygon class="cls-6" points="203.46 126.11 204.65 128.53 207.31 128.91 205.38 130.79 205.84 133.44 203.46 132.19 201.07 133.44 201.53 130.79 199.6 128.91 202.26 128.53 203.46 126.11"/><polygon class="cls-6" points="213.2 126.11 214.39 128.53 217.05 128.91 215.13 130.79 215.58 133.44 213.2 132.19 210.82 133.44 211.28 130.79 209.35 128.91 212.01 128.53 213.2 126.11"/><polygon class="cls-6" points="222.95 126.11 224.14 128.53 226.8 128.91 224.88 130.79 225.33 133.44 222.95 132.19 220.57 133.44 221.02 130.79 219.1 128.91 221.76 128.53 222.95 126.11"/><polygon class="cls-6" points="232.7 126.11 233.89 128.53 236.55 128.91 234.62 130.79 235.08 133.44 232.7 132.19 230.32 133.44 230.77 130.79 228.85 128.91 231.51 128.53 232.7 126.11"/><polygon class="cls-13" points="188.9 171.08 73.42 171.08 81.59 52.79 193.06 52.79 188.9 171.08"/><rect class="cls-6" x="85.55" y="30.41" width="99.94" height="163.81"/><rect class="cls-2" x="90.79" y="33.75" width="91.42" height="154.23"/><path class="cls-6" d="M158,115.67H115.31a2.73,2.73,0,0,1,0-5.46H158a2.73,2.73,0,0,1,0,5.46Z"/><path class="cls-6" d="M152.66,124.05h-32a2.73,2.73,0,1,1,0-5.46h32a2.73,2.73,0,0,1,0,5.46Z"/><path class="cls-6" d="M175.61,154.19H97.67a1.59,1.59,0,1,1,0-3.17h77.94a1.59,1.59,0,1,1,0,3.17Z"/><path class="cls-6" d="M175.61,161.54H97.67a1.58,1.58,0,1,1,0-3.16h77.94a1.58,1.58,0,1,1,0,3.16Z"/><path class="cls-6" d="M175.61,168.9H97.67a1.59,1.59,0,1,1,0-3.17h77.94a1.59,1.59,0,1,1,0,3.17Z"/><path class="cls-6" d="M164.71,97.1H108.57a2.51,2.51,0,0,1-2.52-2.51V42.84a2.52,2.52,0,0,1,2.52-2.51h56.14a2.52,2.52,0,0,1,2.52,2.51V94.59A2.51,2.51,0,0,1,164.71,97.1ZM108.57,42a.84.84,0,0,0-.84.83V94.59a.84.84,0,0,0,.84.83h56.14a.84.84,0,0,0,.84-.83V42.84a.84.84,0,0,0-.84-.83Z"/><polygon class="cls-6" points="109.91 131.16 111.53 134.46 115.17 134.99 112.54 137.55 113.16 141.17 109.91 139.46 106.66 141.17 107.28 137.55 104.65 134.99 108.28 134.46 109.91 131.16"/><polygon class="cls-6" points="123.22 131.16 124.85 134.46 128.48 134.99 125.85 137.55 126.47 141.17 123.22 139.46 119.97 141.17 120.59 137.55 117.96 134.99 121.6 134.46 123.22 131.16"/><polygon class="cls-6" points="136.53 131.16 138.16 134.46 141.79 134.99 139.16 137.55 139.79 141.17 136.53 139.46 133.28 141.17 133.91 137.55 131.28 134.99 134.91 134.46 136.53 131.16"/><polygon class="cls-6" points="149.85 131.16 151.47 134.46 155.11 134.99 152.48 137.55 153.1 141.17 149.85 139.46 146.6 141.17 147.22 137.55 144.59 134.99 148.22 134.46 149.85 131.16"/><polygon class="cls-6" points="163.37 131.16 165 134.46 168.63 134.99 166 137.55 166.62 141.17 163.37 139.46 160.12 141.17 160.74 137.55 158.11 134.99 161.75 134.46 163.37 131.16"/><rect class="cls-14" x="216.36" y="184.07" width="131.03" height="4.88" rx="2.44"/><path class="cls-9" d="M379,118.63c1.74,6.13-2.51,12.44-7.18,13.76s-8-2.83-9.75-9,.64-12.17,5.32-13.49S377.28,112.5,379,118.63Z"/><path class="cls-9" d="M352.81,237.34s12,18.61,13.6,19.41,5.66,1,4.14,4.05-2.12,15-3.54,15.58-13.55,2-11.73,0,2.94-1,3.86-4.66,2.21-10.52.49-11.93-12.24-14.16-12.24-14.16Z"/><path class="cls-9" d="M292.5,245.33s-14.56,24-17.26,26.16-11.6,5.39-4.31,5.93,10.79-2.42,15.37-3.77,10.25-2.16,8.09-5.67-1.26-11.16,3.39-16S292.5,245.33,292.5,245.33Z"/><path class="cls-15" d="M366.83,189.66s-36.06-.94-50.35,10.79c-8.36,12.68-28.59,50.08-30.16,54.2,1.08,1.08,7.15,3,9.84,2.76,8-9.49,18.48-17.69,22.66-25.13,5.15-9.17,6.74-13.76,15.1-14.57s27.25-3.5,32.91-3.5S366.83,189.66,366.83,189.66Z"/><polygon class="cls-14" points="398.27 277.49 396.38 277.49 382.83 220.95 386.99 220.95 398.27 277.49"/><polygon class="cls-14" points="341.66 277.49 343.55 277.49 359.1 218.95 354.94 218.95 341.66 277.49"/><path class="cls-1" d="M387.37,187.19l-21,3.62s-27.86.26-40.59,2.63c-11.59,2.16-13.29,15.32,0,33.44,7.55,10.3,13.93,18.51,27,27.77,3.32-2.43,4.59-3.36,5.51-9.22-.95-1.3-3.39-9.41-4.15-11-7.22-15.1-16.86-20.59-17-22.07,1.62-2.63,42.87,13.71,51.07,4.1C396.07,207.29,387.37,187.19,387.37,187.19Z"/><path class="cls-4" d="M388.24,139.74a21.9,21.9,0,0,0-16.4,4.08c-4.6,4.68-9.8,12.41-9.48,25.15.41,16.18-2.5,17.22.53,21.67,12.66,5.23,34.3,27.68,29.2,3.61-3.69-17.43,8.1-30.42-1.41-49.75C389.91,142.92,388.94,141.4,388.24,139.74Z"/><path class="cls-12" d="M362.36,175.06c-.25,8.44-1.44,10.92-.53,13.57,5.16.52,14.6,2.59,17,5.89,2.69,3.78,5.39,4.31,4.13,1.53s-4.58-6.75.54-20.32S391,153,386,143.54Z"/><path class="cls-9" d="M388.24,139.74A65.73,65.73,0,0,1,384,122.65l-8.9,2.63s5.05,11.33.2,15.37c-1,.86-2.23,1.91-3.47,3.17A21.9,21.9,0,0,1,388.24,139.74Z"/><path class="cls-10" d="M384.27,124.79c-.52-.47-1.18-1.05-1.88-1.66l-7.26,2.14v0a30,30,0,0,1,2.27,8.87,25.81,25.81,0,0,0,7.24-7.2C384.48,126.16,384.36,125.42,384.27,124.79Z"/><path class="cls-9" d="M382,142.27c-9.16,3.21-8.15,12.86-16.58,27.1-4.37,7.38-8.42,7.27-8.42,7.27a195.07,195.07,0,0,1-22.63-1.44c-7.76-.94-8.25,1.36-2.85,3.29,10.88,3.89,22.16,8.08,31.27,7.07s24.67-24.24,25.47-30.28C389.35,146.91,386.6,140.66,382,142.27Z"/><path class="cls-14" d="M377.26,223.3l-1.75,0a86.72,86.72,0,0,1-16.64-2.05c-4.77-1-7.4-1.5-10.46,0a2.35,2.35,0,0,1-2-4.25c4.48-2.14,8.23-1.38,13.43-.33a82.83,82.83,0,0,0,15.82,2c7.89.2,12.71-1,15.15-3.68,2.17-2.41,2.81-6.46,2-12.75-.28-2.15-.55-3.94-.8-5.52-.69-4.46-1.14-7.4-.58-12,.53-4.22,1.92-9.85,5.16-20.76a2.36,2.36,0,1,1,4.52,1.34c-6,20.33-5.73,22.31-4.44,30.65.25,1.6.53,3.43.81,5.64,1,7.75,0,13-3.17,16.5S385.73,223.3,377.26,223.3Z"/><path class="cls-12" d="M293.49,265.56c-9.66,4.73-14.86,7.43-18,7.18-.73-.06-1.34-.14-1.85-.22-3.44,2-8.94,4.45-2.75,4.9,7.28.54,10.79-2.42,15.37-3.77s10.25-2.16,8.09-5.67A7.52,7.52,0,0,1,293.49,265.56Z"/><path class="cls-12" d="M367.46,257.15c-.23,7.65-1.29,15.23-6,16.67a7.9,7.9,0,0,1-3.37.3c-.73.91-1.63.92-2.84,2.26-1.82,2,10.32.6,11.73,0s2-12.55,3.54-15.58C371.8,258.31,369.29,257.73,367.46,257.15Z"/><path class="cls-1" d="M330.24,184.74h-30.7a2.34,2.34,0,0,1-2.14-1.37L285,156.67a2.36,2.36,0,1,1,4.28-2L301,180h29.2a2.36,2.36,0,0,1,0,4.71Z"/><path class="cls-9" d="M336.66,175.47c-6.2-.09-12.36-3.79-15.41-3.25s-13,7.46-11.78,7.73,9.17-3.83,9.44-3.89,2,2.84,6.2,3.91,0-3.17,13.13.79C346.76,183.33,336.66,175.47,336.66,175.47Z"/><path class="cls-16" d="M387.33,132.39l.91,7.35s-8,.48-12,2.72-9.89,8.75-9.89,8.75l4.81-8.3.7-5.3Z"/><path class="cls-16" d="M383.91,141.39c-6-1.12-8.72,4.22-12.59,12.94S360.86,173.64,359.55,175s-22.12,0-22.12,0-.63,6,0,6.74,4.23.63,4.23.63,1.43,1.15,2.78,2.06,12.77,2.62,18.07,2.35,10.16-.72,10.88-1.53,15.2-23.11,16.1-31.11S387,142,383.91,141.39Z"/><path class="cls-17" d="M366.33,104.7c-11.28.54-9.51,17.51-9.51,17.51s2.93.9,9.07-.11a33.14,33.14,0,0,1-.27-6.47,42.94,42.94,0,0,0,1.61,6.07c1.3.59,2.77.06,5.26-.54a11.1,11.1,0,0,0,7.38,8.45c2.74.86,5.64,1.89,8.88.27s1.45-18.16-.26-21.49c-2.58-5-6.87-9.46-14.29-7.1A54.85,54.85,0,0,0,366.33,104.7Z"/><path class="cls-17" d="M385.94,124.85l4.61,6.74s-5.11,12.76,9.75,18.55c11.64,4.53,10.27,12.51,5,20.53s3.15,15,3.15,15,1.28-8.89,12.59-10.57c15.41-2.29,19.78-23,8.26-33.34-9.53-8.57-12.43-1.47-18.88-9.16s-18.63-2.49-18.63-2.49l-4.46-6.51Z"/><path class="cls-17" d="M434.62,162.65a.35.35,0,0,1-.2-.05.4.4,0,0,1-.16-.55c3.87-7.09.71-15.67-.88-18-.17-.24-.33-.49-.5-.76-1.56-2.44-3.51-5.48-13.89-7.35-2.5-.45-4.52-1.93-6.67-3.5-4.42-3.25-9.44-6.94-20.34-1.92a.41.41,0,0,1-.35-.75c11.34-5.22,16.57-1.38,21.18,2,2.06,1.52,4,2.95,6.33,3.37,10.73,1.93,12.78,5.13,14.43,7.71l.49.74c1.66,2.43,5,11.43.92,18.85A.41.41,0,0,1,434.62,162.65Z"/><path class="cls-17" d="M383.48,131.75a16.08,16.08,0,0,1-2.4-.19c-3.94-.59-9.24-2.83-9.65-15.42a.41.41,0,1,1,.82,0c.17,5.19,1.2,9,3.06,11.41a8.58,8.58,0,0,0,5.89,3.23c3.65.54,6.07-.13,7.2-2a.41.41,0,0,1,.56-.14.41.41,0,0,1,.14.56C388.07,130.89,386.18,131.75,383.48,131.75Z"/><polygon class="cls-14" points="230.11 277.49 233.14 277.49 244.92 187.39 238.26 187.39 230.11 277.49"/><polygon class="cls-14" points="332.92 277.49 329.89 277.49 318.1 187.39 324.77 187.39 332.92 277.49"/><path class="cls-18" d="M451.73,201.44c5.24,4.79,3,9.57-.91,18.46s-4.56,41.71-4.56,41.71l3.19-.46s-.45-33.73,3.88-42.84,6.15-13.68,10-10.72S451.73,201.44,451.73,201.44Z"/><path class="cls-19" d="M448.85,195.24c.64-2.83,4.42-5.9,9.48-8.51-.76,4.19-3.17,11-.67,12.43,3.36,1.89.33-7.66,1.62-12.91A62.72,62.72,0,0,1,475,181.1l0,.06c-3,7.52-6.84,10.48-5.24,11.62,1.2.86,5.11-7.83,10.27-12.28,3.87-.21,7.15.31,9.09,1.85,3,2.37,5,4.48,2,11.7a13.62,13.62,0,0,1-6.55,2.38c-6.84.68-10,.91-5.24,3.19,2.34,1.11,6.27-.07,9.46-.78-1,1.9-2.31,4-3.85,6.51a24.49,24.49,0,0,1-3.2,4.08,10.23,10.23,0,0,1-5.15,0c-3.19-1.37-11.39-5.7-13.44-3.88s15.19,2.92,14,7.45c-8.34,4.81-17.88,2.52-19.57-1.89C455.3,205.18,446.94,203.78,448.85,195.24Z"/><path class="cls-18" d="M466.09,227.65c-9.12-6.84-18.46-.46-23.25,6.84s-1.36,23.7-1.36,23.7,1.82,0,1.82-.68-5-19.38,6.84-27.81c7.41-5.27,12.76-2.73,13.44-.23s-3,7.07-3,7.07Z"/><path class="cls-19" d="M445.12,213.6c9.12,0,12.08,14.13,9.58,22.33s-5.93,23.47-5.93,23.47l-2.28-2.27s8.66-21.43,6.61-31S446,215,445.12,215,445.12,213.6,445.12,213.6Z"/><path class="cls-18" d="M452.77,236a6.49,6.49,0,0,1,2.4-2c-.13.68-.29,1.33-.47,2-1.15,3.74-2.48,8.94-3.59,13.5-.1-.58-.26-1.48-.5-2.87-.05-.33-.1-.68-.13-1.06A88.42,88.42,0,0,0,452.77,236Z"/><path class="cls-19" d="M455.26,236.06c17.32-7.29,8.2-17.3,23.47-10.69a11.51,11.51,0,0,1,3.7,3.26,11.54,11.54,0,0,1-4.84.39c-4.56-.69-3,3,4.56,3.87a16.53,16.53,0,0,1,3.52.75c3.58,6.88,5.2,15.93-2.38,19.08a17.49,17.49,0,0,1-5.4,1.11c-2.34-1.86.57-12.62-3-11.14s1.09,9.23.46,11.19a50.29,50.29,0,0,1-10.82-1.51,5.42,5.42,0,0,1-2.86-3.3c-1.14-4.78,6.39-7.75,6.61-11.85.21-3.77-2.75,8.3-10.61,10.08C450.52,244,447.16,239.47,455.26,236.06Z"/><path class="cls-19" d="M442.92,223.17c1.82-3.88-3-4.79-2.74-1.83.21,2.63.23,9-2.46,10.75A42.24,42.24,0,0,1,422,226.86a2,2,0,0,1,.2-1.19c2.05-4.1,15.27-7.52,11.17-8.88-3.27-1.09-9,5.34-13.61,8.57-2.77-2.1-4.63-4.61-4.63-7.4,0-3.79,4.61-8.07,10.56-10.12,2.67.27,5.16,1.73,9.05,3.93,5.73,3.25,4.41-2-1-5.12a16.32,16.32,0,0,1,12.8,7s-.33,2,1.84,5.21c5.9,8.62-.91,13.66-9,13.33C439.75,229.94,441.66,225.84,442.92,223.17Z"/><path class="cls-18" d="M465.54,227.26c4.46,3.45,9.41,7.47,15.49,10.21s4.86,11.65,4.86,11.65.91-7.7-4.15-10.33-8.41-5.78-12.26-6.39a54.58,54.58,0,0,1-6-1.21s1.22-2.43.51-3.34S465.54,227.26,465.54,227.26Z"/><path class="cls-18" d="M487.51,186.82c-16.31,4.36-28.26,14.79-30.49,17.32s-2.23,3.24-2.23,3.24l1.72,3.25.81-.41s-1.31-2.74,2.13-6.28c5.94-6.11,13.17-10.94,18.13-13.07S487.51,186.82,487.51,186.82Z"/><path class="cls-1" d="M445.61,254.76h0a11.14,11.14,0,0,1,11.14,11.14v11.2a0,0,0,0,1,0,0H434.47a0,0,0,0,1,0,0v-11.2A11.14,11.14,0,0,1,445.61,254.76Z" transform="translate(891.22 531.85) rotate(-180)"/><rect class="cls-2" x="434.47" y="257.31" width="22.28" height="1.57"/><rect class="cls-2" x="434.47" y="260.17" width="22.28" height="0.92"/><rect class="cls-1" x="34.11" y="249.16" width="9.38" height="8.44" rx="4.22" transform="translate(77.6 506.77) rotate(-180)"/><rect class="cls-1" x="17.05" y="249.16" width="9.38" height="8.44" rx="4.22" transform="translate(43.49 506.77) rotate(-180)"/><rect class="cls-1" y="249.16" width="9.38" height="8.44" rx="4.22" transform="translate(9.38 506.77) rotate(-180)"/><rect class="cls-1" x="478.47" y="93.41" width="9.38" height="8.44" rx="4.22" transform="translate(580.79 -385.53) rotate(90)"/><rect class="cls-1" x="478.47" y="110.46" width="9.38" height="8.44" rx="4.22" transform="translate(597.84 -368.47) rotate(90)"/><rect class="cls-1" x="478.47" y="127.52" width="9.38" height="8.44" rx="4.22" transform="translate(614.89 -351.42) rotate(90)"/></g></g></svg>