<svg xmlns="http://www.w3.org/2000/svg" xmlns:xlink="http://www.w3.org/1999/xlink" viewBox="0 0 1400 500"><defs><style>.cls-1{fill:none;}.cls-2{clip-path:url(#clip-path);}.cls-3{fill:#02093b;}.cls-4{fill:#819fda;}.cls-5{fill:#fff;}.cls-6{opacity:0.8;}.cls-7{fill:#d67068;}.cls-8{fill:#d0e0fd;}.cls-10,.cls-9{fill:#a1b9e8;}.cls-10{opacity:0.2;}.cls-11{fill:#415b96;}.cls-12{fill:#da975d;}.cls-13{fill:#748fc5;}.cls-14{fill:#b84b43;}.cls-15{fill:#cc8346;}.cls-16{fill:#ede3dc;}.cls-17{fill:#373e5f;}.cls-18{fill:#88b373;}.cls-19{fill:#acd29a;}</style><clipPath id="clip-path"><rect class="cls-1" x="-16.2" y="-130.67" width="1453.54" height="788.15"/></clipPath></defs><title>img_back</title><g id="Objects"><g class="cls-2"><rect class="cls-3" x="-16.76" y="-128.78" width="1453.54" height="788.15"/></g><path class="cls-4" d="M902.72,92.94a59.42,59.42,0,0,0,.36-6.44c0-1.15,0-2.29-.11-3.43l-10.65-3.44a46.48,46.48,0,0,0-3.77-12.76l7.06-8.69A56.31,56.31,0,0,0,890,50.05l-10.65,3.47a47.34,47.34,0,0,0-10.54-8.1l.6-11.19a56.69,56.69,0,0,0-9.3-3.3L853.56,40a47.73,47.73,0,0,0-7.89-.66,48.36,48.36,0,0,0-5.41.31l-6.09-9.41A56.93,56.93,0,0,0,824.71,33V44.25a47.1,47.1,0,0,0-11,7.54l-10.45-4a57.24,57.24,0,0,0-6,7.82l6.59,9a47,47,0,0,0-4.44,12.54l-10.82,2.88a59.75,59.75,0,0,0-.36,6.45c0,1.15,0,2.29.1,3.42L799,93.37a47.28,47.28,0,0,0,3.77,12.76l-7.06,8.69a58.34,58.34,0,0,0,5.6,8.13L812,119.47a47.08,47.08,0,0,0,10.54,8.11l-.6,11.19a56.88,56.88,0,0,0,9.29,3.29l6.58-9.07a47.61,47.61,0,0,0,7.88.66,48.41,48.41,0,0,0,5.42-.31l6.09,9.41a57,57,0,0,0,9.46-2.8l0-11.2a47.47,47.47,0,0,0,11-7.54l10.45,4a57.85,57.85,0,0,0,6-7.82l-6.6-9.06a46.45,46.45,0,0,0,4.45-12.54ZM845.67,109A22.52,22.52,0,1,1,868.19,86.5,22.51,22.51,0,0,1,845.67,109Z"/><path class="cls-5" d="M876.38,112.18a.86.86,0,0,1-.54-.2.84.84,0,0,1-.1-1.18,38.13,38.13,0,0,0,6.71-36.69.84.84,0,0,1,1.59-.55,39.81,39.81,0,0,1-7,38.31A.86.86,0,0,1,876.38,112.18Z"/><path class="cls-5" d="M873.12,59a.85.85,0,0,1-.57-.23,37.84,37.84,0,0,0-13.1-8.07.84.84,0,0,1,.58-1.58,39.44,39.44,0,0,1,13.67,8.42.84.84,0,0,1-.58,1.46Z"/><path class="cls-5" d="M836.94,49.65a.82.82,0,0,1-.81-.63.84.84,0,0,1,.61-1,39.73,39.73,0,0,1,9.74-1.2.84.84,0,1,1,0,1.68,37.91,37.91,0,0,0-9.33,1.16Z"/><path class="cls-4" d="M721.75,235.5A38.57,38.57,0,0,0,722,231c0-.8,0-1.59-.08-2.37l-7.37-2.39a32.51,32.51,0,0,0-2.62-8.84l4.9-6a40,40,0,0,0-3.88-5.64l-7.38,2.41a32.48,32.48,0,0,0-7.3-5.61l.42-7.75a39.38,39.38,0,0,0-6.44-2.29l-4.56,6.29a32.62,32.62,0,0,0-5.46-.46,33.4,33.4,0,0,0-3.75.22l-4.21-6.52a39.33,39.33,0,0,0-6.56,1.94v7.76a32.83,32.83,0,0,0-7.59,5.22l-7.23-2.79a39.23,39.23,0,0,0-4.17,5.42l4.57,6.27a31.92,31.92,0,0,0-3.08,8.68l-7.5,2a41,41,0,0,0-.25,4.46c0,.8,0,1.59.08,2.37l7.37,2.39a32.85,32.85,0,0,0,2.61,8.84l-4.89,6a39.63,39.63,0,0,0,3.88,5.63l7.38-2.41a32.48,32.48,0,0,0,7.3,5.61l-.42,7.76a40.31,40.31,0,0,0,6.44,2.28l4.56-6.29a32.59,32.59,0,0,0,5.45.46,33.13,33.13,0,0,0,3.75-.22l4.22,6.52a39.87,39.87,0,0,0,6.55-1.93V260.3a32.83,32.83,0,0,0,7.59-5.22l7.23,2.8a40.46,40.46,0,0,0,4.17-5.42l-4.57-6.27a32.11,32.11,0,0,0,3.08-8.69Zm-39.51,11.14a15.6,15.6,0,1,1,15.6-15.6A15.6,15.6,0,0,1,682.24,246.64Z"/><path class="cls-5" d="M703.51,249.09a.81.81,0,0,1-.53-.2.83.83,0,0,1-.11-1.18,26.11,26.11,0,0,0,4.6-25.17.84.84,0,1,1,1.59-.54,27.77,27.77,0,0,1-4.9,26.78A.83.83,0,0,1,703.51,249.09Z"/><path class="cls-5" d="M701.26,212.28a.85.85,0,0,1-.58-.23,25.8,25.8,0,0,0-9-5.53.84.84,0,0,1-.5-1.08.85.85,0,0,1,1.08-.51,27.72,27.72,0,0,1,9.55,5.89.84.84,0,0,1-.57,1.46Z"/><path class="cls-5" d="M676.2,205.78a.85.85,0,0,1-.82-.64.84.84,0,0,1,.61-1,27.87,27.87,0,0,1,6.82-.84.84.84,0,1,1,0,1.68,26.48,26.48,0,0,0-6.41.79Z"/><path class="cls-4" d="M937.09,135.82c0-.43,0-.87,0-1.29l5.52-4.44a29.53,29.53,0,0,0-2-6.35l-7.14-.54a23.7,23.7,0,0,0-6.18-6.56l0-7.11a29.53,29.53,0,0,0-6.33-2.44L916,112.34a24,24,0,0,0-2.56-.14,23.56,23.56,0,0,0-6.21.83l-5.59-4.43a30,30,0,0,0-5.92,3.43l1.06,7a23.88,23.88,0,0,0-5,7.27l-7,1.61a29.72,29.72,0,0,0-1,6.71l6.12,3.54a23.67,23.67,0,0,0,2.62,8.66l-3.06,6.43a29.49,29.49,0,0,0,4.5,4.9l6.58-2.57a23.53,23.53,0,0,0,8.66,3.44l3.1,6.38,1.11,0a29.4,29.4,0,0,0,5.43-.5l2.09-6.75a23.74,23.74,0,0,0,8.16-4.74l6.9,1.55a29.63,29.63,0,0,0,3.68-5.43l-4-5.88A23.74,23.74,0,0,0,937.09,135.82Zm-23.88,10.41a9.95,9.95,0,1,1,9.95-9.95A9.95,9.95,0,0,1,913.21,146.23Z"/><g class="cls-6"><path class="cls-4" d="M1032.09,150.12h-8.55a6,6,0,0,1-6-6v-8.55a6,6,0,0,1,6-6h8.55a6,6,0,0,1,6,6v8.55A6,6,0,0,1,1032.09,150.12ZM1023.54,132a3.63,3.63,0,0,0-3.63,3.63v8.55a3.64,3.64,0,0,0,3.63,3.63h8.55a3.63,3.63,0,0,0,3.63-3.63v-8.55a3.62,3.62,0,0,0-3.63-3.63Z"/></g><g class="cls-6"><path class="cls-4" d="M991.86,150.12h-8.55a6,6,0,0,1-6-6v-8.55a6,6,0,0,1,6-6h8.55a6,6,0,0,1,6,6v8.55A6,6,0,0,1,991.86,150.12ZM983.31,132a3.63,3.63,0,0,0-3.63,3.63v8.55a3.64,3.64,0,0,0,3.63,3.63h8.55a3.64,3.64,0,0,0,3.63-3.63v-8.55a3.63,3.63,0,0,0-3.63-3.63Z"/></g><path class="cls-7" d="M988.12,145.15h0a1,1,0,0,1-.75-.4l-6.15-8a1,1,0,0,1,1.61-1.23l5.42,7.07,14.15-15.16a1,1,0,0,1,1.47,1.37l-15,16A1,1,0,0,1,988.12,145.15Z"/><path class="cls-8" d="M1060.36,370.93c-35-1.71-154.08,1.19-190.3,2.32S791.81,371.76,770,367.9s-148.06.33-142.33,10.7,56.24,4.63,113.51,8.8,186.1-.52,215.16,0,55.7-1,93.15-3.13S1080.64,371.92,1060.36,370.93Z"/><rect class="cls-9" x="629.41" y="154.21" width="73.17" height="119.93"/><rect class="cls-5" x="633.24" y="156.65" width="66.93" height="112.92"/><path class="cls-9" d="M675.4,235.29H658.23a2,2,0,1,1,0-4H675.4a2,2,0,1,1,0,4Z"/><path class="cls-9" d="M678.54,241.43H655.08a2,2,0,0,1,0-4h23.46a2,2,0,0,1,0,4Z"/><path class="cls-9" d="M695.35,250.22H638.28a1.16,1.16,0,1,1,0-2.32h57.07a1.16,1.16,0,0,1,0,2.32Z"/><path class="cls-9" d="M695.35,255.6H638.28a1.16,1.16,0,1,1,0-2.32h57.07a1.16,1.16,0,0,1,0,2.32Z"/><path class="cls-9" d="M687.37,225.91H646.26c-1.14,0-2.07-1.43-2.07-3.18v-58.3c0-1.76.93-3.19,2.07-3.19h41.11c1.14,0,2.06,1.43,2.06,3.19v58.3C689.43,224.48,688.51,225.91,687.37,225.91Zm-41.11-62.08c-.21,0-.39.28-.39.6v58.3c0,.32.18.59.39.59h41.11c.2,0,.38-.27.38-.59v-58.3c0-.32-.18-.6-.38-.6Z"/><rect class="cls-9" x="792.53" y="154.21" width="73.17" height="119.93"/><rect class="cls-5" x="796.37" y="156.65" width="66.93" height="112.92"/><path class="cls-9" d="M838.52,216.63H821.35a2,2,0,1,1,0-4h17.17a2,2,0,1,1,0,4Z"/><path class="cls-9" d="M841.67,222.77H818.21a2,2,0,0,1,0-4h23.46a2,2,0,0,1,0,4Z"/><path class="cls-9" d="M858.47,244.83H801.4a1.16,1.16,0,1,1,0-2.32h57.07a1.16,1.16,0,0,1,0,2.32Z"/><path class="cls-9" d="M858.47,250.22H801.4a1.16,1.16,0,1,1,0-2.32h57.07a1.16,1.16,0,0,1,0,2.32Z"/><path class="cls-9" d="M858.47,255.6H801.4a1.16,1.16,0,1,1,0-2.32h57.07a1.16,1.16,0,0,1,0,2.32Z"/><path class="cls-9" d="M850.49,203.27H809.38a2.07,2.07,0,0,1-2.06-2.07V163.31a2.07,2.07,0,0,1,2.06-2.07h41.11a2.07,2.07,0,0,1,2.07,2.07V201.2A2.07,2.07,0,0,1,850.49,203.27Zm-41.11-40.34a.39.39,0,0,0-.38.38V201.2a.39.39,0,0,0,.38.38h41.11a.39.39,0,0,0,.39-.38V163.31a.39.39,0,0,0-.39-.38Z"/><polygon class="cls-9" points="815.32 227.98 816.51 230.39 819.17 230.78 817.24 232.65 817.7 235.3 815.32 234.05 812.94 235.3 813.39 232.65 811.47 230.78 814.13 230.39 815.32 227.98"/><polygon class="cls-9" points="825.06 227.98 826.25 230.39 828.91 230.78 826.99 232.65 827.44 235.3 825.06 234.05 822.68 235.3 823.14 232.65 821.21 230.78 823.87 230.39 825.06 227.98"/><polygon class="cls-9" points="834.81 227.98 836 230.39 838.66 230.78 836.74 232.65 837.19 235.3 834.81 234.05 832.43 235.3 832.89 232.65 830.96 230.78 833.62 230.39 834.81 227.98"/><polygon class="cls-9" points="844.56 227.98 845.75 230.39 848.41 230.78 846.48 232.65 846.94 235.3 844.56 234.05 842.18 235.3 842.63 232.65 840.71 230.78 843.37 230.39 844.56 227.98"/><polygon class="cls-10" points="800.76 272.94 685.28 272.94 693.45 154.66 804.92 154.66 800.76 272.94"/><rect class="cls-9" x="697.41" y="132.27" width="99.94" height="163.81"/><rect class="cls-5" x="702.65" y="135.61" width="91.42" height="154.23"/><path class="cls-9" d="M769.83,217.53H727.17a2.73,2.73,0,1,1,0-5.45h42.66a2.73,2.73,0,1,1,0,5.45Z"/><path class="cls-9" d="M764.52,225.91h-32a2.73,2.73,0,1,1,0-5.45h32a2.73,2.73,0,1,1,0,5.45Z"/><path class="cls-9" d="M787.48,256.05h-78a1.59,1.59,0,0,1,0-3.17h78a1.59,1.59,0,0,1,0,3.17Z"/><path class="cls-9" d="M787.48,263.4h-78a1.58,1.58,0,1,1,0-3.16h78a1.58,1.58,0,0,1,0,3.16Z"/><path class="cls-9" d="M787.48,270.76h-78a1.59,1.59,0,0,1,0-3.17h78a1.59,1.59,0,0,1,0,3.17Z"/><path class="cls-9" d="M776.57,199H720.43a2.52,2.52,0,0,1-2.52-2.52V144.71a2.52,2.52,0,0,1,2.52-2.52h56.14a2.52,2.52,0,0,1,2.52,2.52v51.74A2.52,2.52,0,0,1,776.57,199Zm-56.14-55.1a.84.84,0,0,0-.83.84v51.74a.83.83,0,0,0,.83.83h56.14a.84.84,0,0,0,.84-.83V144.71a.85.85,0,0,0-.84-.84Z"/><polygon class="cls-9" points="721.77 233.03 723.39 236.32 727.03 236.85 724.4 239.41 725.02 243.03 721.77 241.32 718.52 243.03 719.14 239.41 716.51 236.85 720.14 236.32 721.77 233.03"/><polygon class="cls-9" points="735.08 233.03 736.71 236.32 740.34 236.85 737.71 239.41 738.33 243.03 735.08 241.32 731.83 243.03 732.45 239.41 729.82 236.85 733.46 236.32 735.08 233.03"/><polygon class="cls-9" points="748.4 233.03 750.02 236.32 753.66 236.85 751.03 239.41 751.65 243.03 748.4 241.32 745.15 243.03 745.77 239.41 743.14 236.85 746.77 236.32 748.4 233.03"/><polygon class="cls-9" points="761.71 233.03 763.34 236.32 766.97 236.85 764.34 239.41 764.96 243.03 761.71 241.32 758.46 243.03 759.08 239.41 756.45 236.85 760.08 236.32 761.71 233.03"/><polygon class="cls-9" points="775.24 233.03 776.86 236.32 780.5 236.85 777.87 239.41 778.49 243.03 775.24 241.32 771.98 243.03 772.61 239.41 769.98 236.85 773.61 236.32 775.24 233.03"/><rect class="cls-11" x="828.22" y="285.93" width="131.03" height="4.88" rx="2.44"/><path class="cls-12" d="M990.88,220.49c1.74,6.13-2.51,12.44-7.18,13.77s-8-2.84-9.75-9,.64-12.16,5.32-13.49S989.14,214.37,990.88,220.49Z"/><path class="cls-12" d="M964.67,339.2s12,18.61,13.6,19.42,5.66,1,4.15,4-2.13,15-3.54,15.58-13.56,2-11.74,0,2.94-1,3.86-4.65,2.21-10.52.49-11.94-12.23-14.16-12.23-14.16Z"/><path class="cls-12" d="M904.37,347.19s-14.57,24-17.27,26.16-11.59,5.4-4.31,5.94,10.79-2.43,15.37-3.78,10.25-2.16,8.09-5.66-1.26-11.16,3.39-16S904.37,347.19,904.37,347.19Z"/><path class="cls-13" d="M978.69,291.53s-36.05-.95-50.35,10.78C920,315,899.75,352.39,898.18,356.52c1.08,1.07,7.15,3,9.85,2.75,8-9.49,18.47-17.69,22.65-25.13,5.16-9.17,6.74-13.75,15.11-14.56s27.24-3.51,32.9-3.51S978.69,291.53,978.69,291.53Z"/><polygon class="cls-11" points="1010.13 379.35 1008.24 379.35 994.69 322.81 998.85 322.81 1010.13 379.35"/><polygon class="cls-11" points="953.52 379.35 955.41 379.35 970.96 320.81 966.8 320.81 953.52 379.35"/><path class="cls-4" d="M999.23,289.06l-21,3.61s-27.86.26-40.59,2.63c-11.58,2.16-13.29,15.32,0,33.45,7.55,10.29,13.93,18.51,27,27.77,3.32-2.44,4.59-3.36,5.51-9.23-.95-1.3-3.39-9.4-4.15-11-7.22-15.1-16.86-20.58-17-22.07,1.61-2.63,42.86,13.71,51.06,4.1C1007.93,309.15,999.23,289.06,999.23,289.06Z"/><path class="cls-7" d="M1000.1,241.6a22,22,0,0,0-16.4,4.08c-4.6,4.69-9.79,12.41-9.48,25.15.41,16.18-2.5,17.22.53,21.67,12.66,5.23,34.3,27.68,29.21,3.61-3.7-17.43,8.09-30.42-1.42-49.75C1001.77,244.78,1000.8,243.26,1000.1,241.6Z"/><path class="cls-14" d="M974.22,276.92c-.25,8.44-1.44,10.92-.53,13.57,5.16.53,14.6,2.59,17,5.89,2.7,3.78,5.39,4.32,4.13,1.53s-4.58-6.74.54-20.32,7.56-22.75,2.52-32.19Z"/><path class="cls-12" d="M1000.1,241.6a65.73,65.73,0,0,1-4.23-17.09l-8.9,2.63s5,11.33.2,15.37c-1,.86-2.23,1.91-3.47,3.17A22,22,0,0,1,1000.1,241.6Z"/><path class="cls-15" d="M996.14,226.65,994.26,225,987,227.13l0,0a29.39,29.39,0,0,1,2.27,8.87,25.74,25.74,0,0,0,7.24-7.19C996.34,228,996.23,227.28,996.14,226.65Z"/><path class="cls-12" d="M993.84,244.13c-9.16,3.21-8.15,12.86-16.58,27.11-4.37,7.37-8.42,7.26-8.42,7.26a196.26,196.26,0,0,1-22.63-1.43c-7.75-.95-8.25,1.36-2.85,3.28,10.88,3.89,22.17,8.08,31.27,7.07s24.67-24.24,25.47-30.28C1001.21,248.78,998.46,242.52,993.84,244.13Z"/><path class="cls-11" d="M989.12,325.16c-.57,0-1.15,0-1.75,0a86.83,86.83,0,0,1-16.64-2.05c-4.77-1-7.4-1.5-10.46,0a2.35,2.35,0,0,1-2-4.25c4.48-2.14,8.23-1.38,13.43-.32a83,83,0,0,0,15.82,1.95c7.89.2,12.71-1,15.15-3.68,2.17-2.41,2.81-6.46,2-12.75-.27-2.15-.55-3.94-.8-5.52-.68-4.46-1.14-7.4-.58-12,.53-4.22,1.93-9.85,5.17-20.76a2.35,2.35,0,1,1,4.51,1.34c-6,20.33-5.73,22.31-4.44,30.65.25,1.61.53,3.43.82,5.64,1,7.75,0,13-3.18,16.51S997.59,325.16,989.12,325.16Z"/><path class="cls-14" d="M905.36,367.42c-9.67,4.73-14.87,7.44-18,7.18-.73-.06-1.34-.14-1.84-.22-3.45,2-8.95,4.45-2.76,4.91,7.28.54,10.79-2.43,15.37-3.78s10.25-2.16,8.09-5.66A7.43,7.43,0,0,1,905.36,367.42Z"/><path class="cls-14" d="M979.32,359c-.23,7.65-1.28,15.24-6,16.67a8,8,0,0,1-3.38.3c-.73.91-1.63.92-2.84,2.26-1.82,2,10.32.6,11.74,0s2-12.54,3.54-15.58C983.66,360.17,981.16,359.59,979.32,359Z"/><path class="cls-4" d="M942.1,286.6H911.4a2.36,2.36,0,0,1-2.14-1.36l-12.41-26.71a2.36,2.36,0,0,1,4.28-2l11.77,25.34h29.2a2.36,2.36,0,0,1,0,4.71Z"/><path class="cls-12" d="M948.52,277.33c-6.2-.09-12.35-3.78-15.41-3.25s-13,7.47-11.78,7.74,9.17-3.83,9.44-3.9,2,2.84,6.2,3.91,0-3.17,13.13.79C958.62,285.19,948.52,277.33,948.52,277.33Z"/><path class="cls-16" d="M999.19,234.26l.91,7.34s-8,.48-12,2.73-9.89,8.74-9.89,8.74l4.82-8.29.69-5.31Z"/><path class="cls-16" d="M995.77,243.25c-6-1.12-8.72,4.22-12.58,12.94s-10.47,19.32-11.78,20.68-22.12,0-22.12,0-.63,6,0,6.74,4.23.63,4.23.63,1.44,1.15,2.78,2.06,12.77,2.62,18.08,2.35,10.15-.72,10.87-1.53,15.2-23.1,16.1-31.11S998.82,243.82,995.77,243.25Z"/><path class="cls-17" d="M978.19,206.57c-11.28.54-9.51,17.5-9.51,17.5s2.93.9,9.07-.11a33.14,33.14,0,0,1-.27-6.47,41.74,41.74,0,0,0,1.62,6.07c1.29.59,2.76.07,5.25-.54a11.13,11.13,0,0,0,7.38,8.45c2.74.86,5.64,1.89,8.88.27s1.46-18.16-.26-21.49c-2.58-5-6.87-9.46-14.29-7.1A54.34,54.34,0,0,0,978.19,206.57Z"/><path class="cls-17" d="M997.8,226.71l4.61,6.74s-5.11,12.76,9.75,18.55c11.64,4.53,10.27,12.51,5,20.54s3.15,15,3.15,15,1.28-8.89,12.59-10.57c15.42-2.29,19.78-23,8.26-33.34-9.53-8.56-12.42-1.47-18.88-9.16s-18.62-2.49-18.62-2.49l-4.47-6.51Z"/><path class="cls-17" d="M1046.48,264.52a.39.39,0,0,1-.2-.06.4.4,0,0,1-.16-.55c3.88-7.09.71-15.67-.88-18-.17-.24-.33-.49-.5-.76-1.56-2.44-3.51-5.47-13.89-7.34-2.5-.45-4.52-1.94-6.67-3.51-4.42-3.25-9.44-6.94-20.34-1.92a.41.41,0,1,1-.35-.74c11.35-5.22,16.57-1.39,21.18,2,2.06,1.51,4,2.94,6.33,3.36,10.73,1.93,12.78,5.14,14.43,7.71l.49.74c1.67,2.44,5,11.43.92,18.85A.42.42,0,0,1,1046.48,264.52Z"/><path class="cls-17" d="M995.34,233.61a16.08,16.08,0,0,1-2.4-.19c-3.94-.59-9.23-2.83-9.65-15.42a.41.41,0,1,1,.82,0c.17,5.19,1.2,9,3.06,11.41a8.61,8.61,0,0,0,5.89,3.23c3.66.55,6.08-.13,7.2-2a.41.41,0,0,1,.56-.15.42.42,0,0,1,.14.57C999.93,232.75,998.05,233.61,995.34,233.61Z"/><polygon class="cls-11" points="841.97 379.35 845 379.35 856.78 289.26 850.12 289.26 841.97 379.35"/><polygon class="cls-11" points="944.78 379.35 941.75 379.35 929.96 289.26 936.63 289.26 944.78 379.35"/><path class="cls-18" d="M1063.59,303.3c5.25,4.79,3,9.57-.91,18.46s-4.56,41.71-4.56,41.71l3.2-.46s-.46-33.73,3.87-42.84,6.15-13.68,10-10.71S1063.59,303.3,1063.59,303.3Z"/><path class="cls-19" d="M1060.71,297.11c.64-2.84,4.42-5.91,9.48-8.51-.75,4.18-3.16,11-.67,12.42,3.36,1.9.33-7.65,1.63-12.9a62.14,62.14,0,0,1,15.71-5.16l0,.06c-3,7.52-6.84,10.48-5.24,11.62,1.2.86,5.11-7.83,10.27-12.28,3.88-.21,7.15.32,9.09,1.85,3,2.37,5,4.48,2,11.71a13.58,13.58,0,0,1-6.55,2.37c-6.83.68-10,.91-5.24,3.19,2.34,1.11,6.27-.06,9.46-.78-1,1.9-2.3,4.06-3.85,6.51a24.49,24.49,0,0,1-3.2,4.08,10.19,10.19,0,0,1-5.14,0c-3.19-1.37-11.4-5.7-13.45-3.88s15.19,2.92,14,7.45c-8.34,4.81-17.88,2.52-19.56-1.89C1067.16,307,1058.8,305.64,1060.71,297.11Z"/><path class="cls-18" d="M1078,329.51c-9.11-6.84-18.46-.45-23.24,6.84s-1.37,23.7-1.37,23.7,1.82,0,1.82-.68-5-19.37,6.84-27.81c7.41-5.27,12.76-2.73,13.45-.23s-3,7.07-3,7.07Z"/><path class="cls-19" d="M1057,315.46c9.12,0,12.08,14.13,9.58,22.33s-5.93,23.48-5.93,23.48l-2.28-2.28s8.66-21.43,6.61-31-7.06-11.17-8-11.17S1057,315.46,1057,315.46Z"/><path class="cls-18" d="M1064.63,337.86a6.52,6.52,0,0,1,2.4-2,18.54,18.54,0,0,1-.47,2c-1.15,3.74-2.48,8.95-3.59,13.5-.1-.58-.25-1.48-.49-2.87a10.5,10.5,0,0,1-.14-1.06A85.93,85.93,0,0,0,1064.63,337.86Z"/><path class="cls-19" d="M1067.12,337.92c17.32-7.29,8.2-17.3,23.47-10.69a11.51,11.51,0,0,1,3.7,3.26,11.38,11.38,0,0,1-4.84.39c-4.56-.68-3,3,4.56,3.87a17,17,0,0,1,3.52.75c3.58,6.88,5.2,15.93-2.38,19.08a17.14,17.14,0,0,1-5.4,1.11c-2.34-1.86.57-12.62-3-11.14s1.09,9.23.47,11.19a50.12,50.12,0,0,1-10.82-1.51,5.36,5.36,0,0,1-2.86-3.29c-1.14-4.79,6.38-7.75,6.6-11.86.21-3.77-2.75,8.3-10.61,10.08C1062.38,345.84,1059,341.33,1067.12,337.92Z"/><path class="cls-19" d="M1054.78,325c1.82-3.87-3-4.79-2.73-1.82.2,2.62.22,9-2.47,10.74a42.06,42.06,0,0,1-15.74-5.23,1.93,1.93,0,0,1,.2-1.18c2-4.11,15.27-7.52,11.17-8.89-3.27-1.09-9,5.34-13.61,8.58-2.77-2.11-4.62-4.61-4.62-7.41,0-3.79,4.6-8.07,10.55-10.12,2.67.27,5.16,1.73,9,3.93,5.74,3.26,4.41-2-1-5.12a16.32,16.32,0,0,1,12.8,7s-.32,2.05,1.84,5.21c5.9,8.62-.91,13.66-9,13.33C1051.61,331.8,1053.52,327.71,1054.78,325Z"/><path class="cls-18" d="M1077.4,329.13c4.46,3.44,9.41,7.47,15.49,10.2s4.86,11.65,4.86,11.65.91-7.7-4.15-10.33-8.41-5.78-12.26-6.38a55.1,55.1,0,0,1-6-1.22s1.21-2.43.5-3.34S1077.4,329.13,1077.4,329.13Z"/><path class="cls-18" d="M1099.37,288.68c-16.31,4.36-28.26,14.79-30.49,17.32s-2.23,3.25-2.23,3.25l1.73,3.24.81-.41s-1.32-2.73,2.12-6.28c5.94-6.11,13.17-10.94,18.14-13.07S1099.37,288.68,1099.37,288.68Z"/><path class="cls-4" d="M1057.47,356.62h0a11.14,11.14,0,0,1,11.14,11.14V379a0,0,0,0,1,0,0h-22.28a0,0,0,0,1,0,0v-11.2A11.14,11.14,0,0,1,1057.47,356.62Z" transform="translate(2114.94 735.57) rotate(180)"/><rect class="cls-5" x="1046.33" y="359.18" width="22.28" height="1.57"/><rect class="cls-5" x="1046.33" y="362.04" width="22.28" height="0.92"/></g></svg>