<svg id="Capa_1" data-name="Capa 1" xmlns="http://www.w3.org/2000/svg" viewBox="0 0 350 50"><defs><style>.cls-1{fill:#333;}.cls-2{fill:#febd2c;}.cls-3{fill:#fff;}.cls-3,.cls-4,.cls-5,.cls-8{fill-rule:evenodd;}.cls-4,.cls-7{fill:#8db5d6;}.cls-5{fill:#3e9b27;}.cls-6{fill:#a8d954;}.cls-8{fill:#98562f;}.cls-9{fill:#6b3d21;}</style></defs><path class="cls-1" d="M130.06,33.42h.54v3.84h-.51v-.77a3.67,3.67,0,0,1-2.42.83,3.78,3.78,0,0,1-3.89-3.92,3.88,3.88,0,0,1,4.06-3.94,3.81,3.81,0,0,1,2.8,1.06l-.36.38a3.23,3.23,0,0,0-2.42-.92,3.37,3.37,0,0,0-3.51,3.42,3.29,3.29,0,0,0,3.35,3.41,3.35,3.35,0,0,0,2.36-.93V33.42Z"/><path class="cls-1" d="M137.49,34.37a2.33,2.33,0,1,0-2.33,2.44,2.29,2.29,0,0,0,2.33-2.44Zm-5.22,0a2.89,2.89,0,1,1,2.89,2.94,2.82,2.82,0,0,1-2.89-2.94Z"/><path class="cls-1" d="M145,34.37a2.33,2.33,0,1,0-2.33,2.44A2.29,2.29,0,0,0,145,34.37Zm.56,0a2.81,2.81,0,0,1-2.86,2.94,2.59,2.59,0,0,1-2.37-1.41v1.36h-.53V29.05h.55V32.8a2.6,2.6,0,0,1,2.35-1.36,2.8,2.8,0,0,1,2.86,2.93Z"/><path class="cls-1" d="M147.24,31.49h.56v5.77h-.56V31.49Zm-.17-1.85a.46.46,0,0,1,.45-.46.45.45,0,1,1-.45.46Z"/><path class="cls-1" d="M150.05,34.33c0,.11,0,.23,0,.34l4.4-.86a2.14,2.14,0,0,0-2.15-1.88,2.24,2.24,0,0,0-2.27,2.4Zm4.3,1.67.32.37a2.74,2.74,0,0,1-2.18.94,2.85,2.85,0,0,1-3-2.94,2.77,2.77,0,0,1,2.82-2.93A2.69,2.69,0,0,1,155,34.13l-4.89.95a2.31,2.31,0,0,0,2.36,1.73,2.28,2.28,0,0,0,1.85-.81Z"/><path class="cls-1" d="M159.48,31.44V32h-.13a2,2,0,0,0-2,2.28v3h-.56V31.49h.54v1.26a2.19,2.19,0,0,1,2.2-1.31Z"/><path class="cls-1" d="M166.18,33.89v3.37h-.56V33.93a1.75,1.75,0,0,0-1.87-2,2.06,2.06,0,0,0-2.19,2.25v3.07H161V31.49h.53v1.25a2.38,2.38,0,0,1,2.29-1.3,2.2,2.2,0,0,1,2.35,2.45Z"/><path class="cls-1" d="M173.05,34.37a2.33,2.33,0,1,0-2.32,2.44,2.28,2.28,0,0,0,2.32-2.44Zm-5.21,0a2.89,2.89,0,1,1,2.89,2.94,2.82,2.82,0,0,1-2.89-2.94Z"/><path class="cls-1" d="M182.76,34.37a2.33,2.33,0,1,0-2.32,2.44,2.28,2.28,0,0,0,2.32-2.44Zm.56-5.32v8.21h-.54V35.9a2.57,2.57,0,0,1-2.37,1.41,2.94,2.94,0,0,1,0-5.87,2.57,2.57,0,0,1,2.35,1.39V29.05Z"/><path class="cls-1" d="M185.57,34.33c0,.11,0,.23,0,.34l4.41-.86a2.16,2.16,0,0,0-2.16-1.88,2.24,2.24,0,0,0-2.27,2.4Zm4.3,1.67.32.37a2.73,2.73,0,0,1-2.18.94,2.85,2.85,0,0,1-3-2.94,2.77,2.77,0,0,1,2.82-2.93,2.69,2.69,0,0,1,2.71,2.69l-4.88.95a2.48,2.48,0,0,0,4.2.92Z"/><path class="cls-1" d="M197.8,36.9a1.73,1.73,0,0,1-1.18.41A1.44,1.44,0,0,1,195,35.74V30.22h.56v1.27h1.84V32H195.6v3.72c0,.74.36,1.15,1.07,1.15a1.34,1.34,0,0,0,.9-.32l.23.39Z"/><path class="cls-1" d="M203.71,34.37a2.33,2.33,0,1,0-2.32,2.44,2.28,2.28,0,0,0,2.32-2.44Zm-5.21,0a2.89,2.89,0,1,1,2.89,2.94,2.82,2.82,0,0,1-2.89-2.94Z"/><path class="cls-1" d="M210.58,34.37a2.33,2.33,0,1,0-2.33,2.44,2.29,2.29,0,0,0,2.33-2.44Zm.55-5.32v8.21h-.54V35.9a2.56,2.56,0,0,1-2.37,1.41,2.94,2.94,0,0,1,0-5.87,2.59,2.59,0,0,1,2.36,1.39V29.05Z"/><path class="cls-1" d="M218.05,34.37a2.33,2.33,0,1,0-2.32,2.44,2.28,2.28,0,0,0,2.32-2.44Zm-5.21,0a2.89,2.89,0,1,1,2.89,2.94,2.82,2.82,0,0,1-2.89-2.94Z"/><path class="cls-1" d="M219.48,36.57l.26-.45a3.31,3.31,0,0,0,2.08.7c1.22,0,1.7-.43,1.7-1.08,0-1.69-3.83-.45-3.83-2.72,0-.87.73-1.58,2.19-1.58a3.52,3.52,0,0,1,2,.57l-.26.44a3,3,0,0,0-1.74-.52c-1.13,0-1.62.46-1.62,1.08,0,1.74,3.83.51,3.83,2.72,0,.94-.81,1.58-2.28,1.58a3.62,3.62,0,0,1-2.32-.74Z"/><path class="cls-1" d="M122.5,19.67c0-3.62,2.77-6.19,6.55-6.19a6.3,6.3,0,0,1,5.12,2.25L132,17.66a3.49,3.49,0,0,0-2.8-1.39,3.19,3.19,0,0,0-3.32,3.4,3.19,3.19,0,0,0,3.32,3.4,3.49,3.49,0,0,0,2.8-1.39l2.15,1.93a6.3,6.3,0,0,1-5.12,2.25c-3.78,0-6.55-2.57-6.55-6.19Z"/><polygon class="cls-1" points="146.99 13.72 146.99 25.62 143.62 25.62 143.62 20.98 139.03 20.98 139.03 25.62 135.66 25.62 135.66 13.72 139.03 13.72 139.03 18.19 143.62 18.19 143.62 13.72 146.99 13.72 146.99 13.72"/><path class="cls-1" d="M156.36,20.83,154.83,17l-1.53,3.81Zm1,2.48h-5l-.94,2.31h-3.43l5.25-11.9h3.32l5.27,11.9h-3.5l-.94-2.31Z"/><path class="cls-1" d="M162,19.67c0-3.62,2.77-6.19,6.55-6.19a6.3,6.3,0,0,1,5.12,2.25l-2.15,1.93a3.49,3.49,0,0,0-2.8-1.39,3.19,3.19,0,0,0-3.32,3.4,3.19,3.19,0,0,0,3.32,3.4,3.49,3.49,0,0,0,2.8-1.39l2.15,1.93a6.3,6.3,0,0,1-5.12,2.25c-3.78,0-6.55-2.57-6.55-6.19Z"/><path class="cls-1" d="M184.07,19.67a3.22,3.22,0,1,0-6.42,0,3.22,3.22,0,1,0,6.42,0Zm-9.82,0c0-3.57,2.8-6.19,6.61-6.19s6.61,2.62,6.61,6.19-2.8,6.19-6.61,6.19-6.61-2.62-6.61-6.19Z"/><path class="cls-2" d="M97.81,5.55h0l0-.08,0,.07Zm6,4.46a4.34,4.34,0,0,0,1.22-.34.94.94,0,0,1,.87.05,1.65,1.65,0,0,0-1.1-.49c-.59,0-1.24,0-1.36-.21l2.13-1.08L103.45,8a4.07,4.07,0,0,0,.91-.87,1,1,0,0,1,.8-.37,1.68,1.68,0,0,0-1.21.09c-.49.3-1,.54-1.22.45h0l1.51-1.84-1.94,1a4.23,4.23,0,0,0,.45-1.19.91.91,0,0,1,.55-.67,1.61,1.61,0,0,0-1,.6c-.32.5-.7.95-.92.95L102,3.8l-1.43,1.77a1.89,1.89,0,0,0,.06-1.39.88.88,0,0,1,.24-.84,1.66,1.66,0,0,0-.72,1c-.09.58-.19,1.08-.4,1.16l-.52-2.24-.54,2.15c-.2-.08-.29-.48-.35-1.06a1.65,1.65,0,0,0-.67-1,.89.89,0,0,1,.2.85,2.07,2.07,0,0,0,0,1.31L96.4,3.78,97,6.11c-.22,0-.61-.45-.92-1a1.68,1.68,0,0,0-1-.6.93.93,0,0,1,.56.68,4.18,4.18,0,0,0,.44,1.19l-1.93-1,1.5,1.85h0c-.2.09-.74-.15-1.22-.46a1.68,1.68,0,0,0-1.21-.09,1,1,0,0,1,.8.37,4.25,4.25,0,0,0,.91.88l-2.17-.06L94.87,9c-.12.18-.78.24-1.36.2a1.67,1.67,0,0,0-1.1.5.9.9,0,0,1,.87-.06A4.34,4.34,0,0,0,94.5,10l-2,1,2.45-.1c0,.22-.64.61-1.19.82a1.63,1.63,0,0,0-.79.91.91.91,0,0,1,.77-.41,3.26,3.26,0,0,0,1.1-.12l-1.16,1.78,2-1,0,.09a1.58,1.58,0,0,1-.56.9A1.67,1.67,0,0,0,94.63,15a.92.92,0,0,1,.6-.63,3.63,3.63,0,0,0,1.08-.48,2.33,2.33,0,0,0,.49-.5,4.11,4.11,0,0,0,4.79,0,2.51,2.51,0,0,0,.5.52,3.63,3.63,0,0,0,1.08.48.92.92,0,0,1,.6.63,1.62,1.62,0,0,0-.47-1.11,1.5,1.5,0,0,1-.55-.9l0-.07,1.93,1-1.15-1.76a3.56,3.56,0,0,0,1.06.1.93.93,0,0,1,.77.41,1.67,1.67,0,0,0-.79-.91c-.55-.21-1.15-.58-1.18-.79l2.44.09-1.94-1Z"/><path class="cls-3" d="M109.16,26.47c-.07,7.33-4.59,13.25-10.14,13.25S89,33.8,88.87,26.47Z"/><path class="cls-4" d="M89.05,26.47c.07-7,4.51-12.63,10-12.63s9.91,5.64,10,12.62Z"/><path class="cls-5" d="M86.18,26.57a2.48,2.48,0,0,1-1.41-2.21A7.86,7.86,0,0,1,85,21.92a19,19,0,0,0,.86,1.76,3.33,3.33,0,0,1,.4,2.61c0,.08,0,.17-.06.28Z"/><path class="cls-5" d="M86.58,25.84a2.42,2.42,0,0,1,1-2.11,6.11,6.11,0,0,0,.89-.87c-.07.4-.13.88-.24,1.36a1.9,1.9,0,0,1-1.64,1.62Z"/><path class="cls-5" d="M86.68,29.44a2.46,2.46,0,0,1-1.85-1.85,7.61,7.61,0,0,1-.34-2.42c.4.49.78,1.06,1.23,1.53a3.33,3.33,0,0,1,1,2.46v.28Z"/><path class="cls-5" d="M86.91,28.65a2.43,2.43,0,0,1,.51-2.28,5.64,5.64,0,0,0,.67-1.05c0,.41.07.9.07,1.38a1.92,1.92,0,0,1-1.25,1.95Z"/><path class="cls-5" d="M86.94,32.07A2.44,2.44,0,0,1,85,30.31a7.63,7.63,0,0,1-.44-2.41c.41.48.82,1,1.29,1.48a3.35,3.35,0,0,1,1.07,2.41c0,.09,0,.17,0,.28Z"/><path class="cls-5" d="M87.14,31.27a2.41,2.41,0,0,1,.41-2.3,6.45,6.45,0,0,0,.62-1.07c0,.4.11.89.13,1.37a1.92,1.92,0,0,1-1.16,2Z"/><path class="cls-5" d="M87.7,34.74a2.47,2.47,0,0,1-2.13-1.52,8.33,8.33,0,0,1-.73-2.34c.48.43.94.92,1.47,1.31a3.33,3.33,0,0,1,1.34,2.27c0,.09,0,.17,0,.28Z"/><path class="cls-5" d="M87.8,33.92a2.45,2.45,0,0,1,.13-2.34,5.6,5.6,0,0,0,.49-1.13c.09.4.22.87.3,1.35a1.91,1.91,0,0,1-.92,2.12Z"/><path class="cls-5" d="M89,36.42a2.45,2.45,0,0,1-.33-2.32A6.54,6.54,0,0,0,89,32.89c.16.37.38.81.55,1.27A1.9,1.9,0,0,1,89,36.42Z"/><path class="cls-5" d="M90.61,38.62a2.42,2.42,0,0,1-.72-2.22,5.76,5.76,0,0,0,0-1.24c.23.34.52.73.76,1.15a1.9,1.9,0,0,1-.08,2.31Z"/><path class="cls-5" d="M93,40.24a2.47,2.47,0,0,1-1.31-1.94,5.48,5.48,0,0,0-.29-1.21c.31.27.7.57,1,.9A1.9,1.9,0,0,1,93,40.24Z"/><path class="cls-5" d="M86.05,19.48c.21.66.41,1.32.65,2a3.06,3.06,0,0,1-.19,2.32,2,2,0,0,1-.88-1.32,4.23,4.23,0,0,1,.1-1.94c.1-.36.22-.7.32-1Z"/><path class="cls-5" d="M85.34,34.1c.62.3,1.23.62,1.86.91a3,3,0,0,1,1.52,1.75,2,2,0,0,1-1.55-.29A4.1,4.1,0,0,1,85.85,35c-.19-.32-.35-.65-.51-.94Z"/><path class="cls-5" d="M89,20.93c-.14.39-.27.85-.46,1.27a1.6,1.6,0,0,1-1.62,1A2,2,0,0,1,88,21.58a7.76,7.76,0,0,0,1-.65Z"/><path class="cls-5" d="M86.84,21.11a2.13,2.13,0,0,1-.3-2.08,6.26,6.26,0,0,1,1-1.79,3.61,3.61,0,0,0-.05.6A7.84,7.84,0,0,0,87.55,19,2.41,2.41,0,0,1,87,20.91l-.13.18,0,0Z"/><path class="cls-5" d="M87.39,20.76a1.76,1.76,0,0,1,1.38-1.12,5.61,5.61,0,0,0,.9-.25c-.61,1.19-1.27,1.73-2.28,1.37Z"/><path class="cls-5" d="M87.83,19.07a1.84,1.84,0,0,1-.07-1.63A4.42,4.42,0,0,1,89,15.85c-.09.65-.15,1.31-.27,2a2.2,2.2,0,0,1-.88,1.26Z"/><path class="cls-5" d="M90.62,18.09c-.63.68-1.27,1.37-2.26.77a1.48,1.48,0,0,1,1.44-.72,4.46,4.46,0,0,0,.82-.05Z"/><path class="cls-5" d="M89.32,17.62A1.84,1.84,0,0,1,89.16,16a4.5,4.5,0,0,1,1.13-1.65c-.06.66-.09,1.32-.17,2a2.18,2.18,0,0,1-.8,1.31Z"/><path class="cls-5" d="M92,16.48c-.59.72-1.19,1.44-2.21.91a1.48,1.48,0,0,1,1.4-.81,3.66,3.66,0,0,0,.81-.1Z"/><path class="cls-5" d="M90.5,16a1.87,1.87,0,0,1,.17-1.63A4.54,4.54,0,0,1,92.11,13c-.18.63-.35,1.27-.55,1.89A2.2,2.2,0,0,1,90.5,16Z"/><path class="cls-5" d="M93.42,15.17c-.66.66-1.32,1.32-2.29.69a1.49,1.49,0,0,1,1.47-.67,4.47,4.47,0,0,0,.82,0Z"/><path class="cls-5" d="M95.29,41.62a2.48,2.48,0,0,1-1.52-1.79,5.73,5.73,0,0,0-.42-1.16c.33.22.75.48,1.14.78a1.9,1.9,0,0,1,.8,2.17Z"/><path class="cls-5" d="M94.83,12.67c-.75,1.29-1.21,2.49-3,1.9a2.38,2.38,0,0,1,2-1.64,3.43,3.43,0,0,0,1-.26Z"/><path class="cls-5" d="M97,42.74a1.75,1.75,0,0,1-1.65.54,4.87,4.87,0,0,1-1.6-.56,3.26,3.26,0,0,0,.5,0,6.35,6.35,0,0,0,1-.22,2,2,0,0,1,1.6.16l.17.09,0,0Z"/><path class="cls-5" d="M93.08,41a1.9,1.9,0,0,1-1.64.11,4.58,4.58,0,0,1-1.61-1.18c.66.07,1.31.12,2,.22a2.23,2.23,0,0,1,1.29.85Z"/><path class="cls-5" d="M95.2,41.86a1.83,1.83,0,0,1-1.57.45,4.6,4.6,0,0,1-1.83-.81c.66-.07,1.31-.16,2-.2a2.2,2.2,0,0,1,1.43.56Z"/><path class="cls-5" d="M91.36,39.42a1.87,1.87,0,0,1-1.62.2,4.67,4.67,0,0,1-1.69-1.1c.67,0,1.33.06,2,.12a2.23,2.23,0,0,1,1.33.78Z"/><path class="cls-5" d="M89.71,38.2a1.86,1.86,0,0,1-1.63-.09,4.61,4.61,0,0,1-1.47-1.37c.65.15,1.3.28,1.93.46a2.2,2.2,0,0,1,1.17,1Z"/><path class="cls-5" d="M112.1,26.57a2.48,2.48,0,0,0,1.41-2.21,7.86,7.86,0,0,0-.2-2.44c-.28.57-.53,1.2-.87,1.76a3.33,3.33,0,0,0-.39,2.61c0,.08,0,.17,0,.28Z"/><path class="cls-5" d="M111.71,25.84a2.45,2.45,0,0,0-1-2.11,6,6,0,0,1-.88-.87c.07.4.13.88.24,1.36a1.89,1.89,0,0,0,1.64,1.62Z"/><path class="cls-5" d="M111.6,29.44a2.46,2.46,0,0,0,1.86-1.85,7.89,7.89,0,0,0,.33-2.42,19.16,19.16,0,0,1-1.23,1.53,3.28,3.28,0,0,0-1,2.46c0,.09,0,.17,0,.28Z"/><path class="cls-5" d="M111.37,28.65a2.43,2.43,0,0,0-.51-2.28,6.2,6.2,0,0,1-.67-1.05c0,.41-.07.9-.06,1.38a1.9,1.9,0,0,0,1.24,1.95Z"/><path class="cls-5" d="M111.34,32.07a2.46,2.46,0,0,0,1.94-1.76,7.92,7.92,0,0,0,.44-2.41c-.42.48-.83,1-1.3,1.48a3.3,3.3,0,0,0-1.06,2.41c0,.09,0,.17,0,.28Z"/><path class="cls-5" d="M111.15,31.27a2.43,2.43,0,0,0-.42-2.3,6.45,6.45,0,0,1-.62-1.07c0,.4-.1.89-.13,1.37a1.91,1.91,0,0,0,1.17,2Z"/><path class="cls-5" d="M110.58,34.74a2.46,2.46,0,0,0,2.13-1.52,7.73,7.73,0,0,0,.73-2.34A18.53,18.53,0,0,1,112,32.19a3.4,3.4,0,0,0-1.34,2.27c0,.09,0,.17,0,.28Z"/><path class="cls-5" d="M110.48,33.92a2.42,2.42,0,0,0-.13-2.34,6.23,6.23,0,0,1-.49-1.13c-.09.4-.21.87-.29,1.35a1.91,1.91,0,0,0,.91,2.12Z"/><path class="cls-5" d="M109.24,36.42a2.45,2.45,0,0,0,.33-2.32,6.54,6.54,0,0,1-.26-1.21c-.16.37-.38.81-.54,1.27a1.89,1.89,0,0,0,.47,2.26Z"/><path class="cls-5" d="M107.67,38.62a2.45,2.45,0,0,0,.73-2.22,5.78,5.78,0,0,1-.05-1.24c-.23.34-.51.73-.76,1.15a1.91,1.91,0,0,0,.08,2.31Z"/><path class="cls-5" d="M105.28,40.24a2.47,2.47,0,0,0,1.31-1.94,6.1,6.1,0,0,1,.29-1.21c-.31.27-.69.57-1,.9a1.92,1.92,0,0,0-.56,2.25Z"/><path class="cls-5" d="M112.24,19.48c-.22.66-.42,1.32-.65,2a3,3,0,0,0,.18,2.32,2,2,0,0,0,.88-1.32,4.1,4.1,0,0,0-.1-1.94c-.1-.36-.22-.7-.31-1Z"/><path class="cls-5" d="M113,34.1c-.62.3-1.23.62-1.86.91a3,3,0,0,0-1.53,1.75,2,2,0,0,0,1.55-.29A4.13,4.13,0,0,0,112.44,35c.18-.32.34-.65.51-.94Z"/><path class="cls-5" d="M109.24,20.93c.15.39.28.85.46,1.27a1.6,1.6,0,0,0,1.63,1,2.07,2.07,0,0,0-1.08-1.64,7.22,7.22,0,0,1-1-.65Z"/><path class="cls-5" d="M111.44,21.11a2.13,2.13,0,0,0,.3-2.08,6.47,6.47,0,0,0-1-1.79c0,.25,0,.43,0,.6a7.84,7.84,0,0,1-.07,1.19,2.45,2.45,0,0,0,.53,1.88l.13.18,0,0Z"/><path class="cls-5" d="M110.89,20.76a1.76,1.76,0,0,0-1.38-1.12,5.21,5.21,0,0,1-.89-.25c.61,1.19,1.26,1.73,2.27,1.37Z"/><path class="cls-5" d="M110.45,19.07a1.84,1.84,0,0,0,.07-1.63,4.4,4.4,0,0,0-1.21-1.59c.08.65.15,1.31.26,2a2.2,2.2,0,0,0,.88,1.26Z"/><path class="cls-5" d="M107.67,18.09c.63.68,1.26,1.37,2.25.77a1.46,1.46,0,0,0-1.44-.72,4.35,4.35,0,0,1-.81-.05Z"/><path class="cls-5" d="M109,17.62a1.84,1.84,0,0,0,.16-1.63A4.62,4.62,0,0,0,108,14.34c0,.66.08,1.32.16,2a2.19,2.19,0,0,0,.81,1.31Z"/><path class="cls-5" d="M106.24,16.48c.59.72,1.19,1.44,2.21.91a1.47,1.47,0,0,0-1.39-.81,3.68,3.68,0,0,1-.82-.1Z"/><path class="cls-5" d="M107.78,16a1.83,1.83,0,0,0-.17-1.63A4.54,4.54,0,0,0,106.17,13c.19.63.35,1.27.56,1.89a2.22,2.22,0,0,0,1,1.13Z"/><path class="cls-5" d="M104.86,15.17c.66.66,1.33,1.32,2.29.69a1.48,1.48,0,0,0-1.47-.67,4.47,4.47,0,0,1-.82,0Z"/><path class="cls-5" d="M103,41.62a2.47,2.47,0,0,0,1.51-1.79,5.75,5.75,0,0,1,.43-1.16c-.34.22-.76.48-1.14.78a1.9,1.9,0,0,0-.8,2.17Z"/><path class="cls-5" d="M103.69,12.85c.49,1.36,1,2.31,2.72,1.72a2.38,2.38,0,0,0-2-1.64,1.87,1.87,0,0,1-.71-.08Z"/><path class="cls-5" d="M101.3,42.74a1.75,1.75,0,0,0,1.65.54,4.79,4.79,0,0,0,1.6-.56,3.11,3.11,0,0,1-.49,0,6.21,6.21,0,0,1-1-.22,2,2,0,0,0-1.6.16l-.17.09,0,0Z"/><path class="cls-5" d="M105.21,41a1.87,1.87,0,0,0,1.63.11,4.62,4.62,0,0,0,1.62-1.18c-.66.07-1.32.12-2,.22a2.2,2.2,0,0,0-1.28.85Z"/><path class="cls-5" d="M103.08,41.86a1.83,1.83,0,0,0,1.57.45,4.48,4.48,0,0,0,1.83-.81c-.66-.07-1.31-.16-2-.2a2.2,2.2,0,0,0-1.43.56Z"/><path class="cls-5" d="M106.92,39.42a1.89,1.89,0,0,0,1.63.2,4.72,4.72,0,0,0,1.68-1.1c-.66,0-1.33.06-2,.12a2.23,2.23,0,0,0-1.33.78Z"/><path class="cls-5" d="M108.57,38.2a1.89,1.89,0,0,0,1.64-.09,4.58,4.58,0,0,0,1.46-1.37c-.64.15-1.29.28-1.92.46a2.19,2.19,0,0,0-1.18,1Z"/><path class="cls-6" d="M103,37.6s-.22-.35-5.5,1.15A7.11,7.11,0,0,0,103,37.6Z"/><path class="cls-6" d="M95.19,37.85a7.9,7.9,0,0,0,1.38.65,47.7,47.7,0,0,1,8.18-2.11h0a32.81,32.81,0,0,0-9.56,1.46Z"/><path class="cls-6" d="M93.63,36.69a10.11,10.11,0,0,0,1,.83,36.25,36.25,0,0,1,9.16-1.93s-1.74-.64-10.19,1.1Z"/><path class="cls-6" d="M92.57,35.54a10.1,10.1,0,0,0,.68.77,44.06,44.06,0,0,1,9.48-1.55s-1.58-.84-10.16.78Z"/><path class="cls-6" d="M101.52,34s-1.89-.84-9.77.33c.15.25.3.48.47.72a38.79,38.79,0,0,1,9.3-1Z"/><path class="cls-6" d="M100.28,33.14s-2.5-1-9.17,0c.09.2.19.39.28.57a39.81,39.81,0,0,1,8.89-.58Z"/><path class="cls-6" d="M99,32.07h0c-.17-.09-1.62-.68-8.36-.11.06.16.11.33.18.49A50.57,50.57,0,0,1,99,32.07Z"/><path class="cls-6" d="M97.62,31.17l-.32-.54s-5.14-.07-7,.15c0,.13.07.26.1.4.52,0,4.61-.18,7.24,0Z"/><polygon points="98.6 9.12 98.59 9.11 98.59 9.1 98.56 9.09 98.53 9.07 98.43 9.01 98.32 8.96 98.22 8.92 98.12 8.88 98.02 8.86 97.92 8.85 97.82 8.83 97.72 8.83 97.62 8.83 97.52 8.83 97.43 8.85 97.34 8.86 97.25 8.88 97.17 8.9 97.09 8.93 97 8.96 96.93 8.98 96.86 9.02 96.79 9.05 96.72 9.08 96.66 9.12 96.6 9.15 96.55 9.18 96.5 9.21 96.42 9.26 96.36 9.31 96.33 9.34 96.31 9.35 96.31 9.36 96.31 9.36 96.32 9.37 96.33 9.38 96.34 9.38 96.35 9.38 96.37 9.38 96.39 9.38 96.41 9.37 96.43 9.36 96.46 9.35 96.49 9.34 96.52 9.31 96.56 9.28 96.61 9.25 96.68 9.22 96.74 9.19 96.81 9.15 96.9 9.12 96.98 9.09 97.07 9.06 97.17 9.03 97.26 9.01 97.35 8.99 97.45 8.97 97.54 8.96 97.59 8.96 97.63 8.96 97.68 8.96 97.72 8.96 97.78 8.97 97.83 8.98 97.89 8.99 97.94 9.01 98.05 9.05 98.14 9.1 98.19 9.12 98.24 9.14 98.29 9.15 98.33 9.17 98.38 9.18 98.42 9.19 98.45 9.19 98.47 9.19 98.49 9.19 98.51 9.19 98.54 9.18 98.56 9.18 98.58 9.17 98.59 9.16 98.6 9.16 98.61 9.15 98.61 9.14 98.61 9.14 98.61 9.13 98.6 9.12 98.6 9.12"/><polygon points="98.31 9.42 98.23 9.38 98.14 9.35 98.06 9.32 97.97 9.3 97.89 9.29 97.81 9.28 97.73 9.28 97.65 9.28 97.58 9.28 97.5 9.29 97.42 9.3 97.35 9.32 97.28 9.34 97.22 9.36 97.15 9.38 97.09 9.4 97.03 9.42 96.97 9.45 96.87 9.5 96.79 9.55 96.67 9.63 96.63 9.66 96.63 9.67 96.63 9.67 96.64 9.68 96.66 9.68 96.69 9.67 96.72 9.67 96.77 9.65 96.79 9.63 96.82 9.61 96.87 9.59 96.91 9.56 96.97 9.54 97.02 9.52 97.09 9.49 97.16 9.47 97.23 9.45 97.3 9.43 97.37 9.41 97.45 9.4 97.52 9.39 97.6 9.38 97.67 9.38 97.74 9.38 97.79 9.39 97.85 9.39 97.9 9.41 97.95 9.42 98.05 9.46 98.14 9.49 98.19 9.51 98.23 9.52 98.27 9.53 98.32 9.54 98.36 9.54 98.4 9.54 98.42 9.54 98.44 9.53 98.47 9.53 98.48 9.52 98.39 9.46 98.31 9.42 98.31 9.42"/><path d="M98.25,9.86l-.07,0-.06,0-.06,0L98,10l-.06,0h-.09l0,0,0,0,0,0,0,0,0,0V9.58h0l.07,0,.06,0,.06.05.07,0,.06.06-.06,0Zm-.94.14h-.14l-.08,0-.08,0-.07,0-.06,0,0,0,0,0,0,0,.11-.07L97,9.68l.09,0,0,0,.06,0h0v.29l0,0v0h0v0l0,0h0Zm0-.46h.09v.06h0v.1h0v0h0v0h0v0h.21l0,0h0v0h0v0h0v-.1h0V9.57h.13v.29l0,0,0,0v0l0,0h0l0,0h-.29l0,0h0l0,0,0,0v0l0,0V9.56l0,0Zm.24,0h.07v0l0,0v.14l0,0h0l0,0h-.11l0,0h0V9.61l0,0h.08Zm.69.12-.07-.06-.08-.05-.07,0-.08,0-.08,0-.08,0h-.44l-.06,0-.07,0-.06,0-.07,0,0,0-.06,0,0,0,0,0,0,0,0,0-.07,0-.05,0,0,0h0l0,0,.06,0,.07,0,.08,0L97,10l.1,0h.11l0,0h.59l.07,0H98l.07,0,.07,0,.07,0,.08,0,.07,0,.07-.05-.07-.08-.08-.06Z"/><polygon points="101.93 9.26 101.87 9.22 101.79 9.16 101.74 9.13 101.69 9.1 101.63 9.07 101.57 9.04 101.5 9 101.44 8.97 101.36 8.94 101.28 8.91 101.21 8.88 101.12 8.86 101.03 8.83 100.95 8.81 100.86 8.8 100.77 8.79 100.67 8.78 100.58 8.78 100.48 8.79 100.38 8.8 100.28 8.81 100.17 8.84 100.07 8.88 99.96 8.91 99.86 8.96 99.76 9.02 99.73 9.04 99.71 9.06 99.7 9.07 99.69 9.08 99.69 9.09 99.68 9.09 99.68 9.1 99.69 9.11 99.69 9.11 99.7 9.12 99.71 9.13 99.73 9.13 99.75 9.14 99.78 9.14 99.8 9.14 99.83 9.14 99.85 9.14 99.87 9.14 99.91 9.13 99.96 9.12 100 9.11 100.05 9.09 100.1 9.07 100.15 9.05 100.24 9.01 100.35 8.97 100.41 8.95 100.46 8.94 100.52 8.92 100.57 8.92 100.61 8.92 100.66 8.92 100.7 8.92 100.75 8.92 100.84 8.93 100.94 8.94 101.03 8.96 101.13 8.99 101.22 9.02 101.31 9.05 101.39 9.08 101.47 9.11 101.55 9.14 101.62 9.17 101.67 9.21 101.73 9.24 101.77 9.26 101.8 9.29 101.83 9.3 101.86 9.31 101.88 9.32 101.9 9.33 101.92 9.33 101.94 9.33 101.95 9.33 101.96 9.33 101.97 9.32 101.98 9.31 101.98 9.31 101.98 9.3 101.97 9.29 101.93 9.26 101.93 9.26"/><polygon points="101.5 9.51 101.41 9.46 101.32 9.41 101.26 9.38 101.2 9.36 101.14 9.33 101.08 9.31 101.01 9.29 100.94 9.28 100.87 9.26 100.79 9.25 100.72 9.24 100.64 9.23 100.56 9.23 100.48 9.24 100.4 9.24 100.32 9.26 100.23 9.28 100.15 9.3 100.06 9.34 99.97 9.38 99.89 9.42 99.81 9.47 99.83 9.48 99.85 9.49 99.87 9.49 99.89 9.49 99.93 9.49 99.97 9.49 100.02 9.48 100.06 9.47 100.11 9.46 100.15 9.45 100.24 9.41 100.34 9.38 100.39 9.36 100.45 9.35 100.5 9.34 100.55 9.33 100.62 9.33 100.69 9.33 100.77 9.34 100.84 9.36 100.92 9.37 100.99 9.39 101.06 9.4 101.13 9.42 101.2 9.45 101.27 9.47 101.32 9.49 101.38 9.52 101.42 9.54 101.47 9.56 101.5 9.58 101.53 9.6 101.57 9.62 101.61 9.63 101.63 9.63 101.65 9.63 101.66 9.63 101.66 9.62 101.66 9.62 101.62 9.58 101.5 9.51 101.5 9.51"/><path d="M101.46,9.8l0,0-.06,0-.07,0-.08,0-.08,0-.05,0h0l0,0h0l0,0,0,0,0,0,0,0v0l0,0V9.56h0l0,0,0,0,.09.05.08,0,.1.07,0,0,0,0Zm-1,.14h-.06l-.06,0-.06,0-.06,0-.06,0-.07,0-.06,0,.06-.06.07-.05.06-.05.07,0,.06,0h0v.26l0,0,0,0,0,0,0,0v0Zm.08-.46h.13v0h0v0h0v0h0v0h0v.14h0v0h.27v0h0V9.61h0v0h0v0h0l0,0h0v0h0l.06,0h.1l0,0V9.8l0,0v0l0,0,0,0,0,0h0l0,0h-.25l0,0h0l0,0,0,0v0l0,0,0,0V9.5h.07Zm.23,0h0l0,0h0l0,0v.15l0,0h-.18V9.56h0l0,0h.08Zm.74.14,0,0,0,0-.05,0,0,0-.06,0,0,0-.07,0-.06,0H101l-.07,0-.08,0h-.36l-.08,0-.08,0-.07,0-.08,0-.08,0-.07.06-.08.07-.07.08.07,0,.08,0,.07,0,.07,0,.07,0,.08,0,.07,0,.07,0h.75l.1,0,.1,0,.07,0,.08,0,0,0,0,0,0,0-.12-.09Z"/><path class="cls-7" d="M96.28,39.26l-.12.94a12.33,12.33,0,0,1,1.76,0,4.85,4.85,0,0,0,2.12.08,8.33,8.33,0,0,1,2.22-.12l-.16-1a8.75,8.75,0,0,1-5.82,0"/><path class="cls-7" d="M99.68,42.57l-.05-.07.05.07Zm.75-.93a4.54,4.54,0,0,1-.81.83h0a.61.61,0,0,0-.52-.28.58.58,0,0,0-.48.24,4.12,4.12,0,0,1-.78-.79,6.71,6.71,0,0,0,2.58,0Zm-3.88,0h.8a3.08,3.08,0,0,0,1.17,1l0,.19h0a5.09,5.09,0,0,1-1.94-1.25ZM98.49,43v.12a1.73,1.73,0,0,0,1.22-.48l0-.1,0,.08h0A3.13,3.13,0,0,0,101,41.58l.64,0a5,5,0,0,1-1.86,1.32v.2a6.31,6.31,0,0,0,2.73-1.49l-.11-.72a7.39,7.39,0,0,0-1.88.15,5.21,5.21,0,0,1-2.23.08A16.31,16.31,0,0,0,96,40.94l-.11.64A5.66,5.66,0,0,0,98.49,43Z"/><path class="cls-7" d="M99.71,43.63l0,.14,0-.14Zm4.64,2.55.22-.74a8,8,0,0,1-4.84-2.08v.13l0,.13,0-.13v-.06a1.86,1.86,0,0,1-1.23.12h0a7.53,7.53,0,0,1-4.63,1.9l.25.86a8.63,8.63,0,0,0,4.49-2.44l.22.19a8.55,8.55,0,0,1-4.54,2.82l.2.71s2.06-.08,4.62-3.46l.19,0c2.58,3.41,4.65,3.49,4.65,3.49l.19-.65a8.62,8.62,0,0,1-4.6-3l.11-.15v0a8,8,0,0,0,4.71,2.36Z"/><polygon class="cls-8" points="99.48 21.96 98.81 22.03 98.81 22.04 98.81 22.04 98.84 28.56 99.56 28.65 99.48 21.96 99.48 21.96"/><path class="cls-5" d="M104,21a2.24,2.24,0,0,0-2-1.38,4.83,4.83,0,0,0-1.66,0,2.59,2.59,0,0,1,.61-.17h0l0,0v0h0l0,0a.63.63,0,0,0-.28-.15,1.69,1.69,0,0,1,.48-.07h.07a1.13,1.13,0,0,1,.32.05h0l0,0h0v0l-.1-.17h0a1.52,1.52,0,0,1,.52.12h0l0,0h0l0-.06-.17-.22a2.54,2.54,0,0,1,.72-.22h0l0,0v0h0a1.76,1.76,0,0,0-1.88.08,3.52,3.52,0,0,0-.92.69l-.07-.1a1.35,1.35,0,0,1,.24-.35h0v0l0,0h0a.55.55,0,0,0-.27.06,1.52,1.52,0,0,1,.28-.33l0,0,.23-.16h0l0,0,0,0h0l-.17-.06h0a1.31,1.31,0,0,1,.4-.22h0l0,0v0h-.06l-.23-.06a2.23,2.23,0,0,1,.33-.55h0v0l0,0h0a1.58,1.58,0,0,0-1.2,1.15,4.26,4.26,0,0,0-.15.54h0a4.77,4.77,0,0,0-.15-.54,1.58,1.58,0,0,0-1.2-1.15h0l0,0v0h0a2.23,2.23,0,0,1,.33.55l-.23.06h0l0,0,0,0h0a1.25,1.25,0,0,1,.41.22h0l-.17.05h0l0,0,0,0h0l.24.16,0,0a1.52,1.52,0,0,1,.28.33.53.53,0,0,0-.27-.06h-.05l0,0v0h0a2.08,2.08,0,0,1,.27.41l-.07.09a3.56,3.56,0,0,0-1-.74,1.76,1.76,0,0,0-1.88-.08h0v0l0,0h0a2.4,2.4,0,0,1,.71.22l-.16.22,0,.06h0l0,0h0a1.41,1.41,0,0,1,.51-.12h0l-.1.17v0h0l0,0h0a1.14,1.14,0,0,1,.33-.05h0a1.71,1.71,0,0,1,.49.07.63.63,0,0,0-.28.15l0,0h0v0l0,0h0a2.59,2.59,0,0,1,.61.17,4.83,4.83,0,0,0-1.66,0,2.25,2.25,0,0,0-2,1.38v0h0l0,0h0a3,3,0,0,1,.91-.33.79.79,0,0,0,0,.34l0,.1v0l0,0,0,0h0a1.82,1.82,0,0,1,.43-.53h0a1.33,1.33,0,0,0,0,.28h0l0,0h0a1.74,1.74,0,0,1,.3-.31l.06,0a2,2,0,0,1,.54-.3.79.79,0,0,0-.17.36v.08h0l0,0h0a3,3,0,0,1,.74-.3,5.37,5.37,0,0,0-1.31.9,2.41,2.41,0,0,0-.88,2.45v0l0,0,0,0h0a2.84,2.84,0,0,1,.6-.87,1.54,1.54,0,0,0,.22.3l.09.08v0h0l0,0h0a2.14,2.14,0,0,1,.06-.75l0,0a1.14,1.14,0,0,0,.2.23l0,0h0l0,0v0h0a2.54,2.54,0,0,1,.07-.47l0-.07a2.46,2.46,0,0,1,.3-.61A.91.91,0,0,0,97,22l0,.08h.07a4,4,0,0,1,.9-1.19l.23-.21a1.41,1.41,0,0,0,.28.48l0,.19a.94.94,0,0,0,.27.68h.68a.91.91,0,0,0,.29-.69l0-.18a1.16,1.16,0,0,0,.27-.44l.17.16a4.09,4.09,0,0,1,.9,1.18v0h.06l0-.08a.91.91,0,0,0,.08-.44,2.46,2.46,0,0,1,.3.61l0,.07a1.54,1.54,0,0,1,.08.46v0l0,0h0a.93.93,0,0,0,.21-.23l0,0a1.91,1.91,0,0,1,.06.75h0l0,0h0l.09-.08a1.21,1.21,0,0,0,.22-.3,3.29,3.29,0,0,1,.61.87h0l0,0,0,0h0a2.41,2.41,0,0,0-.89-2.46,5.27,5.27,0,0,0-1.29-.9,3,3,0,0,1,.73.3h0l0,0v-.1a.79.79,0,0,0-.17-.36,2,2,0,0,1,.54.3l.06,0a1.74,1.74,0,0,1,.3.31h0l0,0h0a1.33,1.33,0,0,0,0-.28h0a1.71,1.71,0,0,1,.44.53v0h0l0,0h0l0-.1a1.31,1.31,0,0,0,0-.34,2.64,2.64,0,0,1,.9.34h0l0,0h0v0Z"/><path class="cls-9" d="M101.28,29.93a3.75,3.75,0,0,0-.22-.64l1.57-.95L103,29l-1.72,1Zm3.4-.89c-.23-.43-.85-.37-1.38-.12l-.44-.71s.5-.28.83-.09.78.37.82-.11-.54-.87-1.42-.47a22.64,22.64,0,0,0-2.41,1.4,3.62,3.62,0,0,0-2.76-.29c-2,.35-2,0-2,0s0-.81-.65-.79-.47.92,0,1.25.55.32,1.47.29a6.43,6.43,0,0,1,2.79.46l-2.39,0s-.19,0-.11.24a4,4,0,0,0,1.3,1.9l1.32,0a4,4,0,0,0,.5-.2,2.23,2.23,0,0,0,.91-1.07c.2-.19,2.72-1.67,2.89-1.25s.29.27.48.24a.46.46,0,0,0,.3-.69Z"/><path class="cls-6" d="M107.5,31.8l-.1-.06A13.75,13.75,0,0,0,101,30.8,2.13,2.13,0,0,1,99.52,32l-.92,0,.41.09H99c2.24.57,5.23,3.44,6,4.16l.22-.25c-1-1.35-5-4-5-4,2,.43,4.77,3.06,5.33,3.62l.32-.42a36.17,36.17,0,0,0-5.08-3.64c2.1.55,4.62,2.74,5.28,3.34.09-.12.17-.25.25-.38C105.05,33,101,31,101,31a15.53,15.53,0,0,1,5.46,3.06c.07-.13.14-.26.22-.39a43.21,43.21,0,0,0-4.62-2.8c1.16.13,4.37,2.13,4.81,2.4A2.55,2.55,0,0,0,107,33a22,22,0,0,0-3.4-1.94,9.58,9.58,0,0,1,3.53,1.65l.12-.29a11.94,11.94,0,0,0-1.87-1,4.87,4.87,0,0,1,2,.81l.14-.39Z"/></svg>