<svg id="Capa_1" data-name="Capa 1" xmlns="http://www.w3.org/2000/svg" viewBox="0 0 350 50"><defs><style>.cls-1,.cls-2{fill:#333;}.cls-2{fill-rule:evenodd;}</style></defs><path class="cls-1" d="M135.87,20.48a3.38,3.38,0,0,1-1.31-.78l.35-.68a3.25,3.25,0,0,0,1.19.73,4.28,4.28,0,0,0,1.54.28,2.83,2.83,0,0,0,1.67-.41,1.25,1.25,0,0,0,.56-1.06,1,1,0,0,0-.3-.79,2.06,2.06,0,0,0-.74-.46c-.3-.1-.7-.22-1.22-.35a14.21,14.21,0,0,1-1.49-.45,2.49,2.49,0,0,1-1-.67,1.81,1.81,0,0,1-.39-1.22,2.11,2.11,0,0,1,.33-1.15,2.31,2.31,0,0,1,1-.82,4.2,4.2,0,0,1,1.7-.31,5,5,0,0,1,1.39.2,3.89,3.89,0,0,1,1.18.54l-.3.7a4,4,0,0,0-1.11-.52,4.29,4.29,0,0,0-1.16-.17,2.68,2.68,0,0,0-1.64.42,1.29,1.29,0,0,0-.55,1.08,1.07,1.07,0,0,0,.3.8,2.08,2.08,0,0,0,.76.47c.3.1.71.22,1.23.34a12.12,12.12,0,0,1,1.47.45,2.43,2.43,0,0,1,1,.66,1.77,1.77,0,0,1,.39,1.2,2.11,2.11,0,0,1-.33,1.15,2.29,2.29,0,0,1-1,.81,4.37,4.37,0,0,1-1.72.31A5.31,5.31,0,0,1,135.87,20.48Z"/><path class="cls-1" d="M148.08,14.48V20.7h-.81V19.57a2.33,2.33,0,0,1-.91.88,2.75,2.75,0,0,1-1.33.31,2.42,2.42,0,0,1-2.63-2.67V14.48h.84V18a2.11,2.11,0,0,0,.49,1.5,1.8,1.8,0,0,0,1.38.51,2,2,0,0,0,1.56-.6,2.37,2.37,0,0,0,.56-1.67V14.48Z"/><path class="cls-1" d="M155.23,14.83a2.82,2.82,0,0,1,1.11,1.11,3.6,3.6,0,0,1,0,3.3,2.91,2.91,0,0,1-1.11,1.12,3.18,3.18,0,0,1-1.59.4,2.92,2.92,0,0,1-1.4-.33,2.49,2.49,0,0,1-1-1V20.7h-.81V11.92h.84v3.74a2.67,2.67,0,0,1,1-.92,3,3,0,0,1,1.37-.31A3.18,3.18,0,0,1,155.23,14.83Zm-.46,4.89a2.21,2.21,0,0,0,.83-.86,2.84,2.84,0,0,0,0-2.54,2.21,2.21,0,0,0-.83-.86,2.39,2.39,0,0,0-1.19-.3,2.36,2.36,0,0,0-1.19.3,2.21,2.21,0,0,0-.83.86,2.84,2.84,0,0,0,0,2.54,2.21,2.21,0,0,0,.83.86,2.36,2.36,0,0,0,1.19.3A2.39,2.39,0,0,0,154.77,19.72Z"/><path class="cls-1" d="M158.68,20.54A3,3,0,0,1,157.6,20l.37-.66a3.06,3.06,0,0,0,1,.5,3.87,3.87,0,0,0,1.23.2,2.31,2.31,0,0,0,1.26-.27.85.85,0,0,0,.41-.75.68.68,0,0,0-.23-.54,1.42,1.42,0,0,0-.56-.29,7,7,0,0,0-.92-.2,9.66,9.66,0,0,1-1.22-.29,1.84,1.84,0,0,1-.78-.5,1.41,1.41,0,0,1-.33-1,1.53,1.53,0,0,1,.65-1.27,2.88,2.88,0,0,1,1.81-.5,4.52,4.52,0,0,1,1.21.16,3.07,3.07,0,0,1,1,.42l-.37.67a3.19,3.19,0,0,0-1.84-.53,2.21,2.21,0,0,0-1.21.28.88.88,0,0,0-.41.75.75.75,0,0,0,.23.57,1.41,1.41,0,0,0,.58.31,8.21,8.21,0,0,0,.94.21,11,11,0,0,1,1.2.28,1.79,1.79,0,0,1,.77.49,1.35,1.35,0,0,1,.32.95,1.51,1.51,0,0,1-.68,1.29,3.26,3.26,0,0,1-1.89.48A4.63,4.63,0,0,1,158.68,20.54Z"/><path class="cls-1" d="M169.67,17.85h-5.21a2.24,2.24,0,0,0,.75,1.57,2.47,2.47,0,0,0,1.7.6,2.65,2.65,0,0,0,1.07-.21,2.39,2.39,0,0,0,.84-.61l.47.54a2.52,2.52,0,0,1-1,.76,3.73,3.73,0,0,1-3.07-.15A2.84,2.84,0,0,1,164,19.22a3.17,3.17,0,0,1-.42-1.63A3.26,3.26,0,0,1,164,16a2.82,2.82,0,0,1,1.09-1.13,3.22,3.22,0,0,1,3.11,0A2.82,2.82,0,0,1,169.29,16a3.27,3.27,0,0,1,.4,1.64Zm-4.51-2.13a2.3,2.3,0,0,0-.7,1.5h4.42a2.29,2.29,0,0,0-.69-1.5,2.16,2.16,0,0,0-1.52-.57A2.12,2.12,0,0,0,165.16,15.72Z"/><path class="cls-1" d="M172.33,20.36a3,3,0,0,1-1.14-1.13,3.23,3.23,0,0,1-.42-1.64,3.17,3.17,0,0,1,.42-1.63,3,3,0,0,1,1.14-1.13,3.36,3.36,0,0,1,1.65-.4,3.18,3.18,0,0,1,1.44.31,2.4,2.4,0,0,1,1,.92l-.62.43a2,2,0,0,0-.79-.7,2.36,2.36,0,0,0-1-.23,2.44,2.44,0,0,0-1.21.3,2.17,2.17,0,0,0-.84.86,2.65,2.65,0,0,0-.3,1.27,2.59,2.59,0,0,0,.3,1.27,2.17,2.17,0,0,0,.84.86A2.44,2.44,0,0,0,174,20a2.36,2.36,0,0,0,1-.23,2,2,0,0,0,.79-.68l.62.42a2.4,2.4,0,0,1-1,.92,3.24,3.24,0,0,1-1.44.31A3.36,3.36,0,0,1,172.33,20.36Z"/><path class="cls-1" d="M179.76,14.75a2.91,2.91,0,0,1,1.45-.32v.82l-.2,0a2,2,0,0,0-1.54.61,2.39,2.39,0,0,0-.56,1.69V20.7h-.84V14.48h.8V15.7A2.05,2.05,0,0,1,179.76,14.75Z"/><path class="cls-1" d="M188.24,17.85H183a2.24,2.24,0,0,0,.75,1.57,2.45,2.45,0,0,0,1.7.6,2.69,2.69,0,0,0,1.07-.21,2.39,2.39,0,0,0,.84-.61l.47.54a2.52,2.52,0,0,1-1,.76,3.41,3.41,0,0,1-1.37.26,3.37,3.37,0,0,1-1.7-.41,2.93,2.93,0,0,1-1.16-1.13,3.48,3.48,0,0,1,0-3.26,2.76,2.76,0,0,1,1.09-1.13,3,3,0,0,1,1.55-.4,3,3,0,0,1,1.55.4A2.84,2.84,0,0,1,187.86,16a3.37,3.37,0,0,1,.39,1.64Zm-4.52-2.13a2.34,2.34,0,0,0-.69,1.5h4.42a2.3,2.3,0,0,0-.7-1.5,2.3,2.3,0,0,0-3,0Z"/><path class="cls-1" d="M193.25,20.33a1.52,1.52,0,0,1-.59.32,2.17,2.17,0,0,1-.72.11A1.65,1.65,0,0,1,190.11,19V15.19H189v-.71h1.11V13.11H191v1.37h1.9v.71H191V18.9a1.19,1.19,0,0,0,.28.85,1.07,1.07,0,0,0,.8.29,1.69,1.69,0,0,0,.5-.08,1.22,1.22,0,0,0,.42-.24Z"/><path class="cls-1" d="M198.83,15a2.36,2.36,0,0,1,.65,1.8V20.7h-.81v-1a1.86,1.86,0,0,1-.83.76,3,3,0,0,1-1.31.27,2.56,2.56,0,0,1-1.66-.49,1.73,1.73,0,0,1,0-2.6,2.82,2.82,0,0,1,1.83-.48h2v-.38a1.6,1.6,0,0,0-.45-1.23,1.87,1.87,0,0,0-1.32-.42,3.32,3.32,0,0,0-1.13.2,2.79,2.79,0,0,0-.94.54l-.38-.63a3.3,3.3,0,0,1,1.14-.62,4.32,4.32,0,0,1,1.4-.22A2.63,2.63,0,0,1,198.83,15Zm-1,4.73a1.94,1.94,0,0,0,.76-.94v-1h-2c-1.06,0-1.6.38-1.6,1.12a1,1,0,0,0,.42.86,1.88,1.88,0,0,0,1.16.31A2.2,2.2,0,0,0,197.88,19.77Z"/><path class="cls-1" d="M203.45,14.75a2.93,2.93,0,0,1,1.45-.32v.82l-.2,0a2,2,0,0,0-1.54.61,2.39,2.39,0,0,0-.56,1.69V20.7h-.84V14.48h.81V15.7A2,2,0,0,1,203.45,14.75Z"/><path class="cls-1" d="M207.79,12h1.13L207,13.5h-.83Zm-1.28,2.44h.84V20.7h-.84Z"/><path class="cls-1" d="M213.75,15a2.36,2.36,0,0,1,.65,1.8V20.7h-.81v-1a1.86,1.86,0,0,1-.83.76,3,3,0,0,1-1.31.27,2.58,2.58,0,0,1-1.66-.49,1.73,1.73,0,0,1,0-2.6,2.82,2.82,0,0,1,1.83-.48h2v-.38a1.6,1.6,0,0,0-.45-1.23,1.87,1.87,0,0,0-1.32-.42,3.32,3.32,0,0,0-1.13.2,2.79,2.79,0,0,0-.94.54l-.38-.63a3.3,3.3,0,0,1,1.14-.62,4.32,4.32,0,0,1,1.4-.22A2.63,2.63,0,0,1,213.75,15Zm-.95,4.73a1.94,1.94,0,0,0,.76-.94v-1h-2c-1.06,0-1.59.38-1.59,1.12a1,1,0,0,0,.41.86,1.88,1.88,0,0,0,1.16.31A2.2,2.2,0,0,0,212.8,19.77Z"/><path class="cls-1" d="M225.47,11.92V20.7h-.81V19.47a2.49,2.49,0,0,1-1,1,2.92,2.92,0,0,1-1.4.33,3.18,3.18,0,0,1-1.59-.4,2.91,2.91,0,0,1-1.11-1.12,3.6,3.6,0,0,1,0-3.3,2.82,2.82,0,0,1,1.11-1.11,3.18,3.18,0,0,1,1.59-.4,2.94,2.94,0,0,1,1.37.31,2.59,2.59,0,0,1,1,.92V11.92Zm-2,7.8a2.21,2.21,0,0,0,.83-.86,2.84,2.84,0,0,0,0-2.54,2.21,2.21,0,0,0-.83-.86,2.33,2.33,0,0,0-1.18-.3,2.36,2.36,0,0,0-1.19.3,2.21,2.21,0,0,0-.83.86,2.84,2.84,0,0,0,0,2.54,2.21,2.21,0,0,0,.83.86,2.36,2.36,0,0,0,1.19.3A2.33,2.33,0,0,0,223.51,19.72Z"/><path class="cls-1" d="M233.24,17.85H228a2.19,2.19,0,0,0,.74,1.57,2.48,2.48,0,0,0,1.71.6,2.61,2.61,0,0,0,1.06-.21,2.34,2.34,0,0,0,.85-.61l.47.54a2.56,2.56,0,0,1-1,.76,3.71,3.71,0,0,1-3.06-.15,2.87,2.87,0,0,1-1.16-1.13,3.26,3.26,0,0,1-.41-1.63,3.36,3.36,0,0,1,.39-1.63,2.89,2.89,0,0,1,1.09-1.13,3,3,0,0,1,1.56-.4,3,3,0,0,1,1.55.4A2.84,2.84,0,0,1,232.86,16a3.37,3.37,0,0,1,.39,1.64Zm-4.52-2.13a2.25,2.25,0,0,0-.69,1.5h4.41a2.25,2.25,0,0,0-.69-1.5,2.3,2.3,0,0,0-3,0Z"/><path class="cls-1" d="M146.42,39v2.84H134.56V26.54h11.57v2.84h-8v3.33h7.1v2.75h-7.1V39Z"/><path class="cls-1" d="M167,31.21a5.3,5.3,0,0,1,1.31,3.9v6.74h-3.42V35.64a3.16,3.16,0,0,0-.58-2.09,2,2,0,0,0-1.65-.69,2.43,2.43,0,0,0-1.9.78,3.3,3.3,0,0,0-.7,2.3v5.91h-3.41V35.64c0-1.85-.75-2.78-2.23-2.78a2.39,2.39,0,0,0-1.88.78,3.3,3.3,0,0,0-.7,2.3v5.91h-3.42V30.08h3.26v1.36a4.3,4.3,0,0,1,1.61-1.14,5.44,5.44,0,0,1,2.09-.39,5,5,0,0,1,2.25.49,4,4,0,0,1,1.62,1.43,4.87,4.87,0,0,1,1.83-1.42,5.65,5.65,0,0,1,2.41-.5A4.71,4.71,0,0,1,167,31.21Z"/><path class="cls-1" d="M180.79,30.66a5.38,5.38,0,0,1,2.11,2.12,7,7,0,0,1,0,6.37,5.38,5.38,0,0,1-2.11,2.12,6,6,0,0,1-3,.75,4.54,4.54,0,0,1-3.55-1.42v5.49h-3.41v-16h3.26v1.36a4.54,4.54,0,0,1,3.7-1.53A6,6,0,0,1,180.79,30.66Zm-1.42,7.68a3.78,3.78,0,0,0,0-4.75,3.08,3.08,0,0,0-4.31,0,3.78,3.78,0,0,0,0,4.75,3.08,3.08,0,0,0,4.31,0Z"/><path class="cls-1" d="M185.4,25.62h3.41V41.85H185.4Z"/><path class="cls-1" d="M202.89,36.93H194a2.79,2.79,0,0,0,1.14,1.73,3.79,3.79,0,0,0,2.23.63A4.57,4.57,0,0,0,199,39a4,4,0,0,0,1.32-.87l1.82,2a6.11,6.11,0,0,1-4.86,1.9,7.66,7.66,0,0,1-3.52-.77,5.68,5.68,0,0,1-2.36-2.16,5.87,5.87,0,0,1-.83-3.12,6,6,0,0,1,.82-3.12,5.73,5.73,0,0,1,2.25-2.17,6.71,6.71,0,0,1,3.21-.77,6.59,6.59,0,0,1,3.12.74,5.44,5.44,0,0,1,2.2,2.13A6.39,6.39,0,0,1,203,36S202.94,36.36,202.89,36.93Zm-8-3.79a2.8,2.8,0,0,0-1,1.8h5.79a2.78,2.78,0,0,0-1-1.79,2.89,2.89,0,0,0-1.92-.66A3,3,0,0,0,194.91,33.14Z"/><path class="cls-1" d="M207,41.25a5.87,5.87,0,0,1-2.31-2.16,6.3,6.3,0,0,1,0-6.25A5.87,5.87,0,0,1,207,30.68a7.18,7.18,0,0,1,3.34-.77,7.07,7.07,0,0,1,3.32.77,5.84,5.84,0,0,1,2.3,2.16,6.3,6.3,0,0,1,0,6.25,5.84,5.84,0,0,1-2.3,2.16,7,7,0,0,1-3.32.77A7.06,7.06,0,0,1,207,41.25Zm5.49-2.91a3.78,3.78,0,0,0,0-4.75,2.83,2.83,0,0,0-2.15-.88,2.88,2.88,0,0,0-2.17.88,3.74,3.74,0,0,0,0,4.75,2.88,2.88,0,0,0,2.17.88A2.83,2.83,0,0,0,212.44,38.34Z"/><path class="cls-1" d="M111.7,38.53l-.11.88a13,13,0,0,1,1.67.05,4.5,4.5,0,0,0,2,.07,8.17,8.17,0,0,1,2.1-.11l-.15-.94a8.29,8.29,0,0,1-5.51.05"/><path class="cls-1" d="M113.8,42.11v.11a1.62,1.62,0,0,0,1.15-.45l0-.1,0,.07h0a2.92,2.92,0,0,0,1.17-1l.61,0A4.69,4.69,0,0,1,115,41.94v.19a5.94,5.94,0,0,0,2.58-1.41l-.1-.68a7.44,7.44,0,0,0-1.78.14,4.8,4.8,0,0,1-2.11.07,15.81,15.81,0,0,0-2.1-.13l-.11.6A5.32,5.32,0,0,0,113.8,42.11ZM112,40.74h.75a3,3,0,0,0,1.11,1,1.1,1.1,0,0,0,0,.18h0A5,5,0,0,1,112,40.74Zm3.67,0a3.47,3.47,0,0,1-.77.78l0,0a.61.61,0,0,0-.5-.27.59.59,0,0,0-.46.23,3.9,3.9,0,0,1-.73-.74A6.36,6.36,0,0,0,115.63,40.78Zm-.71.89a.21.21,0,0,0,0-.07A.21.21,0,0,1,114.92,41.67Z"/><path class="cls-1" d="M119.35,45.08l.2-.71a7.52,7.52,0,0,1-4.58-2v.13s0,.08,0,.11,0-.07,0-.11v-.06a1.84,1.84,0,0,1-1.17.11h0a7,7,0,0,1-4.37,1.79l.23.82a8.14,8.14,0,0,0,4.25-2.31.48.48,0,0,0,.21.19,8,8,0,0,1-4.3,2.66l.19.67s1.95-.07,4.38-3.27l.18,0c2.43,3.23,4.4,3.3,4.4,3.3l.17-.61A8.16,8.16,0,0,1,114.79,43l.1-.14v0A7.54,7.54,0,0,0,119.35,45.08ZM115,42.66c0,.05,0,.1,0,.14S114.94,42.71,115,42.66Z"/><path class="cls-2" d="M102.22,26.43a2.33,2.33,0,0,1-1.33-2.09,7.29,7.29,0,0,1,.19-2.3,18.25,18.25,0,0,0,.82,1.66,3.16,3.16,0,0,1,.37,2.47C102.25,26.24,102.24,26.32,102.22,26.43Z"/><path class="cls-2" d="M102.59,25.74a2.3,2.3,0,0,1,.94-2,5.94,5.94,0,0,0,.84-.82c-.07.38-.13.84-.23,1.28A1.78,1.78,0,0,1,102.59,25.74Z"/><path class="cls-2" d="M102.69,29.14a2.33,2.33,0,0,1-1.75-1.75,7.56,7.56,0,0,1-.32-2.28c.38.46.73,1,1.16,1.44a3.12,3.12,0,0,1,.9,2.33C102.68,29,102.69,29,102.69,29.14Z"/><path class="cls-2" d="M102.91,28.39a2.26,2.26,0,0,1,.48-2.15,5.51,5.51,0,0,0,.63-1c0,.39.06.85.06,1.3A1.79,1.79,0,0,1,102.91,28.39Z"/><path class="cls-2" d="M102.94,31.62A2.33,2.33,0,0,1,101.11,30a7.36,7.36,0,0,1-.41-2.27,17.58,17.58,0,0,0,1.22,1.39,3.18,3.18,0,0,1,1,2.28C102.92,31.44,102.93,31.52,102.94,31.62Z"/><path class="cls-2" d="M103.12,30.87a2.28,2.28,0,0,1,.39-2.18,6,6,0,0,0,.59-1c0,.39.1.84.12,1.3A1.81,1.81,0,0,1,103.12,30.87Z"/><path class="cls-2" d="M103.65,34.13a2.3,2.3,0,0,1-2-1.43,7.32,7.32,0,0,1-.68-2.21,16.44,16.44,0,0,0,1.38,1.24,3.22,3.22,0,0,1,1.27,2.15C103.62,34,103.63,34,103.65,34.13Z"/><path class="cls-2" d="M103.74,33.36a2.31,2.31,0,0,1,.13-2.2,5.57,5.57,0,0,0,.46-1.07c.08.37.21.82.28,1.27A1.79,1.79,0,0,1,103.74,33.36Z"/><path class="cls-2" d="M104.92,35.72a2.28,2.28,0,0,1-.31-2.18,5.89,5.89,0,0,0,.24-1.15c.15.35.36.77.52,1.2A1.8,1.8,0,0,1,104.92,35.72Z"/><path class="cls-2" d="M106.4,37.8a2.33,2.33,0,0,1-.69-2.1,5.1,5.1,0,0,0,.05-1.17c.21.32.48.7.72,1.09A1.81,1.81,0,0,1,106.4,37.8Z"/><path class="cls-2" d="M108.65,39.33a2.32,2.32,0,0,1-1.23-1.84,5.34,5.34,0,0,0-.28-1.13c.29.25.66.54,1,.85A1.79,1.79,0,0,1,108.65,39.33Z"/><path class="cls-2" d="M102.09,19.74c.21.62.39,1.25.61,1.86a2.87,2.87,0,0,1-.17,2.19,1.87,1.87,0,0,1-.83-1.24,3.94,3.94,0,0,1,.1-1.84C101.88,20.37,102,20.05,102.09,19.74Z"/><path class="cls-2" d="M101.42,33.53c.59.29,1.16.59,1.76.86a2.88,2.88,0,0,1,1.44,1.66,1.86,1.86,0,0,1-1.47-.28,3.94,3.94,0,0,1-1.25-1.35C101.72,34.12,101.57,33.81,101.42,33.53Z"/><path class="cls-2" d="M104.92,21.11c-.14.37-.26.8-.44,1.2a1.49,1.49,0,0,1-1.53,1,2,2,0,0,1,1-1.54A9,9,0,0,0,104.92,21.11Z"/><path class="cls-2" d="M102.84,21.28a2,2,0,0,1-.28-2,5.62,5.62,0,0,1,.94-1.7,3.29,3.29,0,0,0,0,.57,8.47,8.47,0,0,0,.06,1.13,2.23,2.23,0,0,1-.5,1.76l-.12.18Z"/><path class="cls-2" d="M103.36,21a1.65,1.65,0,0,1,1.3-1.06,5,5,0,0,0,.85-.24C104.93,20.78,104.31,21.28,103.36,21Z"/><path class="cls-2" d="M103.78,19.35a1.71,1.71,0,0,1-.07-1.54,4.21,4.21,0,0,1,1.15-1.5c-.09.62-.15,1.24-.25,1.85A2.1,2.1,0,0,1,103.78,19.35Z"/><path class="cls-2" d="M106.4,18.42c-.59.65-1.19,1.3-2.12.74a1.38,1.38,0,0,1,1.35-.69A3.26,3.26,0,0,0,106.4,18.42Z"/><path class="cls-2" d="M105.18,18a1.72,1.72,0,0,1-.15-1.54,4.32,4.32,0,0,1,1.06-1.57c0,.63-.08,1.25-.15,1.87A2.16,2.16,0,0,1,105.18,18Z"/><path class="cls-2" d="M107.75,16.91c-.56.68-1.12,1.36-2.09.86A1.41,1.41,0,0,1,107,17,4,4,0,0,0,107.75,16.91Z"/><path class="cls-2" d="M106.29,16.43a1.72,1.72,0,0,1,.17-1.53,4.14,4.14,0,0,1,1.35-1.32c-.17.6-.32,1.21-.52,1.8A2.09,2.09,0,0,1,106.29,16.43Z"/><path class="cls-2" d="M109.05,15.67c-.62.62-1.25,1.25-2.16.65a1.4,1.4,0,0,1,1.39-.63A4,4,0,0,0,109.05,15.67Z"/><path class="cls-2" d="M110.81,40.63a2.31,2.31,0,0,1-1.43-1.69,6,6,0,0,0-.4-1.1c.32.22.71.46,1.07.74A1.8,1.8,0,0,1,110.81,40.63Z"/><path class="cls-2" d="M110.68,13.22c-.72,1.22-1.44,2.44-3.09,1.89a2.23,2.23,0,0,1,1.89-1.55A6.11,6.11,0,0,0,110.68,13.22Z"/><path class="cls-2" d="M112.41,41.7a1.68,1.68,0,0,1-1.55.5,4.76,4.76,0,0,1-1.52-.53,2.84,2.84,0,0,0,.47,0,6.68,6.68,0,0,0,.91-.2,1.84,1.84,0,0,1,1.51.15l.16.08A.11.11,0,0,1,112.41,41.7Z"/><path class="cls-2" d="M108.73,40a1.77,1.77,0,0,1-1.55.1A4.28,4.28,0,0,1,105.66,39c.62.06,1.24.11,1.86.21A2.1,2.1,0,0,1,108.73,40Z"/><path class="cls-2" d="M110.73,40.86a1.76,1.76,0,0,1-1.48.43,4.39,4.39,0,0,1-1.73-.77c.62-.07,1.24-.15,1.86-.19A2.06,2.06,0,0,1,110.73,40.86Z"/><path class="cls-2" d="M107.11,38.56a1.75,1.75,0,0,1-1.54.18,4.41,4.41,0,0,1-1.59-1c.63,0,1.26,0,1.87.11A2.08,2.08,0,0,1,107.11,38.56Z"/><path class="cls-2" d="M105.55,37.4a1.73,1.73,0,0,1-1.54-.08A4.32,4.32,0,0,1,102.62,36c.61.14,1.23.26,1.82.43A2,2,0,0,1,105.55,37.4Z"/><path class="cls-2" d="M126.68,26.43A2.35,2.35,0,0,0,128,24.34a7.93,7.93,0,0,0-.19-2.3c-.27.54-.5,1.14-.82,1.66a3.16,3.16,0,0,0-.37,2.47C126.64,26.24,126.66,26.32,126.68,26.43Z"/><path class="cls-2" d="M126.3,25.74a2.28,2.28,0,0,0-.94-2,6.44,6.44,0,0,1-.83-.82c.07.38.12.84.23,1.28A1.77,1.77,0,0,0,126.3,25.74Z"/><path class="cls-2" d="M126.21,29.14A2.33,2.33,0,0,0,128,27.39a7.55,7.55,0,0,0,.31-2.28c-.37.46-.73,1-1.16,1.44a3.16,3.16,0,0,0-.9,2.33Z"/><path class="cls-2" d="M126,28.39a2.28,2.28,0,0,0-.48-2.15,5,5,0,0,1-.63-1c0,.39-.07.85-.07,1.3A1.81,1.81,0,0,0,126,28.39Z"/><path class="cls-2" d="M126,31.62A2.33,2.33,0,0,0,127.79,30a7.36,7.36,0,0,0,.41-2.27A17.58,17.58,0,0,1,127,29.08a3.1,3.1,0,0,0-1,2.28C126,31.44,126,31.52,126,31.62Z"/><path class="cls-2" d="M125.78,30.87a2.33,2.33,0,0,0-.39-2.18,5.43,5.43,0,0,1-.59-1c0,.39-.1.84-.12,1.3A1.8,1.8,0,0,0,125.78,30.87Z"/><path class="cls-2" d="M125.24,34.13a2.32,2.32,0,0,0,2-1.43,7.32,7.32,0,0,0,.68-2.21c-.45.41-.89.87-1.38,1.24a3.18,3.18,0,0,0-1.27,2.15C125.28,34,125.26,34,125.24,34.13Z"/><path class="cls-2" d="M125.15,33.36a2.28,2.28,0,0,0-.12-2.2,5,5,0,0,1-.47-1.07c-.08.37-.2.82-.27,1.27A1.78,1.78,0,0,0,125.15,33.36Z"/><path class="cls-2" d="M124,35.72a2.28,2.28,0,0,0,.31-2.18,5.89,5.89,0,0,1-.24-1.15c-.15.35-.36.77-.52,1.2A1.78,1.78,0,0,0,124,35.72Z"/><path class="cls-2" d="M122.5,37.8a2.3,2.3,0,0,0,.68-2.1,5.73,5.73,0,0,1,0-1.17c-.21.32-.49.7-.72,1.09A1.8,1.8,0,0,0,122.5,37.8Z"/><path class="cls-2" d="M120.24,39.33a2.33,2.33,0,0,0,1.24-1.84,5.32,5.32,0,0,1,.27-1.13c-.29.25-.65.54-1,.85A1.82,1.82,0,0,0,120.24,39.33Z"/><path class="cls-2" d="M126.8,19.74c-.2.62-.39,1.25-.61,1.86a2.87,2.87,0,0,0,.18,2.19,1.91,1.91,0,0,0,.83-1.24,3.94,3.94,0,0,0-.1-1.84C127,20.37,126.9,20.05,126.8,19.74Z"/><path class="cls-2" d="M127.48,33.53c-.59.29-1.17.59-1.76.86a2.84,2.84,0,0,0-1.44,1.66,1.86,1.86,0,0,0,1.47-.28A3.91,3.91,0,0,0,127,34.42C127.17,34.12,127.32,33.81,127.48,33.53Z"/><path class="cls-2" d="M124,21.11c.14.37.26.8.43,1.2a1.5,1.5,0,0,0,1.53,1,1.94,1.94,0,0,0-1-1.54A7.3,7.3,0,0,1,124,21.11Z"/><path class="cls-2" d="M126.05,21.28a2,2,0,0,0,.29-2,6.08,6.08,0,0,0-.94-1.7c0,.24,0,.41,0,.57a8.47,8.47,0,0,1-.06,1.13,2.22,2.22,0,0,0,.49,1.76l.13.18Z"/><path class="cls-2" d="M125.53,21a1.62,1.62,0,0,0-1.29-1.06,4.75,4.75,0,0,1-.85-.24C124,20.78,124.58,21.28,125.53,21Z"/><path class="cls-2" d="M125.12,19.35a1.78,1.78,0,0,0,.07-1.54,4.33,4.33,0,0,0-1.15-1.5c.08.62.14,1.24.25,1.85A2.06,2.06,0,0,0,125.12,19.35Z"/><path class="cls-2" d="M122.49,18.42c.6.65,1.2,1.3,2.13.74a1.39,1.39,0,0,0-1.36-.69A3.33,3.33,0,0,1,122.49,18.42Z"/><path class="cls-2" d="M123.72,18a1.75,1.75,0,0,0,.15-1.54,4.32,4.32,0,0,0-1.06-1.57c0,.63.07,1.25.15,1.87A2.06,2.06,0,0,0,123.72,18Z"/><path class="cls-2" d="M121.15,16.91c.56.68,1.12,1.36,2.08.86a1.38,1.38,0,0,0-1.31-.77A3.86,3.86,0,0,1,121.15,16.91Z"/><path class="cls-2" d="M122.6,16.43a1.72,1.72,0,0,0-.16-1.53,4.35,4.35,0,0,0-1.35-1.32c.17.6.32,1.21.52,1.8A2.07,2.07,0,0,0,122.6,16.43Z"/><path class="cls-2" d="M119.85,15.67c.62.62,1.25,1.25,2.15.65a1.38,1.38,0,0,0-1.38-.63A3.92,3.92,0,0,1,119.85,15.67Z"/><path class="cls-2" d="M118.09,40.63a2.34,2.34,0,0,0,1.43-1.69,5.36,5.36,0,0,1,.4-1.1c-.32.22-.72.46-1.08.74A1.79,1.79,0,0,0,118.09,40.63Z"/><path class="cls-2" d="M118.22,13.22c.71,1.22,1.43,2.44,3.09,1.89a2.25,2.25,0,0,0-1.9-1.55A6,6,0,0,1,118.22,13.22Z"/><path class="cls-2" d="M116.49,41.7a1.67,1.67,0,0,0,1.55.5,4.62,4.62,0,0,0,1.51-.53,2.71,2.71,0,0,1-.46,0,6.68,6.68,0,0,1-.91-.2,1.87,1.87,0,0,0-1.52.15l-.15.08Z"/><path class="cls-2" d="M120.17,40a1.74,1.74,0,0,0,1.54.1A4.23,4.23,0,0,0,123.24,39c-.62.06-1.24.11-1.86.21A2,2,0,0,0,120.17,40Z"/><path class="cls-2" d="M118.16,40.86a1.79,1.79,0,0,0,1.49.43,4.46,4.46,0,0,0,1.73-.77c-.63-.07-1.24-.15-1.86-.19A2.11,2.11,0,0,0,118.16,40.86Z"/><path class="cls-2" d="M121.79,38.56a1.74,1.74,0,0,0,1.53.18,4.33,4.33,0,0,0,1.59-1c-.62,0-1.25,0-1.87.11A2.06,2.06,0,0,0,121.79,38.56Z"/><path class="cls-2" d="M123.35,37.4a1.74,1.74,0,0,0,1.54-.08A4.28,4.28,0,0,0,126.27,36c-.61.14-1.22.26-1.81.43A2,2,0,0,0,123.35,37.4Z"/><path class="cls-2" d="M114.39,14.27c-5.33,0-9.65,5.54-9.65,12.37S109.06,39,114.39,39,124,33.48,124,26.64,119.72,14.27,114.39,14.27Zm-4.67,7a0,0,0,0,0,0,0,2.12,2.12,0,0,1,1.85-1.31,4.33,4.33,0,0,1,1.57,0,2,2,0,0,0-.58-.16h0s0,0,0,0v0h0s0,0,0,0a.87.87,0,0,1,.27-.15,2,2,0,0,0-.47-.06h0a1.55,1.55,0,0,0-.31,0s0,0,0,0h0a0,0,0,0,1,0,0h0a.59.59,0,0,1,.1-.17h0a1.53,1.53,0,0,0-.49.11,0,0,0,0,1,0,0h0a0,0,0,0,1,0,0h0l0-.05a.66.66,0,0,1,.15-.21,1.91,1.91,0,0,0-.67-.21h0s0,0,0,0,0,0,0,0h0a1.7,1.7,0,0,1,1.79.07,3.5,3.5,0,0,1,.9.7l.07-.08a2.19,2.19,0,0,0-.26-.39h0v0s0,0,0,0h0a.65.65,0,0,1,.26.06,1.63,1.63,0,0,0-.27-.31l0,0a1.5,1.5,0,0,0-.23-.15h0s0,0,0,0a0,0,0,0,1,0,0h0l.15,0h0a1.23,1.23,0,0,0-.39-.21h0s0,0,0,0,0,0,0,0h.05a.65.65,0,0,1,.23-.06,2,2,0,0,0-.32-.52,0,0,0,0,1,0,0v0a0,0,0,0,1,0,0h0a1.5,1.5,0,0,1,1.13,1.09,3,3,0,0,1,.14.51h.06a2.73,2.73,0,0,1,.14-.51,1.5,1.5,0,0,1,1.13-1.09h0a0,0,0,0,1,0,0s0,0,0,0a0,0,0,0,1,0,0,2.75,2.75,0,0,0-.32.52.6.6,0,0,1,.23.06h.05a0,0,0,0,1,0,0s0,0,0,0h0a1.09,1.09,0,0,0-.38.21,0,0,0,0,0,0,0l.16,0s0,0,0,0,0,0,0,0,0,0,0,0h0a1.07,1.07,0,0,0-.22.15l0,0a2.07,2.07,0,0,0-.27.31.66.66,0,0,1,.27-.06h0a0,0,0,0,1,0,0s0,0,0,0h0a3.66,3.66,0,0,0-.23.33.7.7,0,0,1,.08.1,3.57,3.57,0,0,1,.87-.66,1.69,1.69,0,0,1,1.78-.07h0v0a.05.05,0,0,1,0,0h0a2,2,0,0,0-.67.21.66.66,0,0,1,.15.21l0,.05h0s0,0,0,0h0a1.53,1.53,0,0,0-.48-.11h0a.42.42,0,0,1,.1.17h0a0,0,0,0,1,0,0h0a1.45,1.45,0,0,0-.3,0h-.06a1.88,1.88,0,0,0-.46.06,1,1,0,0,1,.27.15l0,0h0v0s0,0,0,0h0a2,2,0,0,0-.58.16,4.33,4.33,0,0,1,1.57,0A2.09,2.09,0,0,1,119,21.22a0,0,0,0,0,0,0h0s0,0,0,0h0a3.09,3.09,0,0,0-.86-.33,1.3,1.3,0,0,1,0,.34s0,.06,0,.09h0s0,0,0,0h0a1.64,1.64,0,0,0-.41-.5h0a.74.74,0,0,1,0,.26v0s0,0,0,0h0a0,0,0,0,1,0,0,1.28,1.28,0,0,0-.28-.29l-.06,0a1.58,1.58,0,0,0-.51-.29.74.74,0,0,1,.16.35.17.17,0,0,1,0,.07v0a0,0,0,0,1,0,0h0a3.32,3.32,0,0,0-.69-.29,5.31,5.31,0,0,1,1.23.85,2.33,2.33,0,0,1,.84,2.33h0a.05.05,0,0,1,0,0l0,0h0a2.9,2.9,0,0,0-.57-.82,1.32,1.32,0,0,1-.21.29l-.09.07h0a0,0,0,0,1,0,0h0a2,2,0,0,0-.06-.72,0,0,0,0,0,0,0,.69.69,0,0,1-.19.22s0,0,0,0h0l0,0v0a1.68,1.68,0,0,0-.07-.43l0-.07a2.2,2.2,0,0,0-.28-.58.93.93,0,0,1-.07.42.56.56,0,0,0,0,.08h0l0,0a0,0,0,0,1,0,0s0,0,0,0a3.88,3.88,0,0,0-.85-1.12l-.16-.15a1.07,1.07,0,0,1-.26.41,1,1,0,0,1,0,.17.88.88,0,0,1-.27.66h0c0,.38,0,2.54.06,4.19h0v2h-.68l0-2.21h0c0-1.74,0-3.89,0-4h0a.86.86,0,0,1-.26-.65,1.1,1.1,0,0,1,0-.18,1.13,1.13,0,0,1-.27-.45l-.22.2a4.07,4.07,0,0,0-.85,1.12h0l0,0h0a.59.59,0,0,1,0-.08.81.81,0,0,1-.08-.42,2.57,2.57,0,0,0-.28.58s0,.05,0,.07a2.24,2.24,0,0,0-.07.44h0v0s0,0,0,0h0s0,0,0,0a.69.69,0,0,1-.19-.22,0,0,0,0,0,0,0,1.76,1.76,0,0,0,0,.72h0a0,0,0,0,1,0,0h0s0,0,0,0l-.08-.07a1.85,1.85,0,0,1-.22-.29,2.9,2.9,0,0,0-.57.82h0s0,0,0,0l0,0h0a2.31,2.31,0,0,1,.85-2.33,5.1,5.1,0,0,1,1.23-.85,3.21,3.21,0,0,0-.7.29h0s0,0,0,0h0a.17.17,0,0,0,0-.07.85.85,0,0,1,.16-.35,1.69,1.69,0,0,0-.51.29.1.1,0,0,0,0,0,1.59,1.59,0,0,0-.29.29h0a.05.05,0,0,1,0,0v0a.74.74,0,0,1,0-.26h0a1.61,1.61,0,0,0-.4.5h0s0,0,0,0h0s0-.06,0-.09a1.3,1.3,0,0,1,0-.34,3.35,3.35,0,0,0-.85.32h0s0,0,0,0Zm4.68,17.5c-5.18,0-9.37-5.39-9.37-12v-.27h8.83v2H115v-2h8.78v.27C123.77,33.34,119.57,38.73,114.4,38.73Z"/><path class="cls-1" d="M122.38,31.38l-.09-.05a13.3,13.3,0,0,0-6-.93c.4-.29,2.56-1.53,2.7-1.15s.29.26.47.23a.45.45,0,0,0,.29-.66c-.23-.41-.82-.35-1.33-.12L118,28s.47-.28.79-.09.74.35.78-.11-.52-.83-1.36-.44a22.72,22.72,0,0,0-2.3,1.33,3.45,3.45,0,0,0-2.64-.27c-1.88.34-1.93,0-1.93,0s0-.78-.62-.76-.46.88,0,1.2.52.3,1.4.28a6.21,6.21,0,0,1,2.68.43l-2.3,0s-.18,0-.11.23c0,.07.1.25.2.47-.88,0-4.88,0-6.45.14,0,.13.06.25.1.38.47,0,4.15-.16,6.63,0a3,3,0,0,0,.48.62,35.78,35.78,0,0,0-6.88.12c0,.16.11.32.17.47a47.77,47.77,0,0,1,7-.37h.08l.61,0c2.12.54,5,3.25,5.62,3.93l.21-.23c-.9-1.28-4.71-3.8-4.71-3.8,1.94.4,4.5,2.89,5,3.42l.3-.4A34,34,0,0,0,116,31.12c2,.52,4.36,2.59,5,3.16.08-.12.16-.24.23-.36-1.13-1.36-4.93-3.27-4.93-3.27a14.59,14.59,0,0,1,5.16,2.89c.07-.12.14-.24.2-.37a40.4,40.4,0,0,0-4.35-2.65c1.09.13,4.12,2,4.54,2.28a2.36,2.36,0,0,0,.12-.28,20.63,20.63,0,0,0-3.21-1.83,9.11,9.11,0,0,1,3.34,1.56c0-.1.07-.19.1-.27a10.36,10.36,0,0,0-1.76-1,4.6,4.6,0,0,1,1.85.76C122.29,31.63,122.34,31.51,122.38,31.38Zm-4.25-2.64-1.65.93a3.41,3.41,0,0,0-.21-.61l1.5-.91S118.16,28.67,118.13,28.74Zm.76-1.36c.41,0,.7.44.49.57-.06,0-.22.07-.5-.12a.88.88,0,0,0-.78,0c-.32.18-1.74,1-1.92,1.1a.67.67,0,0,0-.14-.11S118.05,27.38,118.89,27.38ZM111.54,29c-.46,0-.84-.16-.93-.52s0-.6.17-.57c.51.07,0,.76.72.83a9.6,9.6,0,0,0,2-.12,3.05,3.05,0,0,1,2.59.53c.23.32.17.87.31.78l.51-.3a6.9,6.9,0,0,1,2.18-1c.65,0,.6.62.46.66-.33.09-.17-.15-.53-.26s-1.51.46-2.29.88c-.35.19-.55.36-.7.41s-.08-.24-.11-.37c-.11-.36-.33-.57-.46-.54s.18.3.31.57,0,.26,0,.29a1.79,1.79,0,0,1-.29-.4,2,2,0,0,0-1.87-.86C112.88,29,112,29,111.54,29Zm1,.73,2.48.06a1.08,1.08,0,0,1,.18.2c.57.83.35,1,0,1.2-.11.07-.16.15-.15.21l-1.09,0A2.69,2.69,0,0,1,112.55,29.7Z"/><path class="cls-1" d="M113,38a6.74,6.74,0,0,0,5.2-1.08S118,36.53,113,38Z"/><path class="cls-1" d="M110.75,37.1a7.4,7.4,0,0,0,1.31.61,45.86,45.86,0,0,1,7.72-2h0A31.41,31.41,0,0,0,110.75,37.1Z"/><path class="cls-1" d="M109.28,36a9.16,9.16,0,0,0,1,.79A34.21,34.21,0,0,1,118.91,35S117.26,34.36,109.28,36Z"/><path class="cls-1" d="M108.28,34.92c.21.25.42.5.65.73a40.82,40.82,0,0,1,8.95-1.47S116.39,33.39,108.28,34.92Z"/><path class="cls-1" d="M116.74,33.48s-1.79-.79-9.23.31a6.07,6.07,0,0,0,.44.68A37,37,0,0,1,116.74,33.48Z"/><path class="cls-1" d="M115.56,32.65s-2.35-.92-8.65,0c.08.19.17.37.26.54A37.32,37.32,0,0,1,115.56,32.65Z"/><path class="cls-1" d="M118.37,14.42a1.38,1.38,0,0,1-.52-.85s-.13-.51-.55-.47c0,0,.23.44.33.68s.2.55.49.74a1.54,1.54,0,0,1-.9-.5c-.38-.43-.42-.38-.42-.38s-.15.13-.08.24a2.06,2.06,0,0,0,.51.54,3.3,3.3,0,0,0,1,.46.86.86,0,0,1,.57.59A1.57,1.57,0,0,0,118.37,14.42Z"/><path class="cls-1" d="M112.2,13.65s0-.06-.41.37a1.56,1.56,0,0,1-.9.5,1.3,1.3,0,0,0,.49-.74c.1-.24.33-.68.33-.68-.42,0-.55.47-.55.47a1.36,1.36,0,0,1-.53.85,1.6,1.6,0,0,0-.44,1.05.86.86,0,0,1,.57-.59,3.3,3.3,0,0,0,1-.46,2.06,2.06,0,0,0,.51-.54C112.36,13.77,112.15,13.81,112.2,13.65Z"/><path class="cls-1" d="M118.9,10.8a3.9,3.9,0,0,0,1.15-.32.87.87,0,0,1,.82,0,1.59,1.59,0,0,0-1-.47c-.55,0-1.17,0-1.28-.19l2-1-2,.06a4.05,4.05,0,0,0,.86-.83.86.86,0,0,1,.75-.34,1.55,1.55,0,0,0-1.13.08c-.46.28-1,.51-1.16.43h0l1.42-1.74-1.83.94a4,4,0,0,0,.42-1.12.84.84,0,0,1,.52-.63,1.5,1.5,0,0,0-1,.56c-.3.47-.66.9-.87.9l.59-2.2-1.35,1.66a1.78,1.78,0,0,0,0-1.31.87.87,0,0,1,.23-.8,1.55,1.55,0,0,0-.68.92c-.08.55-.18,1-.37,1.09L114.5,4.4l-.51,2c-.19-.08-.28-.46-.34-1a1.51,1.51,0,0,0-.63-.94.84.84,0,0,1,.19.8,2,2,0,0,0,0,1.24l-1.3-1.6.58,2.2c-.2,0-.57-.42-.86-.89a1.57,1.57,0,0,0-1-.57.88.88,0,0,1,.52.64,4,4,0,0,0,.42,1.12l-1.82-1,1.42,1.74v0c-.19.08-.7-.15-1.16-.44a1.58,1.58,0,0,0-1.14-.08.89.89,0,0,1,.75.35,4.24,4.24,0,0,0,.87.83l-2.06-.06,2,1c-.12.17-.73.23-1.29.19a1.54,1.54,0,0,0-1,.47.88.88,0,0,1,.82,0,4.41,4.41,0,0,0,1.16.32l-1.84.92,2.31-.09c0,.2-.6.57-1.12.77a1.55,1.55,0,0,0-.75.86.87.87,0,0,1,.73-.39,1.89,1.89,0,0,0,1.88-.8,2.07,2.07,0,0,0-.71.32,1.36,1.36,0,0,1-.94.18,2.15,2.15,0,0,0,1-.6c.17-.2.44-.59.44-.59l-1.67,0,1.54-.85s-.17-.13-.74-.07a1.67,1.67,0,0,1-1-.17,2.29,2.29,0,0,0,1.18-.12c.24-.11.65-.35.65-.35l-1.48-.71,1.77,0s-.1-.2-.64-.42a1.61,1.61,0,0,1-.76-.6,2.22,2.22,0,0,0,1.09.45,5.13,5.13,0,0,0,.68,0l-1.07-1.25,1.59.75s0-.22-.38-.65a1.66,1.66,0,0,1-.43-.88,2.31,2.31,0,0,0,.79.89,4.75,4.75,0,0,0,.56.24L112.43,6l1,1.26s.1-.18-.06-.74a1.44,1.44,0,0,1,.05-1,2.35,2.35,0,0,0,.32,1.15,3.82,3.82,0,0,1,.3.55l.46-1.65.32,1.59s.21-.3.37-.51a2.16,2.16,0,0,0,.37-1.12,1.44,1.44,0,0,1,0,1c-.18.56,0,.76,0,.76l1-1.26-.37,1.57s.33-.13.56-.25a2.14,2.14,0,0,0,.78-.89,1.6,1.6,0,0,1-.42.88c-.39.44-.39.65-.39.65l1.6-.74-1.07,1.25a5.74,5.74,0,0,0,.67,0A2.22,2.22,0,0,0,119,8.09a1.6,1.6,0,0,1-.76.61c-.54.22-.63.41-.63.41l1.76,0-1.47.71s.41.24.64.35a2.2,2.2,0,0,0,1.18.12,1.65,1.65,0,0,1-1,.17c-.58-.06-.75.07-.75.07l1.54.85-1.66,0s.26.37.43.57a2.15,2.15,0,0,0,1,.6,1.36,1.36,0,0,1-.94-.18,2.05,2.05,0,0,0-.72-.32,1.9,1.9,0,0,0,1.89.8.87.87,0,0,1,.73.39,1.55,1.55,0,0,0-.75-.86c-.52-.2-1.08-.55-1.11-.75l2.3.09Zm-5.71-4.2,0-.07,0,.07Z"/><polygon class="cls-1" points="113.95 9.97 113.95 9.97 113.94 9.96 113.91 9.94 113.89 9.92 113.79 9.87 113.69 9.82 113.59 9.78 113.49 9.75 113.4 9.72 113.3 9.71 113.21 9.7 113.12 9.69 113.02 9.69 112.93 9.7 112.84 9.71 112.76 9.72 112.67 9.74 112.59 9.77 112.52 9.79 112.44 9.81 112.37 9.84 112.3 9.88 112.24 9.9 112.17 9.94 112.11 9.97 112.06 10 112.01 10.03 111.96 10.06 111.89 10.11 111.83 10.15 111.8 10.18 111.78 10.19 111.78 10.2 111.78 10.2 111.79 10.21 111.8 10.21 111.81 10.22 111.82 10.22 111.84 10.22 111.85 10.21 111.87 10.21 111.9 10.2 111.92 10.19 111.95 10.18 111.98 10.15 112.02 10.12 112.07 10.1 112.13 10.07 112.19 10.03 112.26 10 112.34 9.97 112.42 9.94 112.5 9.92 112.59 9.89 112.68 9.87 112.77 9.85 112.86 9.83 112.95 9.83 112.99 9.82 113.03 9.82 113.08 9.82 113.12 9.82 113.17 9.83 113.22 9.84 113.27 9.85 113.33 9.87 113.43 9.91 113.52 9.95 113.56 9.97 113.61 9.99 113.66 10 113.7 10.02 113.74 10.03 113.78 10.04 113.8 10.04 113.83 10.04 113.84 10.04 113.87 10.03 113.89 10.03 113.91 10.03 113.93 10.02 113.94 10.01 113.95 10.01 113.96 10 113.96 9.99 113.96 9.99 113.96 9.98 113.95 9.97"/><polygon class="cls-1" points="113.68 10.25 113.6 10.22 113.52 10.19 113.44 10.16 113.36 10.14 113.28 10.13 113.2 10.12 113.13 10.12 113.05 10.12 112.98 10.13 112.91 10.14 112.83 10.14 112.77 10.16 112.7 10.18 112.64 10.2 112.58 10.22 112.52 10.24 112.46 10.26 112.41 10.29 112.32 10.33 112.24 10.38 112.12 10.46 112.08 10.48 112.08 10.48 112.08 10.49 112.09 10.49 112.1 10.5 112.11 10.5 112.14 10.5 112.17 10.49 112.21 10.48 112.24 10.46 112.27 10.43 112.31 10.41 112.35 10.39 112.4 10.37 112.46 10.35 112.52 10.32 112.58 10.3 112.65 10.28 112.72 10.27 112.79 10.25 112.86 10.23 112.93 10.22 113 10.22 113.07 10.22 113.13 10.22 113.18 10.22 113.24 10.22 113.29 10.24 113.33 10.26 113.43 10.29 113.52 10.32 113.56 10.34 113.6 10.35 113.64 10.36 113.69 10.37 113.72 10.37 113.76 10.37 113.78 10.37 113.8 10.36 113.82 10.36 113.84 10.35 113.76 10.3 113.68 10.25"/><path class="cls-1" d="M113.66,10.51l-.07,0-.07-.05-.07,0-.08,0-.07,0-.08,0h-.41l-.06,0-.07,0-.06,0-.06,0,0,0-.06,0,0,0,0,0,0,0,0,0-.07.05,0,0,0,0h0l0,0,0,0,.07,0,.08,0,.08,0,.1,0h0l0,0h.68l.07,0,.07,0,.06,0,.07,0,.07,0,.07,0,.07,0-.07-.07ZM113,10.4h.08l0,0v0h0v.1l0,0h-.17v-.12h0v-.05H113Zm-.22,0h.08v0h0v0h0v.06h0v.06h0v0h.26v0h0l0,0v0h0v-.06h0v0l0,0h0v0h.12v0h0v.07h0v.17l0,0,0,0v0l0,0h0l0,0h-.28l0,0h0v0l0,0v0l0,0v-.27Zm0,.43h-.13l-.08,0-.07,0-.07,0-.06,0,0,0,0,0,0,0,.1-.07.07,0,.08,0,0,0,.05,0h0v.32h0v0h0v0h0Zm.89-.13-.06,0-.06,0-.06,0-.06,0h-.06l-.06,0h0l0,0,0,0,0,0v0l0,0,0,0v-.18h0l.07,0,0,0,.07,0,.06.05.06.05Z"/><polygon class="cls-1" points="117.1 10.11 117.05 10.07 116.97 10.01 116.93 9.98 116.88 9.95 116.82 9.92 116.77 9.89 116.7 9.86 116.64 9.83 116.57 9.8 116.5 9.77 116.42 9.74 116.34 9.72 116.26 9.7 116.18 9.68 116.09 9.67 116 9.66 115.91 9.65 115.82 9.65 115.73 9.65 115.63 9.66 115.54 9.68 115.44 9.71 115.34 9.74 115.24 9.78 115.15 9.82 115.05 9.88 115.02 9.89 115 9.91 114.99 9.92 114.98 9.93 114.98 9.94 114.97 9.94 114.97 9.95 114.98 9.96 114.98 9.97 114.99 9.97 115 9.98 115.02 9.98 115.05 9.99 115.07 9.99 115.09 9.99 115.11 9.99 115.13 9.99 115.15 9.99 115.19 9.98 115.24 9.97 115.28 9.96 115.32 9.94 115.37 9.92 115.42 9.9 115.51 9.87 115.61 9.83 115.66 9.81 115.71 9.8 115.76 9.79 115.82 9.78 115.86 9.78 115.9 9.78 115.94 9.78 115.99 9.78 116.08 9.79 116.16 9.8 116.26 9.83 116.34 9.85 116.43 9.88 116.52 9.9 116.59 9.93 116.67 9.96 116.74 9.99 116.81 10.02 116.86 10.05 116.91 10.08 116.95 10.11 116.98 10.13 117.01 10.14 117.04 10.15 117.06 10.16 117.08 10.17 117.1 10.17 117.11 10.17 117.12 10.17 117.13 10.17 117.14 10.16 117.15 10.15 117.15 10.15 117.15 10.14 117.14 10.14 117.1 10.11"/><polygon class="cls-1" points="116.7 10.34 116.62 10.29 116.53 10.24 116.47 10.22 116.42 10.2 116.36 10.17 116.3 10.15 116.24 10.14 116.17 10.12 116.1 10.11 116.03 10.09 115.96 10.08 115.89 10.07 115.81 10.07 115.73 10.08 115.65 10.09 115.58 10.1 115.5 10.12 115.42 10.14 115.34 10.18 115.25 10.22 115.17 10.26 115.09 10.31 115.11 10.31 115.14 10.32 115.15 10.32 115.17 10.32 115.21 10.32 115.25 10.32 115.29 10.32 115.33 10.3 115.38 10.29 115.42 10.28 115.51 10.25 115.6 10.22 115.65 10.2 115.7 10.19 115.75 10.18 115.8 10.17 115.87 10.17 115.93 10.17 116.01 10.18 116.08 10.2 116.15 10.21 116.22 10.22 116.28 10.24 116.35 10.26 116.42 10.28 116.48 10.3 116.53 10.32 116.58 10.35 116.63 10.37 116.67 10.39 116.7 10.41 116.72 10.43 116.77 10.45 116.8 10.46 116.82 10.46 116.84 10.46 116.85 10.45 116.85 10.45 116.86 10.44 116.81 10.41 116.7 10.34"/><path class="cls-1" d="M116.66,10.49l0,0,0,0,0,0,0,0,0,0-.05,0-.07,0,0,0-.07,0h-.06l-.07,0h-.42l-.07,0-.08,0-.07,0-.08,0-.06.06-.08.06-.07.07.07,0,.07,0,.07,0,.07,0,.07,0,.07,0,.07,0h.62l.05,0h.06l0,0,.1,0,.09,0,.07,0,.07,0,.06,0,0,0,0,0Zm-.7-.13H116v0l0,0v.13l0,0v0h-.15v0l0,0v-.09l0,0v0h.1Zm-.21,0h0v0h0v.06h0v0h0v0h0v0h.23v0h0l0,0v0h0v0h0v-.06h0v0l0,0h.12v.19l0,0v0l0,0v0l0,0v0l0,0,0,0h0l0,0h-.23l0,0h0l0,0,0,0v0l0,0v0l0,0v-.24l0,0h0Zm-.08.44h-.12l0,0-.06,0-.06,0-.06,0-.06,0,.06-.06.06,0,.06,0,.06,0,.07,0h0v.24l0,0,0,0,0,0,0,0,0,0Zm1-.14,0,0-.06,0-.06,0-.07,0-.08,0,0,0h0l0,0h0l0,0,0,0,0,0,0,0,0,0v-.24h0l0,0,0,0,.07,0,.08,0,.1.07,0,0Z"/><path class="cls-1" d="M116.8,13.64a3.75,3.75,0,0,1-2.31.81,3.68,3.68,0,0,1-2.29-.8l-.15.16a3.86,3.86,0,0,0,2.44.86,3.9,3.9,0,0,0,2.43-.85"/></svg>