<svg id="Capa_1" data-name="Capa 1" xmlns="http://www.w3.org/2000/svg" viewBox="0 0 350 50"><defs><style>.cls-1{fill:#333;}.cls-2{fill:#78bc56;}.cls-3{fill:#60c3db;}.cls-4{fill:#2e9d5c;}</style></defs><polygon class="cls-1" points="62.43 10.38 62.43 18.93 61.56 18.93 61.56 12.09 58.2 17.84 57.78 17.84 54.42 12.13 54.42 18.93 53.55 18.93 53.55 10.38 54.3 10.38 58.01 16.72 61.68 10.38 62.43 10.38 62.43 10.38"/><path class="cls-1" d="M65,12.51h.86v6.42H65V12.51Zm0-1.59a.58.58,0,0,1-.19-.44.57.57,0,0,1,.19-.43.65.65,0,0,1,.9,0,.54.54,0,0,1,.18.42.64.64,0,0,1-1.08.45Z"/><path class="cls-1" d="M73.51,13.16a2.76,2.76,0,0,1,.71,2v3.73h-.87V15.29a2.11,2.11,0,0,0-.5-1.53,1.87,1.87,0,0,0-1.43-.52,2.2,2.2,0,0,0-1.64.61,2.36,2.36,0,0,0-.6,1.71v3.37h-.87V12.51h.83v1.18a2.53,2.53,0,0,1,1-.91,3.11,3.11,0,0,1,1.46-.32,2.63,2.63,0,0,1,1.93.7Z"/><path class="cls-1" d="M76.57,12.51h.87v6.42h-.87V12.51Zm0-1.59a.6.6,0,0,1-.18-.44.6.6,0,0,1,.18-.43A.63.63,0,0,1,77,9.87a.65.65,0,0,1,.46.18.54.54,0,0,1,.18.42.61.61,0,0,1-.18.45.65.65,0,0,1-.46.18.63.63,0,0,1-.45-.18Z"/><path class="cls-1" d="M80.08,18.76A3.2,3.2,0,0,1,79,18.19l.39-.68a3.42,3.42,0,0,0,1,.52,4.16,4.16,0,0,0,1.27.2,2.45,2.45,0,0,0,1.3-.27.89.89,0,0,0,.42-.78.69.69,0,0,0-.23-.55,1.51,1.51,0,0,0-.59-.31,7.05,7.05,0,0,0-.94-.2,11.09,11.09,0,0,1-1.25-.3,1.92,1.92,0,0,1-.82-.52,1.45,1.45,0,0,1-.33-1A1.58,1.58,0,0,1,79.87,13a3,3,0,0,1,1.87-.51,4.8,4.8,0,0,1,1.24.16,3.67,3.67,0,0,1,1,.43l-.38.7a3.21,3.21,0,0,0-1.89-.55,2.22,2.22,0,0,0-1.25.29.91.91,0,0,0-.42.77.75.75,0,0,0,.23.59,1.44,1.44,0,0,0,.6.32c.23.07.56.14,1,.22a8.71,8.71,0,0,1,1.23.29,1.81,1.81,0,0,1,.8.5,1.38,1.38,0,0,1,.33,1,1.56,1.56,0,0,1-.7,1.33,3.35,3.35,0,0,1-2,.5,5,5,0,0,1-1.5-.23Z"/><path class="cls-1" d="M89.21,18.54a1.88,1.88,0,0,1-.61.33,2.36,2.36,0,0,1-.75.12A1.71,1.71,0,0,1,86,17.12V13.24H84.83v-.73H86V11.1h.87v1.41h2v.73h-2v3.83a1.22,1.22,0,0,0,.29.87,1.07,1.07,0,0,0,.82.3,1.82,1.82,0,0,0,.52-.08,1.22,1.22,0,0,0,.43-.25l.31.63Z"/><path class="cls-1" d="M91.72,13.79A2.36,2.36,0,0,0,91,15.34h4.56a2.36,2.36,0,0,0-.72-1.55,2.22,2.22,0,0,0-1.57-.59,2.19,2.19,0,0,0-1.55.59ZM96.37,16H91a2.31,2.31,0,0,0,.77,1.62,2.56,2.56,0,0,0,1.76.62,2.67,2.67,0,0,0,1.1-.22,2.4,2.4,0,0,0,.86-.62l.49.56a2.73,2.73,0,0,1-1.07.78A3.55,3.55,0,0,1,93.5,19a3.59,3.59,0,0,1-1.75-.42,3,3,0,0,1-1.19-1.17,3.38,3.38,0,0,1-.42-1.68,3.49,3.49,0,0,1,.4-1.69,3,3,0,0,1,1.13-1.16,3.33,3.33,0,0,1,3.2,0A3,3,0,0,1,96,14a3.5,3.5,0,0,1,.4,1.7V16Z"/><path class="cls-1" d="M99.89,12.79a3.14,3.14,0,0,1,1.5-.33v.84h-.21a2,2,0,0,0-1.58.62A2.45,2.45,0,0,0,99,15.66v3.27h-.87V12.51H99v1.25a2.14,2.14,0,0,1,.91-1Z"/><path class="cls-1" d="M103.05,12.51h.87v6.42h-.87V12.51Zm0-1.59a.63.63,0,0,1,.9-.87.54.54,0,0,1,.18.42.64.64,0,0,1-1.08.45Z"/><path class="cls-1" d="M110.18,17.91A2.15,2.15,0,0,0,111,17a2.9,2.9,0,0,0,0-2.61,2.15,2.15,0,0,0-.85-.89,2.58,2.58,0,0,0-2.45,0,2.21,2.21,0,0,0-.85.89,2.82,2.82,0,0,0,0,2.61,2.21,2.21,0,0,0,.85.89,2.58,2.58,0,0,0,2.45,0Zm-2.9.66a3.13,3.13,0,0,1-1.17-1.17,3.59,3.59,0,0,1,0-3.37,3.1,3.1,0,0,1,1.17-1.16,3.63,3.63,0,0,1,3.35,0A3,3,0,0,1,111.8,14a3.59,3.59,0,0,1,0,3.37,3.06,3.06,0,0,1-1.17,1.17,3.55,3.55,0,0,1-3.35,0Z"/><path class="cls-1" d="M121,17.91a2.3,2.3,0,0,0,.86-.89,2.9,2.9,0,0,0,0-2.61,2.3,2.3,0,0,0-.86-.89,2.45,2.45,0,0,0-1.21-.31,2.5,2.5,0,0,0-1.23.31,2.21,2.21,0,0,0-.85.89,2.9,2.9,0,0,0,0,2.61,2.21,2.21,0,0,0,.85.89,2.5,2.5,0,0,0,1.23.31,2.45,2.45,0,0,0,1.21-.31Zm2-8v9.06h-.83V17.66a2.55,2.55,0,0,1-1,1,3,3,0,0,1-1.44.35,3.23,3.23,0,0,1-1.64-.42A2.92,2.92,0,0,1,117,17.41a3.46,3.46,0,0,1-.41-1.69A3.5,3.5,0,0,1,117,14a2.89,2.89,0,0,1,1.15-1.15,3.22,3.22,0,0,1,1.64-.41,3,3,0,0,1,1.41.32,2.75,2.75,0,0,1,1,1V9.87Z"/><path class="cls-1" d="M126.39,13.79a2.35,2.35,0,0,0-.71,1.55h4.55a2.3,2.3,0,0,0-.71-1.55,2.37,2.37,0,0,0-3.13,0ZM131.05,16h-5.37a2.28,2.28,0,0,0,.77,1.62,2.56,2.56,0,0,0,1.76.62A2.62,2.62,0,0,0,129.3,18a2.35,2.35,0,0,0,.87-.62l.49.56a2.8,2.8,0,0,1-1.07.78,3.62,3.62,0,0,1-1.41.27,3.57,3.57,0,0,1-1.75-.42,3,3,0,0,1-1.19-1.17,3.28,3.28,0,0,1-.43-1.68,3.49,3.49,0,0,1,.41-1.69,2.93,2.93,0,0,1,1.13-1.16,3.33,3.33,0,0,1,3.2,0A3,3,0,0,1,130.66,14a3.5,3.5,0,0,1,.4,1.7V16Z"/><path class="cls-1" d="M61.1,30.71a2,2,0,0,0,.69-1.64,2.05,2.05,0,0,0-.69-1.66,3.15,3.15,0,0,0-2-.58H56.65v4.45h2.42a3.15,3.15,0,0,0,2-.57ZM62.19,25a4.33,4.33,0,0,1,1.93,1.61,4.81,4.81,0,0,1,0,4.93,4.33,4.33,0,0,1-1.93,1.61,7.27,7.27,0,0,1-3,.56H56.65v3.53h-3V24.42h5.55a7.11,7.11,0,0,1,3,.57Z"/><path class="cls-1" d="M70.54,27.6a5.17,5.17,0,0,1,2-.36v2.63l-.64,0a2.63,2.63,0,0,0-1.92.68,2.76,2.76,0,0,0-.7,2.06v4.65H66.43V27.38h2.72v1.3a3.34,3.34,0,0,1,1.39-1.08Z"/><path class="cls-1" d="M80.35,34.3a3.18,3.18,0,0,0,0-4,2.39,2.39,0,0,0-1.8-.74,2.43,2.43,0,0,0-1.82.74,3.14,3.14,0,0,0,0,4,2.43,2.43,0,0,0,1.82.74,2.39,2.39,0,0,0,1.8-.74Zm-4.6,2.43a4.85,4.85,0,0,1-1.93-1.8,5.32,5.32,0,0,1,0-5.24,4.85,4.85,0,0,1,1.93-1.8,5.87,5.87,0,0,1,2.8-.65,5.79,5.79,0,0,1,2.78.65,4.76,4.76,0,0,1,1.92,1.8,5.25,5.25,0,0,1,0,5.24,4.76,4.76,0,0,1-1.92,1.8,5.91,5.91,0,0,1-2.78.65,6,6,0,0,1-2.8-.65Z"/><path class="cls-1" d="M91.91,34.3a3.11,3.11,0,0,0,0-4,2.56,2.56,0,0,0-3.6,0,3.11,3.11,0,0,0,0,4,2.56,2.56,0,0,0,3.6,0Zm3.52-10.65V37.23H92.7V36.1a3.78,3.78,0,0,1-3.08,1.28,5.16,5.16,0,0,1-2.51-.62A4.52,4.52,0,0,1,85.34,35a5.89,5.89,0,0,1,0-5.34,4.52,4.52,0,0,1,1.77-1.78,5.05,5.05,0,0,1,2.51-.62,3.73,3.73,0,0,1,2.95,1.19V23.65Z"/><path class="cls-1" d="M107.53,27.38v9.85h-2.71V36.06a3.68,3.68,0,0,1-1.36,1,4.64,4.64,0,0,1-4.77-.78A4.43,4.43,0,0,1,97.55,33V27.38h2.86v5.15c0,1.58.66,2.38,2,2.38a2.12,2.12,0,0,0,1.65-.67,2.79,2.79,0,0,0,.62-2V27.38Z"/><path class="cls-1" d="M111.66,36.73a4.81,4.81,0,0,1-2-1.8,5.19,5.19,0,0,1,0-5.24,4.81,4.81,0,0,1,2-1.8,6,6,0,0,1,2.83-.65,5.45,5.45,0,0,1,2.72.65,3.82,3.82,0,0,1,1.69,1.86l-2.22,1.19a2.41,2.41,0,0,0-2.21-1.36,2.49,2.49,0,0,0-1.85.73,3.1,3.1,0,0,0,0,4,2.53,2.53,0,0,0,1.85.73,2.4,2.4,0,0,0,2.21-1.36l2.22,1.21a3.94,3.94,0,0,1-1.69,1.83,5.45,5.45,0,0,1-2.72.66,6.11,6.11,0,0,1-2.83-.65Z"/><path class="cls-1" d="M122,36.73a5,5,0,0,1,0-8.84,6,6,0,0,1,2.83-.65,5.42,5.42,0,0,1,2.72.65,3.82,3.82,0,0,1,1.69,1.86l-2.21,1.19a2.42,2.42,0,0,0-2.22-1.36,2.51,2.51,0,0,0-1.85.73,3.1,3.1,0,0,0,0,4,2.55,2.55,0,0,0,1.85.73,2.41,2.41,0,0,0,2.22-1.36l2.21,1.21a3.94,3.94,0,0,1-1.69,1.83,5.42,5.42,0,0,1-2.72.66,6.11,6.11,0,0,1-2.83-.65Z"/><path class="cls-1" d="M130.45,27.38h2.86v9.85h-2.86V27.38Zm.15-1.83a1.46,1.46,0,0,1-.49-1.13,1.5,1.5,0,0,1,.49-1.14,2,2,0,0,1,2.56,0,1.43,1.43,0,0,1,.5,1.1,1.55,1.55,0,0,1-.5,1.18,2,2,0,0,1-2.56,0Z"/><path class="cls-1" d="M141,23.48H144l-3.32,2.64h-2.23L141,23.48Zm1,10.82a3.18,3.18,0,0,0,0-4,2.4,2.4,0,0,0-1.81-.74,2.43,2.43,0,0,0-1.81.74,3.14,3.14,0,0,0,0,4,2.43,2.43,0,0,0,1.81.74A2.4,2.4,0,0,0,142,34.3Zm-4.6,2.43a4.79,4.79,0,0,1-1.93-1.8,5.25,5.25,0,0,1,0-5.24,4.79,4.79,0,0,1,1.93-1.8,6.31,6.31,0,0,1,5.58,0,4.83,4.83,0,0,1,1.92,1.8,5.32,5.32,0,0,1,0,5.24,4.83,4.83,0,0,1-1.92,1.8,6.31,6.31,0,0,1-5.58,0Z"/><path class="cls-1" d="M156,28.34a4.35,4.35,0,0,1,1.12,3.25v5.64h-2.85V32a2.55,2.55,0,0,0-.52-1.74,1.85,1.85,0,0,0-1.48-.58,2.26,2.26,0,0,0-1.72.67,2.73,2.73,0,0,0-.64,2v4.87H147V27.38h2.73v1.16a3.69,3.69,0,0,1,1.41-1,4.84,4.84,0,0,1,1.85-.34,4,4,0,0,1,3,1.1Z"/><path class="cls-1" d="M161.6,34.31a1.72,1.72,0,0,1,.49,1.28,3.1,3.1,0,0,1-.09.73,9.58,9.58,0,0,1-.4,1.1l-1,2.63h-1.81l.81-2.91a1.52,1.52,0,0,1-.73-.59,1.82,1.82,0,0,1-.26-1,1.73,1.73,0,0,1,.5-1.28,1.78,1.78,0,0,1,1.27-.48,1.74,1.74,0,0,1,1.27.48Z"/><polygon class="cls-1" points="168.5 24.42 171.47 24.42 171.47 37.23 168.5 37.23 168.5 24.42 168.5 24.42"/><path class="cls-1" d="M182.79,28.34a4.35,4.35,0,0,1,1.13,3.25v5.64h-2.86V32a2.55,2.55,0,0,0-.51-1.74,1.89,1.89,0,0,0-1.49-.58,2.26,2.26,0,0,0-1.72.67,2.73,2.73,0,0,0-.64,2v4.87h-2.86V27.38h2.73v1.16a3.69,3.69,0,0,1,1.41-1,4.84,4.84,0,0,1,1.85-.34,4,4,0,0,1,3,1.1Z"/><path class="cls-1" d="M192.56,34.3a3.14,3.14,0,0,0,0-4,2.57,2.57,0,0,0-3.61,0,3.14,3.14,0,0,0,0,4,2.57,2.57,0,0,0,3.61,0Zm3.51-10.65V37.23h-2.73V36.1a3.76,3.76,0,0,1-3.07,1.28,5.17,5.17,0,0,1-2.52-.62A4.52,4.52,0,0,1,186,35a5.89,5.89,0,0,1,0-5.34,4.52,4.52,0,0,1,1.77-1.78,5.06,5.06,0,0,1,2.52-.62,3.73,3.73,0,0,1,2.95,1.19V23.65Z"/><path class="cls-1" d="M208.17,27.38v9.85h-2.71V36.06a3.64,3.64,0,0,1-1.35,1,4.66,4.66,0,0,1-4.78-.78A4.43,4.43,0,0,1,198.2,33V27.38h2.85v5.15c0,1.58.67,2.38,2,2.38a2.15,2.15,0,0,0,1.65-.67,2.84,2.84,0,0,0,.62-2V27.38Z"/><path class="cls-1" d="M211.29,37.08a6.35,6.35,0,0,1-1.87-.76l1-2A5.81,5.81,0,0,0,212,35a6.66,6.66,0,0,0,1.84.27c1.2,0,1.81-.3,1.81-.9a.63.63,0,0,0-.5-.6,7,7,0,0,0-1.52-.31,15.68,15.68,0,0,1-2-.42,3.08,3.08,0,0,1-1.37-.85,2.4,2.4,0,0,1-.57-1.72,2.68,2.68,0,0,1,.54-1.65,3.42,3.42,0,0,1,1.57-1.13,6.73,6.73,0,0,1,2.45-.4,9.21,9.21,0,0,1,2.08.23,5.88,5.88,0,0,1,1.71.63l-.95,2a5.69,5.69,0,0,0-2.84-.73,3,3,0,0,0-1.38.25.75.75,0,0,0-.45.66.64.64,0,0,0,.49.64,8,8,0,0,0,1.57.35,18.43,18.43,0,0,1,2,.43,2.94,2.94,0,0,1,1.34.84,2.34,2.34,0,0,1,.57,1.68,2.65,2.65,0,0,1-.55,1.63A3.62,3.62,0,0,1,216.18,37a7.15,7.15,0,0,1-2.49.39,9.62,9.62,0,0,1-2.4-.3Z"/><path class="cls-1" d="M226,36.76a2.84,2.84,0,0,1-1,.46,4.85,4.85,0,0,1-1.29.16,3.81,3.81,0,0,1-2.71-.9,3.38,3.38,0,0,1-1-2.63V29.8h-1.52V27.6H220V25.2h2.86v2.4h2.45v2.2h-2.45v4a1.34,1.34,0,0,0,.32,1,1.18,1.18,0,0,0,.91.34,1.8,1.8,0,0,0,1.15-.37l.77,2Z"/><path class="cls-1" d="M231.25,27.6a5.22,5.22,0,0,1,2-.36v2.63l-.64,0a2.67,2.67,0,0,0-1.93.68,2.8,2.8,0,0,0-.69,2.06v4.65h-2.86V27.38h2.73v1.3a3.25,3.25,0,0,1,1.38-1.08Z"/><path class="cls-1" d="M234.58,27.38h2.85v9.85h-2.85V27.38Zm.14-1.83a1.46,1.46,0,0,1-.49-1.13,1.5,1.5,0,0,1,.49-1.14,2,2,0,0,1,2.56,0,1.39,1.39,0,0,1,.5,1.1,1.51,1.51,0,0,1-.5,1.18A1.77,1.77,0,0,1,236,26a1.8,1.8,0,0,1-1.28-.46Z"/><path class="cls-1" d="M244.68,35.12a1.88,1.88,0,0,0,.81-1v-1h-2c-1.17,0-1.76.39-1.76,1.16a1.06,1.06,0,0,0,.43.87,2,2,0,0,0,1.18.32,2.45,2.45,0,0,0,1.3-.34Zm2.44-6.79a4.14,4.14,0,0,1,1.22,3.28v5.62h-2.67V36a3.2,3.2,0,0,1-3,1.37,4.77,4.77,0,0,1-2-.38,2.87,2.87,0,0,1-1.27-1.07A2.77,2.77,0,0,1,239,34.4a2.55,2.55,0,0,1,1-2.16,5.25,5.25,0,0,1,3.2-.79h2.27a1.83,1.83,0,0,0-.57-1.44,2.54,2.54,0,0,0-1.7-.5,5.12,5.12,0,0,0-1.55.24,4.13,4.13,0,0,0-1.29.67l-1-2a6.3,6.3,0,0,1,1.94-.88,8.52,8.52,0,0,1,2.31-.31,5.12,5.12,0,0,1,3.52,1.09Z"/><path class="cls-1" d="M265,27.38l-4.45,10.46a5.17,5.17,0,0,1-1.68,2.4,4.09,4.09,0,0,1-2.4.69,4.93,4.93,0,0,1-1.52-.24,3.15,3.15,0,0,1-1.23-.66l1-2a2.45,2.45,0,0,0,.76.46,2.39,2.39,0,0,0,.86.17,1.51,1.51,0,0,0,.95-.29,2.49,2.49,0,0,0,.66-.94l0-.09-4.26-9.93h3l2.76,6.69,2.78-6.69Z"/><polygon class="cls-1" points="280.53 34.85 280.53 37.23 270.61 37.23 270.61 24.42 280.29 24.42 280.29 26.8 273.56 26.8 273.56 29.58 279.51 29.58 279.51 31.89 273.56 31.89 273.56 34.85 280.53 34.85 280.53 34.85"/><path class="cls-1" d="M297.79,28.33a4.44,4.44,0,0,1,1.09,3.26v5.64H296V32a2.66,2.66,0,0,0-.48-1.74,1.71,1.71,0,0,0-1.39-.58,2,2,0,0,0-1.59.65,2.8,2.8,0,0,0-.58,1.93v4.94h-2.86V32c0-1.55-.62-2.32-1.87-2.32a2,2,0,0,0-1.57.65,2.8,2.8,0,0,0-.59,1.93v4.94h-2.86V27.38H285v1.14a3.6,3.6,0,0,1,1.35-.95,4.51,4.51,0,0,1,1.75-.33,4.15,4.15,0,0,1,1.88.41,3.28,3.28,0,0,1,1.36,1.2,4,4,0,0,1,1.53-1.19,4.81,4.81,0,0,1,2-.42,4,4,0,0,1,2.94,1.09Z"/><path class="cls-1" d="M308.11,34.3a3.14,3.14,0,0,0,0-4,2.56,2.56,0,0,0-3.6,0,3.14,3.14,0,0,0,0,4,2.56,2.56,0,0,0,3.6,0Zm1.19-6.43a4.46,4.46,0,0,1,1.77,1.78,5.85,5.85,0,0,1,0,5.32,4.46,4.46,0,0,1-1.77,1.78,5,5,0,0,1-2.49.63,3.82,3.82,0,0,1-3-1.19v4.6H301V27.38h2.73v1.14a3.78,3.78,0,0,1,3.1-1.28,5,5,0,0,1,2.49.63Z"/><polygon class="cls-1" points="313.16 23.65 316.01 23.65 316.01 37.23 313.16 37.23 313.16 23.65 313.16 23.65"/><path class="cls-1" d="M321.12,30a2.27,2.27,0,0,0-.8,1.5h4.85a2.36,2.36,0,0,0-2.42-2.05,2.44,2.44,0,0,0-1.63.55Zm6.69,3.16h-7.46a2.31,2.31,0,0,0,1,1.45,3.1,3.1,0,0,0,1.86.53,3.65,3.65,0,0,0,1.37-.23,3.27,3.27,0,0,0,1.1-.72l1.52,1.65a5.09,5.09,0,0,1-4.06,1.59,6.5,6.5,0,0,1-3-.65,4.8,4.8,0,0,1-2-1.8,5,5,0,0,1-.69-2.62,5.11,5.11,0,0,1,.68-2.61,4.77,4.77,0,0,1,1.89-1.81,5.85,5.85,0,0,1,5.3,0,4.53,4.53,0,0,1,1.84,1.79,5.25,5.25,0,0,1,.67,2.7s0,.29-.05.76Z"/><path class="cls-1" d="M335.8,34.3a3.18,3.18,0,0,0,0-4,2.4,2.4,0,0,0-1.81-.74,2.43,2.43,0,0,0-1.81.74,3.14,3.14,0,0,0,0,4A2.43,2.43,0,0,0,334,35a2.4,2.4,0,0,0,1.81-.74Zm-4.6,2.43a4.85,4.85,0,0,1-1.93-1.8,5.32,5.32,0,0,1,0-5.24,4.85,4.85,0,0,1,1.93-1.8,6.31,6.31,0,0,1,5.58,0,4.76,4.76,0,0,1,1.92,1.8,5.25,5.25,0,0,1,0,5.24,4.76,4.76,0,0,1-1.92,1.8,6.31,6.31,0,0,1-5.58,0Z"/><path class="cls-2" d="M20.16,38.42a3.93,3.93,0,0,1-2.79-1.15L17.09,37a4,4,0,0,1,0-5.59l6.62-6.62,5.87,5.87L23,37.27a3.91,3.91,0,0,1-2.79,1.15M35.45,24.78l-5.87-5.87,6.62-6.62a3.95,3.95,0,0,1,5.59,0l.28.28a4,4,0,0,1,0,5.59l-6.62,6.62"/><path class="cls-3" d="M39,38.42a3.93,3.93,0,0,1-2.79-1.15l-6.62-6.62,5.87-5.87,6.62,6.62a4,4,0,0,1,0,5.59l-.28.28A3.93,3.93,0,0,1,39,38.42M23.71,24.78l-6.62-6.62a4,4,0,0,1,0-5.59l.28-.28a3.94,3.94,0,0,1,5.58,0l6.63,6.62-5.87,5.87"/><polyline class="cls-4" points="29.58 30.65 23.71 24.78 29.58 18.91 35.45 24.78 29.58 30.65"/></svg>